<svg xmlns="http://www.w3.org/2000/svg" xmlns:xlink="http://www.w3.org/1999/xlink" width="270" height="210" viewBox="0 0 270 210"><defs><style>.a{fill:#1996fc;}.aa,.ac,.ad,.aj,.b,.l,.o,.y,.z{fill:#fff;}.c{clip-path:url(#a);}.d{clip-path:url(#b);}.e,.s{fill:#db4862;}.f,.t{fill:#364241;}.g,.v{fill:#8d3d80;}.h,.u{fill:#f49169;}.i,.q{fill:#fecf54;}.j,.r{fill:#0d7452;}.k{fill:#5198f5;}.ac,.l{font-size:6px;}.l{font-family:HelveticaNeue-CondensedBold, Helvetica Neue;}.am,.l{font-weight:700;}.ah,.ak,.m,.n{fill:none;}.ah,.m{stroke:#fff;}.m{stroke-width:4px;}.n,.o{stroke:#dde6f6;}.n{stroke-width:3px;}.o{stroke-width:2px;}.p{fill:#ffdc7e;}.p,.q,.r,.s,.t,.u,.v,.w,.y{isolation:isolate;}.w{opacity:0.3;}.x{opacity:0.6;}.z{font-size:9px;font-family:Roboto-Black, Roboto;font-weight:800;letter-spacing:0.008em;}.aa{font-size:7px;letter-spacing:0.031em;}.aa,.ac,.ad,.ag,.aj{font-family:Roboto-Regular, Roboto;}.ab{fill:rgba(255,255,255,0.16);}.ad{font-size:3px;}.ae{opacity:0;}.af{fill:#2699fb;}.ag{fill:rgba(0,0,0,0.6);font-size:1px;letter-spacing:0.033em;}.ai{fill:rgba(255,255,255,0.12);}.aj,.am{font-size:5px;}.al{fill:#e0e0e0;stroke-miterlimit:10;}.am{fill:rgba(0,0,0,0.87);font-family:Roboto-Bold, Roboto;letter-spacing:0.089em;}.an,.ao{stroke:none;}.ao{fill:#fff;}.ap{filter:url(#c);}</style><clipPath id="a"><path class="a" d="M3,0H109a3,3,0,0,1,3,3V210a0,0,0,0,1,0,0H0a0,0,0,0,1,0,0V3A3,3,0,0,1,3,0Z" transform="translate(-0.004 -0.004)"/></clipPath><clipPath id="b"><rect class="b" width="190.162" height="190.152"/></clipPath><filter id="c" x="116.5" y="153.5" width="148" height="35" filterUnits="userSpaceOnUse"><feOffset dy="1" input="SourceAlpha"/><feGaussianBlur stdDeviation="2.5" result="d"/><feFlood flood-color="#fff" flood-opacity="0.2"/><feComposite operator="in" in2="d"/><feComposite in="SourceGraphic"/></filter></defs><g transform="translate(0.004 0.004)"><path class="a" d="M3,0H267a3,3,0,0,1,3,3V210a0,0,0,0,1,0,0H0a0,0,0,0,1,0,0V3A3,3,0,0,1,3,0Z" transform="translate(-0.004 -0.004)"/><g class="c" transform="translate(0 0)"><g transform="translate(-91.336 5.018)"><circle class="b" cx="95.061" cy="95.061" r="95.061" transform="translate(3.934 4.957)"/><g transform="translate(4.235 4.993)"><g class="d"><path class="e" d="M0,29A95.28,95.28,0,0,0,34.1,75.9L89.242,0Z" transform="translate(4.763 95.858)"/><path class="f" d="M0,75.9A94.64,94.64,0,0,0,55.144,93.811V0Z" transform="translate(39.526 96.34)"/><path class="g" d="M4.509,0a95.487,95.487,0,0,0,0,57.993L93.751,29Z" transform="translate(0 66.079)"/><path class="h" d="M34.1,0A95.276,95.276,0,0,0,0,46.9l89.242,29Z" transform="translate(4.762 18.396)"/><path class="i" d="M0,93.811A94.629,94.629,0,0,0,55.144,75.9L0,0Z" transform="translate(95.492 96.34)"/><path class="j" d="M55.144,0A94.63,94.63,0,0,0,0,17.912l55.144,75.9Z" transform="translate(39.526 -0.001)"/><path class="k" d="M0,93.811l55.145-75.9A94.638,94.638,0,0,0,0,0Z" transform="translate(95.492 -0.001)"/><path class="g" d="M89.242,57.993a95,95,0,0,0,4.509-29A95,95,0,0,0,89.242,0L0,29Z" transform="translate(96.411 66.079)"/><path class="e" d="M89.242,46.9A95.28,95.28,0,0,0,55.143,0L0,75.9Z" transform="translate(96.157 18.396)"/><path class="h" d="M55.144,75.9A95.276,95.276,0,0,0,89.243,29L0,0Z" transform="translate(96.156 95.858)"/><text class="l" transform="translate(141.217 63.978) rotate(-36)"><tspan x="-10.38" y="0">10% OFF</tspan></text><text class="l" transform="translate(79.443 43.916) rotate(-108)"><tspan x="-16.323" y="0">Free Shipping</tspan></text><text class="l" transform="matrix(-0.799, -0.602, 0.602, -0.799, 50.699, 59.78)"><tspan x="-14.595" y="0">Almost Near</tspan></text><text class="l" transform="matrix(-1, -0.017, 0.017, -1, 39.323, 93.933)"><tspan x="-10.38" y="0">40% OFF</tspan></text><text class="l" transform="translate(49.518 127.146) rotate(145)"><tspan x="-10.209" y="0">So Close</tspan></text><text class="l" transform="translate(76.7 146.867) rotate(109)"><tspan x="-10.38" y="0">30% OFF</tspan></text><text class="l" transform="matrix(0.292, 0.956, -0.956, 0.292, 111.356, 149.76)"><tspan x="-6.381" y="0">Sorry</tspan></text><text class="l" transform="translate(138.477 127.765) rotate(38)"><tspan x="-10.38" y="0">20% OFF</tspan></text><text class="l" transform="translate(150.353 96.101) rotate(2)"><tspan x="-17.202" y="0">No Luck Today</tspan></text><text class="l" transform="translate(106.665 40.092) rotate(-79)"><tspan x="-13.719" y="0">Better Luck</tspan></text><text class="l" transform="matrix(0.326, -0.946, 0.946, 0.326, 114.683, 44.613)"><tspan x="-17.139" y="0">For Next Time!</tspan></text></g></g><g class="m" transform="translate(4.404 4.957)"><circle class="an" cx="95.061" cy="95.061" r="95.061"/><circle class="ak" cx="95.061" cy="95.061" r="97.061"/></g><g class="n" transform="translate(0.332 -0.022)"><ellipse class="an" cx="99" cy="99.5" rx="99" ry="99.5"/><ellipse class="ak" cx="99" cy="99.5" rx="97.5" ry="98"/></g><g transform="translate(13.63 50.63)"><g class="o" transform="translate(70.702 34.348)"><circle class="an" cx="15" cy="15" r="15"/><circle class="ak" cx="15" cy="15" r="14"/></g><g transform="translate(75.642 39.287)"><g transform="translate(0 0)"><circle class="p" cx="10" cy="10" r="10" transform="translate(0.061 0.061)"/><path class="q" d="M258.074,17.66A9.318,9.318,0,0,0,250,13v9.322Z" transform="translate(-239.94 -12.261)"/><path class="r" d="M14.258,131.48a9.333,9.333,0,0,0,0,9.322l8.074-4.66Z" transform="translate(-12.272 -126.081)"/><path class="s" d="M52.794,13a9.318,9.318,0,0,0-8.074,4.66l8.074,4.662Z" transform="translate(-42.734 -12.261)"/><path class="t" d="M258.074,131.48,250,136.142l8.074,4.662a9.333,9.333,0,0,0,0-9.322Z" transform="translate(-239.94 -126.081)"/><path class="u" d="M44.72,254.662a9.319,9.319,0,0,0,8.074,4.66V250Z" transform="translate(-42.734 -239.94)"/><path class="v" d="M250,259.322a9.319,9.319,0,0,0,8.074-4.66L250,250Z" transform="translate(-239.94 -239.94)"/><g class="w" transform="translate(0.739 0.739)"><path class="x" d="M22.324,31.644a9.322,9.322,0,1,1,6.591-2.73,9.322,9.322,0,0,1-6.591,2.73Zm0-18.41A9.088,9.088,0,1,0,28.751,15.9a9.088,9.088,0,0,0-6.427-2.662Z" transform="translate(-13.003 -13.001)"/></g><circle class="y" cx="2.163" cy="2.163" r="2.163" transform="translate(7.897 7.897)"/></g></g></g></g></g><g transform="translate(124.458 32.118)"><text class="z" transform="translate(0.539 7.878)"><tspan x="0" y="0">Win an Exclusive Prize!</tspan></text><text class="aa" transform="translate(0.539 15.878)"><tspan x="0" y="6">Enter your full name and email to spin </tspan><tspan x="0" y="14">the wheel for a chance to win</tspan></text><g transform="translate(1.004 38.839)"><path class="ab" d="M2,0H130a2,2,0,0,1,2,2V21a0,0,0,0,1,0,0H0a0,0,0,0,1,0,0V2A2,2,0,0,1,2,0Z" transform="translate(-0.465 2.039)"/><text class="ac" transform="translate(6.535 17.039)"><tspan x="0" y="0">Kirlin Hudson</tspan></text><text class="ad" transform="translate(6.535 9.039)"><tspan x="0" y="0">Enter Your Name</tspan></text><g class="ae" transform="translate(5.672 0)"><rect class="af" width="15.444" height="0.415" transform="translate(0 2.907)"/><text class="ag" transform="translate(1.219 1)"><tspan x="0" y="0">Label</tspan></text></g><line class="ah" x2="131.448" transform="translate(0.186 22.548)"/></g><g transform="translate(1.004 64.745)"><path class="ai" d="M2,0H130a2,2,0,0,1,2,2V20a0,0,0,0,1,0,0H0a0,0,0,0,1,0,0V2A2,2,0,0,1,2,0Z" transform="translate(-0.465 2.133)"/><text class="aj" transform="translate(7.851 14.595)"><tspan x="0" y="0">Enter Your Email</tspan></text><g class="ae" transform="translate(5.672 0)"><rect class="af" width="15.444" height="0.415" transform="translate(0 2.907)"/><text class="ag" transform="translate(1.219 1)"><tspan x="0" y="0">Label</tspan></text></g></g><g transform="translate(-0.461 95.878)"><rect class="ak" width="9" height="9"/><g class="al" transform="translate(1 1)"><path class="an" d="M6.222,7H.778A.779.779,0,0,1,0,6.222V.778A.779.779,0,0,1,.778,0H6.222A.779.779,0,0,1,7,.778V6.222A.779.779,0,0,1,6.222,7ZM.778.778V6.222H6.222V.778Z"/><path class="ao" d="M 6.222300052642822 7 L 0.7777000069618225 7 C 0.3488799929618835 7 -4.440892098500626e-16 6.651120185852051 -4.440892098500626e-16 6.222300052642822 L -4.440892098500626e-16 0.7777000069618225 C -4.440892098500626e-16 0.3488799929618835 0.3488799929618835 -4.440892098500626e-16 0.7777000069618225 -4.440892098500626e-16 L 6.222300052642822 -4.440892098500626e-16 C 6.651120185852051 -4.440892098500626e-16 7 0.3488799929618835 7 0.7777000069618225 L 7 6.222300052642822 C 7 6.651120185852051 6.651120185852051 7 6.222300052642822 7 Z M 0.7777000069618225 0.7777000069618225 L 0.7777000069618225 6.222300052642822 L 6.222300052642822 6.222300052642822 L 6.222300052642822 0.7777000069618225 L 0.7777000069618225 0.7777000069618225 Z"/></g></g><text class="aa" transform="translate(14.539 95.878)"><tspan x="0" y="6">I agree to my personal data being </tspan><tspan x="0" y="14">stored and used to receive the </tspan><tspan x="0" y="22">newsletter</tspan></text><g transform="translate(0 127.469)"><g class="ap" transform="matrix(1, 0, 0, 1, -124.46, -159.59)"><rect class="b" width="133" height="20" rx="2" transform="translate(124 160)"/></g><text class="am" transform="translate(63.539 12.41)"><tspan x="-22.224" y="0">TRY YOUR LUCK!</tspan></text></g></g></g></svg>