<?xml version="1.0" encoding="utf-8"?>
<!-- Generator: Adobe Illustrator 18.0.0, SVG Export Plug-In . SVG Version: 6.00 Build 0)  -->
<!DOCTYPE svg PUBLIC "-//W3C//DTD SVG 1.1//EN" "http://www.w3.org/Graphics/SVG/1.1/DTD/svg11.dtd">
<svg version="1.1" id="Layer_1" xmlns="http://www.w3.org/2000/svg" xmlns:xlink="http://www.w3.org/1999/xlink" x="0px" y="0px"
	 viewBox="0 0 65 65" enable-background="new 0 0 65 65" xml:space="preserve">
<path fill="#2699FB" d="M32.6,0.8c-11.1,0-20.9,5.7-26.5,14.3C11,8.1,19.2,3.5,28.5,3.5C43.7,3.5,56,15.8,56,31.1
	S43.7,58.6,28.5,58.6S0.9,46.3,0.9,31.1c0-0.4,0-0.8,0-1.1c-0.1,0.8-0.1,1.7-0.1,2.6c0,17.6,14.2,31.8,31.8,31.8
	s31.8-14.2,31.8-31.8S50.1,0.8,32.6,0.8z"/>
<path fill="#2699FB" d="M31.2,49.3c-10.4,0-18.8-8.5-18.8-18.9s8.4-18.9,18.8-18.9c8.3,0,15.2,5.3,17.8,12.8
	C46.2,15.1,37.7,8.4,27.7,8.4c-12.3,0-22.2,10-22.2,22.3S15.3,53,27.7,53c11.5,0,21-8.8,22.1-20.1C48.5,42.2,40.7,49.3,31.2,49.3z"
	/>
<path fill="#2699FB" d="M42,18.1c0,0-8.2,3.5-9,19.3c-3.8,0-4.4,0-4.4,0S30.4,23.2,42,18.1z"/>
<circle fill="#2699FB" cx="22.6" cy="40.5" r="1.9"/>
<circle fill="#2699FB" cx="30.3" cy="40.5" r="1.9"/>
<g>
	<path fill="#2699FB" d="M21.7,25.3c1.5,0.1,2.4,0,3.6,0l1.6,3.9c1.8-2.4,3.4-4.5,5.1-6.5H19.2l1,14.5h5.7l-3-8.6L21.7,25.3z"/>
	<path fill="#2699FB" d="M28.6,37.3h4.5l0.7-10.7C31.3,30.6,29.4,34.3,28.6,37.3z"/>
</g>
</svg>
