<svg xmlns="http://www.w3.org/2000/svg" xmlns:xlink="http://www.w3.org/1999/xlink" width="371" height="278" viewBox="0 0 371 278">
  <defs>
    <clipPath id="clip-path">
      <rect id="Rectangle_2" data-name="Rectangle 2" width="371" height="278" fill="#fff"/>
    </clipPath>
  </defs>
  <g id="dashboard-cntr-img" opacity="0.8" clip-path="url(#clip-path)">
    <path id="Path_1482" data-name="Path 1482" d="M345.511,114.223H0V278H345.511Z" fill="#2699fb"/>
    <path id="Path_1483" data-name="Path 1483" d="M288.391,180.569H57.121V278h231.27Z" fill="#f2f4ff"/>
    <path id="Path_1484" data-name="Path 1484" d="M288.391,186.514H57.121v.928h231.27Z" fill="#3c495a"/>
    <path id="Path_1485" data-name="Path 1485" d="M61.29,185.468a1.662,1.662,0,1,0-1.663-1.662A1.662,1.662,0,0,0,61.29,185.468Z" fill="#3f3d56"/>
    <path id="Path_1486" data-name="Path 1486" d="M66.992,185.468a1.662,1.662,0,1,0-1.663-1.662A1.663,1.663,0,0,0,66.992,185.468Z" fill="#3f3d56"/>
    <path id="Path_1487" data-name="Path 1487" d="M72.694,185.468a1.662,1.662,0,1,0-1.663-1.662A1.663,1.663,0,0,0,72.694,185.468Z" fill="#3f3d56"/>
    <path id="Path_1488" data-name="Path 1488" d="M184.849,230.3l2.462,4.984,5.506.8-3.984,3.88.94,5.478-4.924-2.586-4.924,2.586.94-5.478-3.984-3.88,5.506-.8Z" fill="#2699fb"/>
    <path id="Path_1489" data-name="Path 1489" d="M207,230.3l2.462,4.984,5.506.8-3.984,3.88.94,5.478L207,242.852l-4.924,2.586.94-5.478-3.984-3.88,5.506-.8Z" fill="#2699fb"/>
    <path id="Path_1490" data-name="Path 1490" d="M229.153,230.3l2.462,4.984,5.506.8-3.984,3.88.94,5.478-4.924-2.586-4.924,2.586.94-5.478-3.983-3.88,5.5-.8Z" fill="#2699fb"/>
    <path id="Path_1491" data-name="Path 1491" d="M251.3,230.3l2.462,4.984,5.506.8-3.984,3.88.94,5.478-4.924-2.586-4.924,2.586.94-5.478-3.984-3.88,5.506-.8Z" fill="#2699fb"/>
    <path id="Path_1492" data-name="Path 1492" d="M273.457,230.3l2.462,4.984,5.506.8-3.984,3.88.94,5.478-4.924-2.586-4.924,2.586.94-5.478-3.983-3.88,5.505-.8Z" fill="#2699fb"/>
    <path id="Path_1493" data-name="Path 1493" d="M163,209.334H72.91V266.4H163Z" fill="#3c495a"/>
    <path id="Path_1494" data-name="Path 1494" d="M91.282,114.223,0,176.829V144.756l44.517-30.533Z" opacity="0.1"/>
    <path id="Path_1495" data-name="Path 1495" d="M195.1,114.223,0,248.033V215.955L148.333,114.223Z" opacity="0.1"/>
    <path id="Path_1496" data-name="Path 1496" d="M52.776,160.916l-6.253-6.7,6.7-6.248,6.253,6.7Zm-5.257-6.663,5.291,5.668,5.673-5.287-5.291-5.667Z" fill="#fff"/>
    <path id="Path_1497" data-name="Path 1497" d="M259.134,156.7h-9.168v-9.159h9.168Zm-8.463-.7h7.757v-7.75h-7.757Z" fill="#3f3d56"/>
    <path id="Path_1498" data-name="Path 1498" d="M315.934,234.868a4.676,4.676,0,1,0-4.68-4.676A4.678,4.678,0,0,0,315.934,234.868Z" fill="#fff"/>
    <path id="Path_1499" data-name="Path 1499" d="M315.934,243.7a13.529,13.529,0,1,1,9.557-3.961A13.533,13.533,0,0,1,315.934,243.7Zm0-25.978a12.489,12.489,0,1,0,8.821,3.656A12.487,12.487,0,0,0,315.934,217.723Z" fill="#2f2e41"/>
    <path id="Path_1500" data-name="Path 1500" d="M106.347,253.891c2.15,7.94,9.514,12.857,9.514,12.857s3.878-7.955,1.728-15.895-9.514-12.858-9.514-12.858S104.2,245.951,106.347,253.891Z" fill="#f2f4ff"/>
    <path id="Path_1501" data-name="Path 1501" d="M109.506,252.185c5.9,5.737,6.62,14.557,6.62,14.557s-8.844-.482-14.744-6.22-6.62-14.557-6.62-14.557S103.607,246.447,109.506,252.185Z" fill="#2699fb"/>
    <path id="Path_1502" data-name="Path 1502" d="M125.906,253.891c-2.15,7.94-9.514,12.857-9.514,12.857s-3.879-7.955-1.729-15.895,9.514-12.858,9.514-12.858S128.055,245.951,125.906,253.891Z" fill="#f2f4ff"/>
    <path id="Path_1503" data-name="Path 1503" d="M122.746,252.185c-5.9,5.737-6.62,14.557-6.62,14.557s8.845-.482,14.744-6.22,6.62-14.557,6.62-14.557S128.646,246.447,122.746,252.185Z" fill="#2699fb"/>
    <path id="Path_1504" data-name="Path 1504" d="M299.844,8.842H263.382V51.283h36.462Z" fill="#f2f4ff"/>
    <path id="Path_1505" data-name="Path 1505" d="M287.448,114.713l-.507-.494a25.857,25.857,0,0,0,5.19-9.072c1.723-5.179,2.564-13.358-3.21-22.912-5.907-9.775-6.173-17.715-5.356-22.655a20.283,20.283,0,0,1,3.254-8.513l.563.43a20,20,0,0,0-3.125,8.24c-.788,4.814-.513,12.561,5.27,22.132,5.922,9.8,5.045,18.2,3.266,23.531A26.066,26.066,0,0,1,287.448,114.713Z" fill="#3f3d56"/>
    <path id="Path_1506" data-name="Path 1506" d="M314.005,51.636H263.028V.707h50.977Zm-50.269-.707H313.3V1.415H263.736Z" fill="#3f3d56"/>
    <path id="Path_1507" data-name="Path 1507" d="M304.8,15.562H273.648v.707H304.8Z" fill="#3f3d56"/>
    <path id="Path_1508" data-name="Path 1508" d="M304.8,23.342H273.648v.707H304.8Z" fill="#3f3d56"/>
    <path id="Path_1509" data-name="Path 1509" d="M304.8,31.123H273.648v.707H304.8Z" fill="#3f3d56"/>
    <path id="Path_1510" data-name="Path 1510" d="M356.84,39.611H320.377V82.052H356.84Z" fill="#f2f4ff"/>
    <path id="Path_1511" data-name="Path 1511" d="M344.443,145.482l-.507-.494a25.857,25.857,0,0,0,5.191-9.072c1.722-5.178,2.563-13.357-3.211-22.912-5.907-9.775-6.173-17.715-5.356-22.654a20.281,20.281,0,0,1,3.254-8.513l.563.429a20,20,0,0,0-3.125,8.24c-.788,4.814-.513,12.561,5.27,22.132,5.922,9.8,5.045,18.2,3.266,23.531A26.044,26.044,0,0,1,344.443,145.482Z" fill="#3f3d56"/>
    <path id="Path_1512" data-name="Path 1512" d="M371,82.406H320.023V31.477H371ZM320.731,81.7h49.561V32.184H320.731Z" fill="#3f3d56"/>
    <path id="Path_1513" data-name="Path 1513" d="M361.8,46.331H330.643v.707H361.8Z" fill="#3f3d56"/>
    <path id="Path_1514" data-name="Path 1514" d="M361.8,54.112H330.643v.707H361.8Z" fill="#3f3d56"/>
    <path id="Path_1515" data-name="Path 1515" d="M361.8,61.893H330.643V62.6H361.8Z" fill="#3f3d56"/>
    <path id="Path_1516" data-name="Path 1516" d="M85.67,8.135H49.207V50.575H85.67Z" fill="#f2f4ff"/>
    <path id="Path_1517" data-name="Path 1517" d="M73.273,114.006l-.507-.494a25.856,25.856,0,0,0,5.19-9.072c1.723-5.179,2.564-13.358-3.21-22.912-5.908-9.775-6.174-17.715-5.356-22.655a20.281,20.281,0,0,1,3.254-8.513l.563.429a20.007,20.007,0,0,0-3.125,8.24c-.788,4.814-.513,12.561,5.271,22.132,5.922,9.8,5.044,18.2,3.266,23.531A26.053,26.053,0,0,1,73.273,114.006Z" fill="#3f3d56"/>
    <path id="Path_1518" data-name="Path 1518" d="M99.83,50.929H48.853V0H99.83Zm-50.269-.707H99.122V.707H49.561Z" fill="#3f3d56"/>
    <path id="Path_1519" data-name="Path 1519" d="M90.626,14.854H59.473v.707H90.626Z" fill="#3f3d56"/>
    <path id="Path_1520" data-name="Path 1520" d="M90.626,22.635H59.473v.707H90.626Z" fill="#3f3d56"/>
    <path id="Path_1521" data-name="Path 1521" d="M90.626,30.416H59.473v.707H90.626Z" fill="#3f3d56"/>
    <path id="Path_1522" data-name="Path 1522" d="M166.193,129.5l2.462,4.985,5.505.8-3.984,3.88.941,5.478-4.924-2.587-4.925,2.587.941-5.478-3.984-3.88,5.506-.8Z" fill="#fff"/>
    <path id="Path_1523" data-name="Path 1523" d="M175.093,17.122h0c8.508,0,15.4,7.647,15.4,17.079V46.185h-3.689l-2.136-4.44.534,4.44H161.493l-1.942-4.036.486,4.036h-2.67v-9.41C157.367,25.921,165.3,17.122,175.093,17.122Z" fill="#2f2e41"/>
    <path id="Path_1524" data-name="Path 1524" d="M192.744,95.42l9.458,4.016,32.866,26.694a9.659,9.659,0,0,1,2.128,5.2c.237,3.071,10.168,19.135,6.621,21.261s-16.315,8.5-17.024,4.252S222.3,134.4,222.3,134.4L190.615,106.05Z" fill="#2f2e41"/>
    <path id="Path_1525" data-name="Path 1525" d="M229.867,153.295l4.019,11.812s-4.256,4.488-2.128,8.268v12.992h3.311l.945-6.85s3.771,6.764,5.675,6.85c3.992.182,11.9,1.6,12.135-.526s-5.987-4.2-5.987-4.2l-6.621-18.19-2.837-11.1Z" fill="#2f2e41"/>
    <path id="Path_1526" data-name="Path 1526" d="M168.153,92.349s-2.128,20.788,4.019,24.567,33.34,15.828,33.34,15.828-11.586,10.866-9.221,13.465,13,9.685,14.423,8.268,17.261-18.426,15.369-23.859-28.137-23.151-28.137-23.151l-3.074-11.1-.946-8.977-9.931-6.378Z" fill="#2f2e41"/>
    <path id="Path_1527" data-name="Path 1527" d="M178.986,43.949a9.848,9.848,0,1,0-9.858-9.848A9.852,9.852,0,0,0,178.986,43.949Z" fill="#ffb9b9"/>
    <path id="Path_1528" data-name="Path 1528" d="M171.345,38.134s.473,8.977-6.857,11.811,18.206,21.261,18.206,21.261V50.654s-3.31-3.543,0-8.977Z" fill="#ffb9b9"/>
    <path id="Path_1529" data-name="Path 1529" d="M155.621,80.3l1.891,9.213,5.675,31.654s-4.729,13.465,1.655,13.229,3.311-14.646,3.311-14.646L164.842,93.53V83.372Z" fill="#ffb9b9"/>
    <path id="Path_1530" data-name="Path 1530" d="M196.29,75.813l2.128,8.268,9.7,23.386s6.621,11.1,1.182,10.867-5.438-10.867-5.438-10.867l-11.113-18.9V77.939Z" fill="#ffb9b9"/>
    <path id="Path_1531" data-name="Path 1531" d="M197.946,144.791l-7.8,7.323s-5.439-1.181-7.567,5.2-3.546,10.394-3.546,10.394l2.837,1.654,3.547-4.961s2.128,8.977,4.256,9.685,12.768,5.434,11.822,0l-5.2-7.559s-.71-8.5,1.418-9.213,7.8-7.795,7.8-7.795Z" fill="#2f2e41"/>
    <path id="Path_1532" data-name="Path 1532" d="M167.778,99.672S190,91.64,191.423,92.349a10.673,10.673,0,0,0,3.331.864l-.021-3.226s-7.33-2.6-11.349-.945-16.315,8.977-16.315,8.977Z" fill="#3f3d56"/>
    <path id="Path_1533" data-name="Path 1533" d="M181.276,66.482S174.892,59.159,173,54.67a11.6,11.6,0,0,0-6.137-6.029s-14.2,3.194-13.961,8.864,8.985,14.41,8.985,14.41-1.182,31.418,5.2,30.946a13.671,13.671,0,0,0,2.837-5.67c.709-3.307,22.7-6.851,22.7-6.851s1.892,3.307,2.129,1.89-1.892-36.143-1.892-36.143l-11.276-7.446Z" fill="#f49d3f"/>
    <path id="Path_1534" data-name="Path 1534" d="M154.723,55.223l-.158.089a3.258,3.258,0,0,0-1.666,2.843l0,17.531a3.283,3.283,0,0,1-1.169,2.5c-.911.774-1.756,1.889-.013,2.47,2.838.945,13.951,5.67,14.187,4.016s.71-3.543,0-3.543c-.555,0-3.864-16.939-6.522-24.182a3.265,3.265,0,0,0-4.661-1.723Z" fill="#f49d3f"/>
    <path id="Path_1535" data-name="Path 1535" d="M189.67,55.261l3.31.945,3.783,16.3s4.493.945,3.074,2.6-7.33,5.906-7.33,5.906Z" fill="#f49d3f"/>
    <path id="Path_1536" data-name="Path 1536" d="M170.714,21.826a8.08,8.08,0,0,1,6.374-3.25h.3c5.831,0,10.558,5.271,10.558,11.774h-1.954l-.316-2.4-.462,2.4H173.629l-.971-2.03.243,2.03h-2.28q-1.6,7.917,4.585,15.834h-3.883l-1.942-4.06.486,4.06h-7.4l-1.456-9.338C161.008,29.853,165.075,23.923,170.714,21.826Z" fill="#2f2e41"/>
  </g>
</svg>
