<svg xmlns="http://www.w3.org/2000/svg" width="72" height="72" viewBox="0 0 72 72">
    <defs>
        <style>.a{fill:#61b6fd;}.b{fill:rgba(0,0,0,0.87);}</style>
    </defs>
    <g transform="translate(-1 -1)">
        <path class="a"
              d="M45.387,21a24.14,24.14,0,0,0-14.022,4.465l-8.684-4.342a1.163,1.163,0,0,0-1.558,1.558l4.342,8.684A24.143,24.143,0,0,0,21,45.387,24.387,24.387,0,1,0,45.387,21ZM32.613,32.613H58.161a1.161,1.161,0,1,1,0,2.323H32.613a1.161,1.161,0,1,1,0-2.323ZM58.161,58.161H32.613a1.161,1.161,0,1,1,0-2.323H58.161a1.161,1.161,0,1,1,0,2.323Zm4.645-11.613H27.968a1.161,1.161,0,0,1,0-2.323H62.806a1.161,1.161,0,0,1,0,2.323Z"
              transform="translate(3.226 3.226)"/>
        <g transform="translate(1 1)">
            <path class="b" d="M50.645,19H47.161a1.161,1.161,0,1,0,0,2.323h3.484a1.161,1.161,0,0,0,0-2.323Z" transform="translate(6.258 1.903)"/>
            <path class="b"
                  d="M47.452,1H42.806a1.161,1.161,0,0,0-1.161,1.161v.452a78.069,78.069,0,0,1-36,8.839H4.484A3.488,3.488,0,0,0,1,14.935V31.194a3.488,3.488,0,0,0,3.484,3.484h.265L6.814,52.233a1.161,1.161,0,0,0,1.153,1.025h9.29a1.162,1.162,0,0,0,1.153-1.3L16.469,35.449a78.069,78.069,0,0,1,25.176,8.067v.452a1.161,1.161,0,0,0,1.161,1.161h4.645a2.325,2.325,0,0,0,2.323-2.323V3.323A2.325,2.325,0,0,0,47.452,1ZM6.806,32.373c-2.319-.034-1.239-.011-2.323-.018a1.162,1.162,0,0,1-1.161-1.161V14.935a1.162,1.162,0,0,1,1.161-1.161c.581,0,1.935-.012,2.323-.018ZM9.129,13.688c1.163-.051,2.325-.124,3.484-.225v19.2c-1.159-.1-2.321-.174-3.484-.225ZM9,50.935,7.09,34.7q3.513.066,7,.451l1.857,15.785ZM41.645,40.9a80.472,80.472,0,0,0-26.71-8V13.223a80.472,80.472,0,0,0,26.71-8Zm2.323,1.9V3.323h3.484l0,39.484Z"
                  transform="translate(-1 -1)"/>
            <path class="b" d="M47.35,14.929l3.625-2.464a1.162,1.162,0,0,0-1.306-1.921l-3.624,2.464a1.162,1.162,0,1,0,1.306,1.921Z" transform="translate(6.183 0.507)"/>
            <path class="b" d="M47.35,25.736a1.162,1.162,0,0,0-1.306,1.921l3.625,2.464A1.162,1.162,0,1,0,50.975,28.2Z" transform="translate(6.183 2.957)"/>
        </g>
    </g>
</svg>
