<svg xmlns="http://www.w3.org/2000/svg" xmlns:xlink="http://www.w3.org/1999/xlink" width="72" height="72" viewBox="0 0 72 72">
    <linearGradient id="b" x1="0.649" y1="-4.031" x2="0.649" y2="-2.617" gradientUnits="objectBoundingBox">
        <stop offset="0" stop-color="#efc119"/>
        <stop offset="0.331" stop-color="#92c84e"/>
        <stop offset="0.486" stop-color="#71bf5b"/>
        <stop offset="0.751" stop-color="#15b158"/>
        <stop offset="0.903" stop-color="#23ac69"/>
        <stop offset="1" stop-color="#23ac69"/>
    </linearGradient>
    <g class="b" transform="translate(-1366 -753)">
        <g transform="translate(1345.183 511.726)">
            <path fill="url(#b)"
                  d="M22.287,275.254l32.269-21.372a4.542,4.542,0,0,1,4.535,0L91.36,275.254a2.58,2.58,0,0,1,1.2,3.445,2.469,2.469,0,0,1-1.2,1.2l-4.324,2.847a35.771,35.771,0,0,0-60.461,0l-4.359-2.847a2.614,2.614,0,0,1-1.125-3.48A2.919,2.919,0,0,1,22.287,275.254Zm34.484-.246a27.009,27.009,0,0,0-22.778,12.619l7.417,4.921a17.874,17.874,0,0,1,30.617,0l7.417-4.921A26.5,26.5,0,0,0,56.771,275.008Zm0,17.857A9.148,9.148,0,0,0,48.9,297.5l4.992,3.269a4.356,4.356,0,0,0,2.882,1.055,4.474,4.474,0,0,0,2.882-1.055l4.992-3.269A8.963,8.963,0,0,0,56.771,292.865Z"/>
        </g>
    </g>
</svg>
