<svg xmlns="http://www.w3.org/2000/svg" width="68.519" height="72" viewBox="0 0 68.519 72"><defs><style>.a{fill:#61b6fd;}.b{fill:rgba(0,0,0,0.87);}</style></defs><g transform="translate(-2.498 -1)"><path class="a" d="M56.984,46.871A11.613,11.613,0,1,0,68.6,58.484,11.613,11.613,0,0,0,56.984,46.871Zm4.308,14.272a1.166,1.166,0,0,1-1.649,1.649l-2.659-2.671-2.659,2.671a1.166,1.166,0,1,1-1.649-1.649l2.671-2.659-2.671-2.659a1.166,1.166,0,1,1,1.649-1.649l2.659,2.671,2.659-2.671a1.166,1.166,0,0,1,1.649,1.649l-2.671,2.659ZM46.521,41.215a4.471,4.471,0,0,1-4.459,4.494H36.092V36.768h5.969a4.459,4.459,0,0,1,4.459,4.448Zm-7.688-6.782H36.092v-7.3H41a3.646,3.646,0,1,1,0,7.293ZM61.629,19H20.984A3.484,3.484,0,0,0,17.5,22.484V51.516A3.484,3.484,0,0,0,20.984,55H43.5a13.936,13.936,0,0,1,21.612-7.815v-24.7A3.484,3.484,0,0,0,61.629,19ZM42.061,48.032h-7.13a1.161,1.161,0,0,1-1.161-1.161v-20.9a1.161,1.161,0,0,1,1.161-1.161H41a5.981,5.981,0,0,1,5.969,5.969,5.911,5.911,0,0,1-1.928,4.355,6.782,6.782,0,0,1-2.985,12.9Z" transform="translate(2.42 2.903)"/><path class="b" d="M57.081,1H9.468A3.484,3.484,0,0,0,5.984,4.484V39.172a11.613,11.613,0,1,0,18.174,2.474H57.081a3.484,3.484,0,0,0,3.484-3.484V4.484A3.484,3.484,0,0,0,57.081,1ZM14.113,56.742a9.29,9.29,0,1,1,9.29-9.29A9.29,9.29,0,0,1,14.113,56.742ZM58.242,38.161a1.161,1.161,0,0,1-1.161,1.161H22.393A11.613,11.613,0,0,0,8.307,37.406V4.484A1.161,1.161,0,0,1,9.468,3.323H57.081a1.161,1.161,0,0,1,1.161,1.161ZM34.819,8.978a1.657,1.657,0,0,0-3.066.035l-7.9,20.729a1.161,1.161,0,1,0,2.172.825l1.684-4.413H38.791l1.661,4.413a1.161,1.161,0,1,0,2.172-.825Zm-6.19,14.853,4.645-12.3,4.645,12.3ZM19.583,44.3a1.161,1.161,0,0,1,0,1.649L13.777,51.76a1.161,1.161,0,0,1-1.649,0L8.644,48.276a1.166,1.166,0,0,1,1.649-1.649L12.952,49.3,17.934,44.3a1.161,1.161,0,0,1,1.649,0Z" transform="translate(0)"/></g></svg>