<svg xmlns="http://www.w3.org/2000/svg" xmlns:xlink="http://www.w3.org/1999/xlink" width="72" height="72" viewBox="0 0 72 72">
    <g class="b" transform="translate(-1151 -366)">
        <g transform="translate(1153 366)">
            <path fill="#684c46"
                  d="M67.724,51.451c-.056.183-5.356,20.556-26.181,20.549-18-.005-26.534-15.653-26.534-15.653a9.321,9.321,0,0,1-3.745-.564A10.314,10.314,0,0,1,5.27,42.732l-2.9-2.218C-8.877,31.948,22.976-7.249,34.24,1.621c.057.045,2.689,2.163,2.689,2.163C40.973,1.328,44.978,0,48.234,0a7.28,7.28,0,0,1,5.548,2.079c2.924,3.166,1.873,9.21-2.119,15.33a10.049,10.049,0,0,1,2.078,3.023,7.193,7.193,0,0,1,2.5,4.524c.455,2.286.55,5.543.835,6.942,1.077.486.618.261,1.766.835a15.662,15.662,0,0,1,4.265,2.876c2.863.717,3.956,3.761,2.281,5.838-.045.056-.247.3-.457.534a10.766,10.766,0,0,1,1,2.833,3.782,3.782,0,0,1,2.627,2.07C69.411,48.956,67.724,51.451,67.724,51.451ZM59.469,66.836v.853H59.8v-.853h.334v-.269h-.99v.269Zm.76-.269v1.122h.3v-.81l.243.81h.254l.243-.812v.812h.3V66.567H61.1l-.2.646-.2-.646Z"
                  transform="translate(0 0)"/>
            <path fill="#f5dcba"
                  d="M37.5,100.139h0a17.8,17.8,0,0,0,.682-2.1,13.268,13.268,0,0,1,.681,4.944h0a10.192,10.192,0,0,0,.892-1.651,7.565,7.565,0,0,1-7.171,9.028,7.679,7.679,0,0,1,0-15.339,6.95,6.95,0,0,1,2.932.646S37.068,96.45,37.5,100.139Zm39.642,16.621a18.553,18.553,0,0,0,6.728-9.966c1.39-1.667,1.012-3.309-.824-3.309a3.428,3.428,0,0,0-1.025.154,9.6,9.6,0,0,0-1.118-4.326,22.634,22.634,0,0,1-6.433,4.407,29.684,29.684,0,0,1-11.812,2.8h0c-1.371.06-2.22-.164-2.7,1.435a3.3,3.3,0,0,0,.028,1.647,3.233,3.233,0,0,0,2.724,2.217,11.562,11.562,0,0,0,2.078.257c9.934.279,17.91-7.469,18.006-7.533a1.512,1.512,0,0,0,.169-.165s-.088.205-.1.229c-1.435,3.226-9.742,9.078-18.011,8.91l-.027.009c-1.918-.007-4.248-.5-5.459-2-1.916-2.376-.922-6.328,2.132-6.421l1.019-.025c7.563-.232,14.349-3.011,19.207-8.813.668-.83-.078-1.97-1.526-2a.048.048,0,0,1-.034-.015,13.9,13.9,0,0,0-4.569-3.17c-2.815-1.434-2.55-.2-3.2-7.15-.177-1.875-.532-4.432-2.18-5.413a2.679,2.679,0,0,0-1.393-.367,2.581,2.581,0,0,0-.815.12,4.289,4.289,0,0,0-2.058,1.3c-3.037,2.8-5.464,2.04-9.088,2.008a6.958,6.958,0,0,0-6.982,5.989v0a11.775,11.775,0,0,0,.2,4.718,7.57,7.57,0,0,1-1.364-1.158,9.539,9.539,0,0,0,3.571,5.507,4.957,4.957,0,0,1-1.167.064,12.722,12.722,0,0,0,3.237,1.849,12.445,12.445,0,0,0-3.393,4.889,13.217,13.217,0,0,0-.566,5.54l.83-1.237a10.853,10.853,0,0,0,.507,5.429c.348-.795,1.109-2.213,1.109-2.213a11.1,11.1,0,0,0,1.305,5.387c.037-.56.25-1.984.25-1.984a11.474,11.474,0,0,0,2.708,4.3C60.648,121.8,70.016,122.364,77.146,116.761Z"
                  transform="translate(-18.247 -56.355)"/>
            <path fill="#0788bf"
                  d="M12.966,48.1a21.05,21.05,0,0,1-3.127-2.654c-2.282-3.852,1.689-11.762,4.514-16.259C21.336,18.073,32.959,9.3,38.238,10.555l5.421,2.8a43.831,43.831,0,0,0-5.36,3.77l-1.153.967s-3.369,2.268-5.044,3.7c-6.716,5.731-13.329,14.6-15.782,23.167A9.3,9.3,0,0,0,12.966,48.1Z"
                  transform="translate(-6.605 -7.526)"/>
            <path fill="#46b8e3" d="M51.652,10.555h0C46.373,9.3,34.75,18.073,27.767,29.186l-.006.01.028,0,5.564,4.38a51.83,51.83,0,0,1,14-14.845L46.476,12.8l1.653-.791,3.317,1.074-.254-1.108.461-1.419Z"
                  transform="translate(-20.019 -7.526)"/>
            <path fill="#ffd14f" d="M105.468,12.223l-5.36,3.77-.375.293L94.979,12.4l-.109-.735,1.653-.791,3.317,1.074.055-2.059.152-.467,1.452-.556Z" transform="translate(-68.414 -6.396)"/>
            <g transform="translate(9.714 2.13)">
                <path fill="#122030"
                      d="M72.752,7.638c-3.545,0-7.525,1.864-10.578,3.7-.428.252-.853.516-1.269.784l-1.6-1.339.58,2.016q-.329.226-.643.45l-3.3-1.008,2.184,1.828c-.5.378-.944.732-1.314,1.038l-5.238-4.325.277,1.938,3.807,3.354s-3.369,2.268-5.044,3.7C43.9,25.5,37.287,34.374,34.835,42.938l.139-.078.057-.03c.068-.037.136-.072.2-.106l.131-.065c.07-.034.141-.065.211-.1l.124-.055c.076-.032.152-.061.228-.09l.105-.04c.111-.04.221-.076.331-.109a9.372,9.372,0,0,1,6.591.31,40.92,40.92,0,0,1,5.437-10.073c2.036-2.666,3.992-5.046,6.341-6.355,4.447-4.178,16.433-8.607,20.273-4.767a25.509,25.509,0,0,0,2.345-4.654C78.956,12.491,78.985,7.638,72.752,7.638Z"
                      transform="translate(-34.835 -7.638)"/>
                <path fill="#122030" d="M113.026,13.711l-.784-2.847-.461,1.419.276,1.115Z" transform="translate(-90.324 -9.964)"/>
            </g>
            <path fill="#fff"
                  d="M108.429,52.939a9.6,9.6,0,0,0-1.118-4.326,22.637,22.637,0,0,1-6.433,4.407,29.683,29.683,0,0,1-11.813,2.8h0c-1.371.06-2.22-.164-2.7,1.435a2.606,2.606,0,0,0-.075.45v.016h0c0,.051-.008.1-.01.153,0,.146,0,.275,0,.387V58.3c0,.07.01.138.018.2v.02a1.468,1.468,0,0,0,.089.385v0l.006.021a3.238,3.238,0,0,0,2.718,2.2,11.564,11.564,0,0,0,2.078.257c8.105.227,14.907-4.889,17.189-6.815A13.947,13.947,0,0,0,108.429,52.939ZM85.145,9.644a19.488,19.488,0,0,1,6-1.8,24.859,24.859,0,0,0-7.24,3.216,89.75,89.75,0,0,0-10.837,8.6C70.846,21.868,61.91,32.583,61.917,32.574a42.792,42.792,0,0,1,5.294-7.859c1.462-1.839,3.023-3.627,4.62-5.278q.806-.833,1.621-1.615h0A44.158,44.158,0,0,1,85.145,9.644Z"
                  transform="translate(-44.651 -5.656)"/>
            <path fill="#eabe8d"
                  d="M89.319,118.919a19.759,19.759,0,0,1-3.012,1.952,9.637,9.637,0,0,1-3.851-2.839,23.826,23.826,0,0,0,4.781-1.874,26.145,26.145,0,0,0,8.811-7.2A18.557,18.557,0,0,1,89.319,118.919ZM82.825,93.158a2.4,2.4,0,0,0-3.488,1.191c.668.034,1.377.539,1.333,1.186a2.559,2.559,0,0,1,1.794-.7A1.3,1.3,0,0,1,82.825,93.158ZM70.714,109.736a3.127,3.127,0,0,1,2.964-2.473l1.019-.025c7.563-.232,14.349-3.011,19.207-8.813.668-.83-.078-1.97-1.526-2h-.021c-.245.259-.289.732-.694,1.439-1.478,2.568-3.522,3.742-6.248,5.1-8.357,4.161-12.69,2.224-14.43,4.772a2.04,2.04,0,0,0-.272,2ZM85.835,92.287c-.8-.574-.828-1.574-1.263-6.2a9.585,9.585,0,0,0-1.293-4.594,1.23,1.23,0,0,0-.828-.351c-.571-.025-1.216.566-1.581.97a8.842,8.842,0,0,1-3.783,3.3,11.4,11.4,0,0,1-5.213,1.039c-1.282-.04-2.4-.252-3.5-.266a6.025,6.025,0,0,0-5.094,2.255,6.438,6.438,0,0,0-1.351,3.7q.007.253.022.479c.015.223.035.436.06.636a5.9,5.9,0,0,0,.218,1.08.051.051,0,0,1,0,.016q.016.052.033.1a7.578,7.578,0,0,1-1.364-1.158,9.342,9.342,0,0,0,3.344,5.331l.125.1.009.009c.06.046.093.07.093.07a4.938,4.938,0,0,1-1.167.064,12.708,12.708,0,0,0,3.237,1.849,11.242,11.242,0,0,1,6.109-2.532c1.124-.7,2.334-1.383,3.632-2.044-.393-2.448,1.778-4.913,4.51-5.15a3.886,3.886,0,0,1,3.786,1.762q.588-.188,1.328-.407A.425.425,0,0,1,85.835,92.287Zm.986,16.488a.423.423,0,0,0-.077.013c-.824.191-9.316,3.48-14.685,1.794a3.229,3.229,0,0,0,.1,1.179v0a15.706,15.706,0,0,0,3.033.267C82.262,112.029,87.353,108.818,86.821,108.775Zm-39.522-.66.006,0a2.049,2.049,0,0,0,.508-1.726c-.159-.889-1.166-1.069-1.832-1.759l-.032-.033-.033-.037,0,0a1.489,1.489,0,0,1-.379-1.086,1,1,0,0,1,1.281-1,1.685,1.685,0,0,1,.885.656v0a2.142,2.142,0,0,0-.349-.893,3.092,3.092,0,0,0-3.245-1.073h0a3.184,3.184,0,0,0-.425.11,1.1,1.1,0,0,0-.124.041c-.092.043-.178.073-.26.117h0a3.627,3.627,0,0,0-.576.353C40.91,104.118,43.979,108.36,47.3,108.115Z"
                  transform="translate(-30.42 -58.513)"/>
            <path fill="#9c7356"
                  d="M68.6,66.675c.153.223.194.392.132.463-.123.144-.564-.05-1.214-.3a6.2,6.2,0,0,0-5.06.106,3.556,3.556,0,0,1-1.124.343c-.3-.045-.009-.6.656-1.143a4.949,4.949,0,0,1,4.747-.814A4.091,4.091,0,0,1,68.6,66.675Zm-.33,1.7a2.943,2.943,0,0,0-2.168-.434,4.688,4.688,0,0,0-.518.129,1.215,1.215,0,0,0-.176.061,3,3,0,0,0-.975.606c-.347.336-.446.648-.346.724s.339-.038.711-.188a5.958,5.958,0,0,1,2.966-.473c.4.027.676.052.739-.059C68.543,68.669,68.462,68.526,68.266,68.377ZM41.449,74.764h0a2.438,2.438,0,0,1,.478.5c.383.542.261.859.418,1.013a.2.2,0,0,0,.219.04c.217-.09.324-.435.344-.676h0v0h0a2.415,2.415,0,0,0-.658-1.692h0a3.559,3.559,0,0,0-.964-.774,4.021,4.021,0,0,0-1.339-.459,5.039,5.039,0,0,0-1.94.108h0c-.122.035-.272.067-.4.118a4.41,4.41,0,0,0-2.733,2.877h0a5.019,5.019,0,0,0-.212,1.445,5.076,5.076,0,0,0,.115,1.072h0a3.4,3.4,0,0,0,.739,1.552h0c.473.511.991.414.77-.062a4.122,4.122,0,0,1-.377-1.645,4.809,4.809,0,0,1,.3-1.907,3.587,3.587,0,0,1,.538-.933,3.42,3.42,0,0,1,1.13-.881h0c.082-.044.167-.073.26-.117a1.16,1.16,0,0,1,.124-.041,3.191,3.191,0,0,1,.425-.11h0A3.24,3.24,0,0,1,41.449,74.764Zm-.239,2.164a.672.672,0,0,1-.269-.388.519.519,0,0,1,.221-.64c.193-.132.349-.2.349-.279.009-.157-.637-.319-1.089.125a1.4,1.4,0,0,0,.1,1.882c.666.719,1.7.888,1.864,1.793a1.718,1.718,0,0,1,.026.411,2.185,2.185,0,0,1-.054.409,2,2,0,0,1-2.4,1.494c-.252-.037-.415-.068-.463,0-.105.147.48.817,1.552.792a2.676,2.676,0,0,0,2.423-1.988,3,3,0,0,0,.11-.65,2.7,2.7,0,0,0-.039-.689C43.276,77.686,41.77,77.375,41.21,76.928ZM77.761,66.109c-.414-.065-.822.344-.911.912a.935.935,0,0,0,.59,1.146c.414.065.822-.344.911-.912A.935.935,0,0,0,77.761,66.109Zm-4.554,1.658a1.236,1.236,0,1,0,1.444-.187A1.056,1.056,0,0,0,73.207,67.767ZM56.523,50.952c7.842-5.083,15.676-5.668,18.36-3.6h0c-.005-.014-.048-.133-.065-.165h0a5.941,5.941,0,0,0-3.688-2.863,5.537,5.537,0,0,1,.754,1.011,11.279,11.279,0,0,0-3.972-1.688s.177.127.207.155a3.825,3.825,0,0,1,.85,1.083,8.891,8.891,0,0,0-4.741-.592l-.192.044s.2.05.244.063a3.28,3.28,0,0,1,1.554.885,11.43,11.43,0,0,0-6.855.892,3.562,3.562,0,0,1,.357,0,5.424,5.424,0,0,1,2.144.389,12.771,12.771,0,0,0-5.18,2.12,10.612,10.612,0,0,1,1.987-.1,27.589,27.589,0,0,0-10.017,9.9h0A32.421,32.421,0,0,1,56.523,50.952Z"
                  transform="translate(-24.996 -31.472)"/>
            <path fill="#684c46" d="M179.4,105.469c-.011-.54.075-1.433.584-1.6h0c.87-.3,2.021,1.926,2.074,3.9a4.358,4.358,0,0,0-2.325-.418A6.693,6.693,0,0,1,179.4,105.469Z" transform="translate(-129.374 -74.884)"/>
        </g>
    </g>
</svg>
