<svg xmlns="http://www.w3.org/2000/svg" xmlns:xlink="http://www.w3.org/1999/xlink" width="72" height="72" viewBox="0 0 72 72">
    <g class="b" transform="translate(-736 -366)">
        <g transform="translate(739.962 365.221)">
            <path fill="#95bf46"
                  d="M55.491,14.8a.7.7,0,0,0-.629-.584c-.261-.022-5.8-.432-5.8-.432S45.223,9.966,44.8,9.543a1.749,1.749,0,0,0-1.566-.2l-2.151.664c-1.284-3.694-3.55-7.09-7.536-7.09-.11,0-.223,0-.337.011A4.844,4.844,0,0,0,29.461.779c-9.286,0-13.722,11.608-15.113,17.507C10.74,19.4,8.176,20.2,7.849,20.3c-2.014.632-2.078.7-2.342,2.593C5.308,24.331.038,65.085.038,65.085L41.1,72.779l22.25-4.813S55.54,15.16,55.491,14.8ZM38.815,10.71,35.34,11.786c0-.245,0-.486,0-.749a17.043,17.043,0,0,0-.83-5.61C36.566,5.684,37.934,8.021,38.815,10.71Zm-6.85-4.829a17.224,17.224,0,0,1,.942,6.255c0,.142,0,.271,0,.4l-7.176,2.222c1.382-5.333,3.972-7.908,6.236-8.88ZM29.206,3.27a2.1,2.1,0,0,1,1.191.4c-2.976,1.4-6.166,4.927-7.513,11.97L17.212,17.4C18.789,12.027,22.536,3.27,29.206,3.27Z"/>
            <path fill="#5e8e3e" d="M179.483,39.984c-.261-.022-5.8-.432-5.8-.432s-3.843-3.816-4.265-4.238a1.054,1.054,0,0,0-.593-.272l-3.1,63.507,22.248-4.813s-7.811-52.806-7.86-53.168a.7.7,0,0,0-.629-.584"
                  transform="translate(-124.621 -25.771)"/>
            <path fill="#fff"
                  d="M63.02,101.322l-2.743,8.161a12.62,12.62,0,0,0-5.35-1.283c-4.32,0-4.537,2.711-4.537,3.394,0,3.727,9.716,5.155,9.716,13.886,0,6.869-4.356,11.292-10.231,11.292a14.233,14.233,0,0,1-10.654-4.387l1.887-6.236s3.705,3.181,6.832,3.181a2.756,2.756,0,0,0,2.874-2.784c0-4.862-7.971-5.079-7.971-13.068,0-6.724,4.826-13.231,14.568-13.231a11.985,11.985,0,0,1,5.608,1.075"
                  transform="translate(-29.471 -74.815)"/>
        </g>
    </g>
</svg>
