<svg xmlns="http://www.w3.org/2000/svg" xmlns:xlink="http://www.w3.org/1999/xlink" width="461.428" height="436.342" viewBox="0 0 461.428 436.342">
    <defs>
        <style>
            .a,.g,.q{fill:#1996fc;}.a{opacity:0.15;}.a,.o,.p{mix-blend-mode:multiply;isolation:isolate;}.b{fill:#eea27b;}.c{fill:#643711;}.d{fill:#9b5212;}.e{fill:#243554;}.f{fill:#d87e51;}.h{fill:#61b6fd;}.i{fill:#fff;}.j{fill:#ffdc7e;}.k{fill:#1d262e;}.l{fill:#efb192;}.m{fill:#df7d5c;}.n{fill:#272422;}.o{fill:#a85631;}.p{fill:#cb8f70;}.q{opacity:0.5;}.r{fill:#163045;}.s{fill:#fecf47;}.t{fill:#feac29;}.u{fill:#f4b812;}.v{fill:#feb92b;}.aa,.w{fill:#bbdffe;}.x{fill:#2699fb;}.y{fill:rgba(0,0,0,0.74);font-size:14px;font-family:Roboto-Medium,
            Roboto;font-weight:500;letter-spacing:0.008em;}.z{fill:rgba(25,150,252,0.04);}.ab,.ac{stroke:none;}.ac{fill:#61b6fd;}.ad{filter:url(#g);}.ae{filter:url(#e);}.af{filter:url(#c);}.ag{filter:url(#a);}
        </style>
        <filter id="a" x="0" y="68.303" width="179.799" height="209.27" filterUnits="userSpaceOnUse">
            <feOffset dy="8" input="SourceAlpha"/>
            <feGaussianBlur stdDeviation="12" result="b"/>
            <feFlood flood-color="#3680fb" flood-opacity="0.161"/>
            <feComposite operator="in" in2="b"/>
            <feComposite in="SourceGraphic"/>
        </filter>
        <filter id="c" x="57.001" y="0" width="204.786" height="189.652" filterUnits="userSpaceOnUse">
            <feOffset dy="8" input="SourceAlpha"/>
            <feGaussianBlur stdDeviation="12" result="d"/>
            <feFlood flood-color="#3680fb" flood-opacity="0.161"/>
            <feComposite operator="in" in2="d"/>
            <feComposite in="SourceGraphic"/>
        </filter>
        <filter id="e" x="199.637" y="0" width="204.791" height="189.652" filterUnits="userSpaceOnUse">
            <feOffset dy="8" input="SourceAlpha"/>
            <feGaussianBlur stdDeviation="12" result="f"/>
            <feFlood flood-color="#3680fb" flood-opacity="0.161"/>
            <feComposite operator="in" in2="f"/>
            <feComposite in="SourceGraphic"/>
        </filter>
        <filter id="g" x="281.63" y="68.303" width="179.799" height="209.27" filterUnits="userSpaceOnUse">
            <feOffset dy="8" input="SourceAlpha"/>
            <feGaussianBlur stdDeviation="12" result="h"/>
            <feFlood flood-color="#3680fb" flood-opacity="0.161"/>
            <feComposite operator="in" in2="h"/>
            <feComposite in="SourceGraphic"/>
        </filter>
    </defs>
    <g transform="translate(-190.006 -319.658)">
        <g transform="translate(5.826 -23.539)">
            <g transform="translate(353 508.539)">
                <ellipse class="a" cx="39.015" cy="7.745" rx="39.015" ry="7.745" transform="translate(21.659 255.51)"/>
                <g transform="translate(27.295 126.611)">
                    <path class="b"
                          d="M-196.84,638.894c-1.948-.7-5.636-3.688-8.211-5.984s-4.893-7.228-4.893-7.228c.767-7.246,4.237-40.679,4.6-56.018.6-25.518-2.213-63.618-2.213-63.618-5.484-.27-19.382,1.777-19.382,1.777V530.89c6.2,18.1,7.256,89.584,7.337,95.762-.912,2.715-1.907,10.029-1.176,10.99a7.3,7.3,0,0,0,3.233,1.863,15.543,15.543,0,0,0,3.169.781c1.459.11,2.366,1.392,3.271,2.157a13.428,13.428,0,0,0,9.394,2.784c4.8-.487,8-1.531,8-3.34S-194.892,639.591-196.84,638.894Z"
                          transform="translate(260.605 -506.021)"/>
                    <path class="b"
                          d="M-249.1,507.823s-13.9-2.047-19.382-1.777c0,0-2.818,38.1-2.213,63.618.364,15.339,3.833,48.773,4.6,56.018,0,0-2.319,4.932-4.893,7.228s-6.262,5.288-8.211,5.984-3.132,1.183-3.132,2.992,3.2,2.853,8,3.34a13.429,13.429,0,0,0,9.394-2.784c.9-.766,1.812-2.048,3.27-2.157a15.549,15.549,0,0,0,3.169-.781,7.3,7.3,0,0,0,3.233-1.863c.731-.961-.264-8.276-1.176-10.99.08-6.177,1.14-77.661,7.337-95.762Z"
                          transform="translate(282.767 -506.021)"/>
                    <g transform="translate(0 119.851)">
                        <path class="c"
                              d="M-282.88,729.707a4.028,4.028,0,0,0,.52,2.1,12.679,12.679,0,0,0,8.2,2.958c4.758.05,7.923-1.55,9.693-3.1a25.069,25.069,0,0,1,2.766-2.626c.448-.213.595.757.99.7.991-.149,5.03-1.545,5.675-2.189s.067-3.971.067-3.971-8.227,3.42-9.813,4.015-1.338,2.725-7.286,3.072A37.91,37.91,0,0,1-282.88,729.707Z"
                              transform="translate(282.987 -712.914)"/>
                        <path class="d"
                              d="M-268.071,707.019a11.3,11.3,0,0,1-3.281,5.758c-2.657,2.37-6.463,5.458-8.474,6.176s-3.231,1.22-3.231,3.088,3.3,2.944,8.258,3.447a13.858,13.858,0,0,0,9.695-2.873c.933-.79,1.869-2.113,3.375-2.226a16.037,16.037,0,0,0,3.271-.807,7.521,7.521,0,0,0,3.336-1.922c.875-1.151-.389-10.609-1.394-11.758-.482-.55-.086,1.335-3.491,1.943-2.016.36-3.406-.831-4.5-1.529A2.43,2.43,0,0,0-268.071,707.019Z"
                              transform="translate(283.058 -705.803)"/>
                    </g>
                    <g transform="translate(39.079 119.851)">
                        <path class="c"
                              d="M-189.768,729.707a4.03,4.03,0,0,1-.52,2.1,12.675,12.675,0,0,1-8.2,2.958c-4.758.05-7.923-1.55-9.694-3.1a25.063,25.063,0,0,0-2.766-2.626c-.448-.213-.595.757-.99.7-.992-.149-5.03-1.545-5.675-2.189s-.067-3.971-.067-3.971,8.227,3.42,9.813,4.015,1.338,2.725,7.285,3.072A37.912,37.912,0,0,0-189.768,729.707Z"
                              transform="translate(217.916 -712.914)"/>
                        <path class="d"
                              d="M-204.631,707.019a11.3,11.3,0,0,0,3.281,5.758c2.657,2.37,6.463,5.458,8.474,6.176s3.232,1.22,3.232,3.088-3.3,2.944-8.258,3.447a13.86,13.86,0,0,1-9.7-2.873c-.933-.79-1.869-2.113-3.375-2.226a16.03,16.03,0,0,1-3.27-.807,7.518,7.518,0,0,1-3.336-1.922c-.875-1.151.389-10.609,1.394-11.758.482-.55.086,1.335,3.491,1.943,2.016.36,3.406-.831,4.5-1.529A2.43,2.43,0,0,1-204.631,707.019Z"
                              transform="translate(217.899 -705.803)"/>
                    </g>
                    <path class="e"
                          d="M-220.989,510.052s-12.668.009-21.085.009-21.293-.009-21.293-.009-1.6,22.6-1.382,48.518,3.456,69.969,3.456,69.969a16.07,16.07,0,0,0,7.035,1.5,18.429,18.429,0,0,0,7.179-1.5s1.229-26.812,2.238-51.732c.815-20.131,1.224-36.542,2.769-36.542,1.379,0,1.918,17.731,2.713,35.171,1.2,26.268,2.293,53.1,2.293,53.1a18.428,18.428,0,0,0,7.178,1.5,16.072,16.072,0,0,0,7.035-1.5s2.766-38.607,2.982-64.521S-220.989,510.052-220.989,510.052Z"
                          transform="translate(275.741 -507.634)"/>
                </g>
                <g transform="translate(0 29.039)">
                    <path class="b"
                          d="M-224.456,394.716s-6.438-1.033-13.209-1.5V384.93h-11.77v8.284c-6.771.469-13.209,1.5-13.209,1.5a5.753,5.753,0,0,0-5.814,5.69l5.712,60.615a5.753,5.753,0,0,0,5.814,5.689h26.763a5.752,5.752,0,0,0,5.813-5.689l5.712-60.615A5.752,5.752,0,0,0-224.456,394.716Z"
                          transform="translate(304.512 -360.001)"/>
                    <path class="e"
                          d="M-285.012,404.666s-23.071,13.659-24.918,19.818c-1.575,5.251,3.2,10.044,6.471,10.658,6.22,1.169,19.156-11.754,19.156-11.754s1.849-4.647,1.083-8.729C-283.908,410.99-283.491,405.717-285.012,404.666Z"
                          transform="translate(321.229 -367.897)"/>
                    <path class="f"
                          d="M-298.955,423.785a4.148,4.148,0,0,1,1.32,1.269,11.464,11.464,0,0,1,1.675,3.375,15.578,15.578,0,0,1,.508,8.095c-.761,2.944-4.289,5.151-8.882,3.984C-306.149,440.047-298.955,423.785-298.955,423.785Z"
                          transform="translate(318.984 -375.547)"/>
                    <path class="b"
                          d="M-322.491,371.628s-2.879-3.466-3.959-5.021-2.252-4.392-1.608-5.516c2.119-3.7,8.414-4.432,8.414-4.432s-1.631-6.735-1.585-10.249a3.512,3.512,0,0,1,.725-2.078c1.2-1.2,2.223.641,2.374,1.783s1.6,10.06,1.6,10.06a8.172,8.172,0,0,1,4.076,3.7c1.082,2.512.25,5.985.25,5.985l-2.387,3.835s8.12,27.927,8.425,30.262,1.142,7.486-4.644,8.6-7.384-3.73-7.841-7.156c-.344-2.583-3.115-27.985-3.115-27.985Z"
                          transform="translate(328.431 -343.602)"/>
                    <path class="g"
                          d="M-322.08,375.728l8.78-2.538-.914-3.654s2.233-3.045,2.284-4.314.406-4.365-.66-6.04a16.5,16.5,0,0,0-4.022-3.565s-1.332-9.44-1.561-10.2-.723-2.246-1.941-2.017-1.484,2.817-1.484,3.464.419,3.425.495,4.073,1.065,5.253,1.065,5.253a28.115,28.115,0,0,0-4.187,1.332c-1.713.761-3.464,1.713-4.149,3.388s.723,4.453,1.218,5.138,4.035,5.063,4.378,5.71A23.685,23.685,0,0,1-322.08,375.728Z"
                          transform="translate(328.557 -343.376)"/>
                    <path class="h"
                          d="M-324.432,377.565a1.426,1.426,0,0,0,2.238-1.259,3.065,3.065,0,0,0,2-.17,2.125,2.125,0,0,0,1.084-1.346,1.643,1.643,0,0,0,1.427-.214,2.168,2.168,0,0,0,1.08-1.418s0,1.389-.729,1.737a2.92,2.92,0,0,1-1.571.2s-.161,1.134-.959,1.46a3.807,3.807,0,0,1-1.863.115s-.136,1.157-1.061,1.346A2.091,2.091,0,0,1-324.432,377.565Z"
                          transform="translate(326.907 -355.291)"/>
                    <path class="h"
                          d="M-311.453,372.955a7.26,7.26,0,0,0-.706-2.17c-1.674-1.16-3.884-1.912-3.577-3.13,0,0-1.136,2.259,1.889,3.357.678.247,1.627,2.656,2.224,2.382C-311.388,373.287-311.453,372.955-311.453,372.955Z"
                          transform="translate(323.511 -353.09)"/>
                    <path class="h" d="M-313.134,376.581s-2.184,3.021-1.248,5.139A3.889,3.889,0,0,1-313.134,376.581Z" transform="translate(323.084 -356.661)"/>
                    <path class="h" d="M-312.916,365.89a12.941,12.941,0,0,1,2.932,1.2,6.829,6.829,0,0,1,1.639,2.171s-1.775-2.021-2.747-2.308-2.83-1.059-3.667-.54l-.837.52S-315.614,365.591-312.916,365.89Z"
                          transform="translate(323.372 -352.366)"/>
                    <path class="b"
                          d="M-169.87,481.559c-2.3-69.1-25.914-79.47-25.914-79.47C-207.59,404.1-197.8,423.4-197.8,423.4c15.88,10.851,19.352,50.768,19.81,57.151a6.013,6.013,0,0,0-.483.705s-2.148,7.861-2.268,8.692a16.417,16.417,0,0,0,.108,3.887,1.413,1.413,0,0,0,1.728.378c.467-.216.792-3.869,1.4-3.833s.54,2.7.684,6.911c.051,1.476-.171,3.131-.18,3.923a.807.807,0,0,0,1.26.612,2.1,2.1,0,0,0,.756-1.008,38.992,38.992,0,0,0,.693-4.418c.072.756.017,3.154.081,3.455.108.5.214.8.513.81.59.011,1.227-1.023,1.233-1.431a20.208,20.208,0,0,1,.225-2.834c.127-.11.081,1.639.081,1.808,0,.567.324.683.621.648.533-.062.729-.891.757-1.484,0-.1.144-3.276.215-3.347s.047,2.5.054,2.592c.054.809.716.6.864,0a20.217,20.217,0,0,0,.423-3.464C-169.223,492.573-169.87,481.559-169.87,481.559Z"
                          transform="translate(277.767 -366.866)"/>
                    <path class="g"
                          d="M-165.8,523.387l9.78-.066.066,9.383s2.115,13.811-2.115,16.058c-3.953,2.1-5.219,3.745-6.244.925-.356-.98.165-6.533.165-8.029,0-.364-.132-1.355-.132-1.355s-.454,4.08-2.544,3.106c-3.839-1.791,1.157-13.613,1.157-13.613Z"
                          transform="translate(264.431 -415.37)"/>
                    <g transform="translate(34.957 30.435)">
                        <path class="e"
                              d="M-222.255,400.485c-2.321-1.107-14.414-2.248-14.414-2.248l-7.613,3.193-7.613-3.193s-12.093,1.141-14.415,2.248c-.352.167-3.584.944-3.782,2.319-1.111,7.706,2.871,31.021,2.871,31.021l3.143,31.652s5.831,1.764,19.8,1.764,19.8-1.764,19.8-1.764l3.142-34.887,4.643,7.943,13.934-4.585C-209.569,411.166-219.933,401.592-222.255,400.485Z"
                              transform="translate(270.287 -395.761)"/>
                        <path class="i" d="M-237.9,394.109a14.91,14.91,0,0,0,5.885,5.669l-4.239,4.211-3.374-7.4A6.834,6.834,0,0,1-237.9,394.109Z" transform="translate(258.021 -394.109)"/>
                        <path class="i" d="M-221.053,394.109a14.906,14.906,0,0,1-5.884,5.669l4.239,4.211,3.374-7.4A6.831,6.831,0,0,0-221.053,394.109Z" transform="translate(252.943 -394.109)"/>
                    </g>
                    <g transform="translate(36.485 32.878)">
                        <path class="g"
                              d="M-220.147,478.63c-.785,1.023-3.015,1.352-5.8,1.565-1.242.1-2.729.17-4.5.274l-.347.018c-5.932.347-8.5-1.224-8.5-1.224l-3.031-8.909s-.9,8.769-5.757,9.464c-5.853.84-18.307,1.157-19.264.018-.936-1.1.1-32.209.077-39.621a1.751,1.751,0,0,1,.318-1.007c.741-1.069,2.509-3.892,2.413-6.365s.219-24.562.164-32.643c4.2-1.779,8.228-1.487,10.408-1.687.926,2.478,10.707,28.971,10.707,28.971s4.433-10.664,6.985-18.063c2.125-6.163,3.965-10.926,4.05-10.926.463-.031.938-.055,1.419-.061a20.158,20.158,0,0,1,4.7.383l.067.019a13.16,13.16,0,0,1,2.966,1.029c-.03.341.086,25.616,1.675,32.157.548,2.265,1.553,5.2,1.553,5.217C-220.537,454.6-218.984,477.113-220.147,478.63Z"
                              transform="translate(267.74 -398.279)"/>
                        <path class="j" d="M-249.184,480.511a37.015,37.015,0,0,1-5.428.166c-.4-16-1.653-72.186-1.7-81.436a32.313,32.313,0,0,1,5.484-.539C-250.663,407.332-249.679,464.077-249.184,480.511Z"
                              transform="translate(263.167 -398.389)"/>
                        <path class="k"
                              d="M-235.533,454.938c-.19,6.984,6.4,19.2,9.122,24.228,0,0,1.424.849,2.019.734-4.847-8.754-9.668-18.8-9.885-24.157-.691-17.031,15.727-57.358,15.727-57.358a.935.935,0,0,0-1.015-.1C-220.176,398.557-234.938,433.132-235.533,454.938Z"
                              transform="translate(254.856 -398.181)"/>
                        <path class="j"
                              d="M-201.85,480.163c-1.242.1-2.729.17-4.5.274-.085-2.491-1.157-33.6-1.157-42.863,0-9.422.761-37.808.8-39.172v-.049a16.178,16.178,0,0,1,4.7.433l.067.019s-.219,25.859-.1,33.77C-201.948,439.084-201.857,477.477-201.85,480.163Z"
                              transform="translate(243.639 -398.246)"/>
                        <path class="h" d="M-194.939,485.211a46.391,46.391,0,0,1,.127,12.332s-5.6,1.623-7.065.485-1.936-4.852-2.091-7.6-.089-5.9,1.761-6.106S-195.5,484.685-194.939,485.211Z"
                              transform="translate(242.247 -432.628)"/>
                        <path class="j" d="M-203.925,492.208a32.163,32.163,0,0,1,9.537-.356s.407,4.412-.058,5.053a56.5,56.5,0,0,0-9.246.124S-203.983,493.063-203.925,492.208Z" transform="translate(242.211 -435.572)"/>
                        <path class="k" d="M-249.187,493.3a193.038,193.038,0,0,1,26.983-.058v2.617s-16.283-.815-27.332.232C-249.536,496.09-250.234,493.648-249.187,493.3Z" transform="translate(260.548 -436.033)"/>
                        <path class="k"
                              d="M-195.018,484.01s-8.252-1.916-9.3.362-.116,11.956,1.279,13.237,8.333-.037,8.333-.037.349-.925,0-.925-6.181,1.6-7.693.179-1.4-10.39-1.28-11.387,1.745-1.067,2.675-1.067,6.215.942,6.215.586S-194.728,484.153-195.018,484.01Z"
                              transform="translate(242.544 -432.219)"/>
                        <path class="h" d="M-265.367,486a46.4,46.4,0,0,0,.349,12.328s5.657,1.406,7.079.212,1.748-4.923,1.8-7.676-.138-5.9-1.995-6.033S-264.826,485.448-265.367,486Z"
                              transform="translate(266.894 -432.841)"/>
                        <path class="j" d="M-256.719,492.742a38.094,38.094,0,0,0-10.159.059s-.236,4.425.253,5.047c0,0,6.876-.68,9.859-.279C-256.765,497.569-256.628,493.593-256.719,492.742Z"
                              transform="translate(267.418 -435.885)"/>
                        <path class="k"
                              d="M-267.269,484.717s9.02-2.145,10.153.091.577,11.942-.769,13.277-9.621-.023-9.621-.023-.321-.911.028-.924,7.469,1.671,8.925.19.994-10.437.84-11.428-1.785-1-2.715-.964-7.015,1.155-7.029.8S-267.554,484.87-267.269,484.717Z"
                              transform="translate(267.7 -432.432)"/>
                    </g>
                </g>
                <g transform="translate(39.826)">
                    <g transform="translate(2.364 8.309)">
                        <path class="l" d="M-222.079,337.163c0,13.542-4.481,22.5-14.588,22.5s-14.588-8.959-14.588-22.5,6.531-22.272,14.588-22.272S-222.079,323.621-222.079,337.163Z"
                              transform="translate(255.439 -311.249)"/>
                        <path class="m" d="M-228.849,347.838c-1.433,0-2.866,7.163-2.866,9.456s2.866,2.005,2.866,2.005,2.865.287,2.865-2.005S-227.417,347.838-228.849,347.838Z" transform="translate(247.622 -324.431)"/>
                        <path class="n" d="M-216.012,346.937a1.026,1.026,0,0,1-1.026,1.025,1.026,1.026,0,0,1-1.026-1.025,1.026,1.026,0,0,1,1.026-1.026A1.026,1.026,0,0,1-216.012,346.937Z"
                              transform="translate(242.16 -323.66)"/>
                        <path class="n" d="M-237.181,346.937a1.025,1.025,0,0,1-1.026,1.025,1.025,1.025,0,0,1-1.025-1.025,1.025,1.025,0,0,1,1.025-1.026A1.025,1.025,0,0,1-237.181,346.937Z"
                              transform="translate(250.629 -323.66)"/>
                        <path class="o"
                              d="M-230.431,374.887c-3.817,0-5.005-1.488-5.054-1.551a.221.221,0,0,1,.041-.31.221.221,0,0,1,.31.04c.022.026,1.148,1.38,4.7,1.38,3.608,0,5.216-1.395,5.232-1.409a.219.219,0,0,1,.312.017.221.221,0,0,1-.017.311C-224.972,373.427-226.637,374.887-230.431,374.887Z"
                              transform="translate(249.148 -334.49)"/>
                        <path class="n"
                              d="M-215.541,343.028a.39.39,0,0,1-.2-.057,6.084,6.084,0,0,0-6.041,0,.39.39,0,0,1-.536-.131.391.391,0,0,1,.13-.537,6.883,6.883,0,0,1,6.854,0,.392.392,0,0,1,.13.538A.392.392,0,0,1-215.541,343.028Z"
                              transform="translate(243.886 -321.842)"/>
                        <path class="n"
                              d="M-243.157,343.028a.391.391,0,0,1-.334-.187.392.392,0,0,1,.13-.538,6.881,6.881,0,0,1,6.854,0,.391.391,0,0,1,.13.537.391.391,0,0,1-.536.131,6.082,6.082,0,0,0-6.041,0A.393.393,0,0,1-243.157,343.028Z"
                              transform="translate(252.356 -321.842)"/>
                        <g transform="translate(32.546 22.251)">
                            <path class="l" d="M-203.978,348.225s1.953-3.354,4.1-1.986.293,9.281-4.1,9.183Z" transform="translate(203.978 -345.911)"/>
                            <path class="p"
                                  d="M-201.566,354.138c-.22.317-.88,1.114-1.141.267-.055-.179.677-.511.749-1.042.02-.147-.313-.485-.326-.618-.025-.26.162-.554.618-.554C-200.949,352.191-201.284,353.731-201.566,354.138Z"
                                  transform="translate(203.471 -348.423)"/>
                            <path class="p" d="M-201.292,348.236a1.435,1.435,0,0,1,1.71-.317c1.392.708.488,3.7.488,3.7a6.454,6.454,0,0,0-.439-3.012A1.276,1.276,0,0,0-201.292,348.236Z"
                                  transform="translate(202.903 -346.648)"/>
                        </g>
                        <g transform="translate(0 22.251)">
                            <path class="l" d="M-253.232,348.225s-1.954-3.354-4.1-1.986-.293,9.281,4.1,9.183Z" transform="translate(258.23 -345.911)"/>
                            <path class="p"
                                  d="M-253.293,354.138c.22.317.88,1.114,1.14.267.055-.179-.677-.511-.749-1.042-.02-.147.313-.485.326-.618.024-.26-.163-.554-.619-.554C-253.911,352.191-253.575,353.731-253.293,354.138Z"
                                  transform="translate(256.387 -348.423)"/>
                            <path class="p" d="M-254.243,348.236a1.434,1.434,0,0,0-1.709-.317c-1.392.708-.489,3.7-.489,3.7A6.457,6.457,0,0,1-256,348.6,1.276,1.276,0,0,1-254.243,348.236Z"
                                  transform="translate(257.63 -346.648)"/>
                        </g>
                        <path class="n"
                              d="M-227.967,323.6s3.321.365,3.614,4.384.684,7.845.684,7.845l.814-3.521s2.355-6.232,1.37-12-5.28-11.1-13.809-11.462c-11.437-.488-12.7,5.763-13.09,5.568s-2.344-.781-4.143,2.149c-.647,1.053-.876,5.842-.448,9.866a57.082,57.082,0,0,0,1.758,9.085s1.368-10.062,2.735-10.746,1.856-5.568,1.856-5.568S-241.936,325.161-227.967,323.6Z"
                              transform="translate(256.215 -308.821)"/>
                        <path class="o"
                              d="M-227.774,378.553a3.323,3.323,0,0,1-1.421-.292.22.22,0,0,1-.1-.3.221.221,0,0,1,.3-.1,3.365,3.365,0,0,0,2.616-.04.22.22,0,0,1,.289.121.221.221,0,0,1-.121.288A4.123,4.123,0,0,1-227.774,378.553Z"
                              transform="translate(246.661 -336.423)"/>
                    </g>
                    <path class="i"
                          d="M-222.149,348.908c.251-1.586,0-1.133,0-1.133-.85,6.456-4.261,9.129-5.567,9.785-1.244-1.955-4.917-5.208-9.035-5.208s-7.791,3.253-9.036,5.208c-1.305-.656-4.717-3.329-5.567-9.785,0,0-.251-.452,0,1.133.244,1.528.316,6.381,5.119,9.614a17.691,17.691,0,0,0-.108,6.944,12.835,12.835,0,0,1-3.612-3.748,2.423,2.423,0,0,0,.491,1.636,16.791,16.791,0,0,0,3.443,3.594c.007.032.018.071.029.1.7,2.285,2.386,5.747,9.24,5.747s8.544-3.461,9.24-5.747c.011-.032.022-.071.029-.1a16.777,16.777,0,0,0,3.443-3.594,2.417,2.417,0,0,0,.491-1.636,12.828,12.828,0,0,1-3.612,3.748,17.691,17.691,0,0,0-.107-6.944C-222.465,355.29-222.393,350.436-222.149,348.908Z"
                          transform="translate(257.888 -316.073)"/>
                    <g transform="translate(6.191 27.309)">
                        <path class="q"
                              d="M-236.43,341.447s-14.418.374-14.231,1.97.473,6.5,1.542,7.066c1.317.693,6.832,1.319,8.29,1.1s1.981-1.875,2.692-3.52.66-2.045,1.707-2.045,1,.4,1.707,2.045,1.233,3.3,2.691,3.52,6.973-.407,8.291-1.1c1.068-.563,1.355-5.471,1.542-7.066S-236.43,341.447-236.43,341.447Z"
                              transform="translate(251.376 -340.874)"/>
                        <path class="k"
                              d="M-221.977,341.937c-.075-.374-.7-.424-.7-.424-4.46-.623-12.687-1.022-14.233-1.022s-9.774.4-14.233,1.022c0,0-.621.05-.7.424a2.387,2.387,0,0,0,.3,1.425,4.366,4.366,0,0,0,1.464,0c.5-.05.629-.821.953-.774s5.109-.676,9.6-.876c0,0-.025.112.747.256a6.808,6.808,0,0,0,1.869.106,6.81,6.81,0,0,0,1.869-.106c.772-.143.748-.256.748-.256,4.486.2,9.271.922,9.6.876s.457.723.953.774a4.362,4.362,0,0,0,1.464,0A2.387,2.387,0,0,0-221.977,341.937Z"
                              transform="translate(251.851 -340.492)"/>
                    </g>
                    <g transform="translate(0 26.95)">
                        <g transform="translate(35.138)">
                            <path class="g" d="M-202.407,340.578l-1.1,14.038s7.407-.9,7.069-7.61S-202.407,340.578-202.407,340.578Z" transform="translate(203.563 -340.166)"/>
                            <path class="r" d="M-203.545,354.342s-.264.476.945-.049,1.91-13.442,1.862-13.751-1.6-1.149-1.7-.239C-202.754,343-203.852,352.75-203.545,354.342Z" transform="translate(203.598 -339.893)"/>
                        </g>
                        <path class="g" d="M-256.192,340.578l1.1,14.038s-7.407-.9-7.069-7.61S-256.192,340.578-256.192,340.578Z" transform="translate(262.171 -340.166)"/>
                        <path class="r" d="M-252.242,354.342s.264.476-.945-.049-1.91-13.442-1.862-13.751,1.6-1.149,1.7-.239C-253.032,343-251.934,352.75-252.242,354.342Z" transform="translate(259.322 -339.893)"/>
                    </g>
                    <g transform="translate(0.93)">
                        <path class="s"
                              d="M-220.266,317.709c-.133-.309-1.59-.618-1.59-.618-.663-15.31-9.809-19.309-9.809-19.309a1.762,1.762,0,0,0-.133-.619,4.378,4.378,0,0,0-1.812-1.06,2.542,2.542,0,0,0-.928.176,17.157,17.157,0,0,0-3.888-.663s-.133-.464-.4-.53c-.142-.035-1.357-.127-1.59-.116-.234-.011-1.449.08-1.591.116-.265.066-.4.53-.4.53a17.157,17.157,0,0,0-3.888.663,2.539,2.539,0,0,0-.928-.176,4.371,4.371,0,0,0-1.811,1.06,1.762,1.762,0,0,0-.133.619s-9.146,4-9.809,19.309c0,0-1.458.309-1.591.618a16.347,16.347,0,0,0,.044,2.961c.044.177.751.486.751.486,2.386,1.038,13.565-.088,19.353,0,5.788-.088,16.967,1.038,19.352,0,0,0,.707-.309.751-.486A16.347,16.347,0,0,0-220.266,317.709Z"
                              transform="translate(260.62 -294.971)"/>
                        <path class="t"
                              d="M-220.243,335.806c-.045.178-.75.485-.75.485-2.386,1.039-13.566-.088-19.353,0-5.79-.088-16.967,1.039-19.352,0,0,0-.708-.308-.753-.485a18.683,18.683,0,0,1,6.153-2.02c3.415-.7,5.792-.984,13.953-.984s10.538.287,13.95.984A18.661,18.661,0,0,1-220.243,335.806Z"
                              transform="translate(260.552 -310.107)"/>
                        <path class="u"
                              d="M-220.243,337.593c-.045.178-.75.485-.75.485-2.386,1.039-13.566-.088-19.353,0-5.79-.088-16.967,1.039-19.352,0,0,0-.708-.308-.753-.485.082-.05.167-.1.257-.154a26.566,26.566,0,0,0,7.256.353c3.446-.167,7-.523,12.593-.523s9.146.355,12.593.523a26.543,26.543,0,0,0,7.253-.353C-220.41,337.493-220.325,337.543-220.243,337.593Z"
                              transform="translate(260.552 -311.894)"/>
                        <path class="t"
                              d="M-214.322,299.084a27.524,27.524,0,0,0-2.121,5.92c-.4,2.418-.565,13.256-.565,13.256s-.6-11,0-13.918a26.632,26.632,0,0,1,2.322-6.118h0a.751.751,0,0,1,.228.241A1.769,1.769,0,0,1-214.322,299.084Z"
                              transform="translate(243.277 -296.272)"/>
                        <path class="i" d="M-217.3,296.87s-1.2.833-1.829,8.256c0,0-.409-5.634,1.169-8.086A3.378,3.378,0,0,1-217.3,296.87Z" transform="translate(244.037 -295.73)"/>
                        <path class="t" d="M-224.134,295.695l-.764,7.423a74.589,74.589,0,0,1,.366-7.953C-224.266,295.231-224.134,295.695-224.134,295.695Z" transform="translate(246.329 -295.048)"/>
                        <path class="t"
                              d="M-241.523,299.084A27.512,27.512,0,0,1-239.4,305c.4,2.418.565,13.256.565,13.256s.6-11,0-13.918a26.632,26.632,0,0,0-2.322-6.118h0a.764.764,0,0,0-.228.241A1.768,1.768,0,0,0-241.523,299.084Z"
                              transform="translate(252.979 -296.272)"/>
                        <path class="i" d="M-237.833,296.87s1.2.833,1.83,8.256c0,0,.408-5.634-1.169-8.086A3.377,3.377,0,0,0-237.833,296.87Z" transform="translate(251.503 -295.73)"/>
                        <path class="t" d="M-230.254,295.695l.764,7.423a74.771,74.771,0,0,0-.366-7.953C-230.121,295.231-230.254,295.695-230.254,295.695Z" transform="translate(248.471 -295.048)"/>
                        <path class="i" d="M-202.722,327.623l-.961-1.027a9.8,9.8,0,0,1,2.817.514c.364.348,1.094,1.143,1.094,1.143l-2.121.331Z" transform="translate(237.84 -307.624)"/>
                        <path class="j" d="M-203.683,326.6V331.3l.961.563.53-2.634-.53-1.607Z" transform="translate(237.84 -307.624)"/>
                        <path class="v" d="M-202.081,328.308s2.817.332,2.95.63a18.754,18.754,0,0,1,0,4.308,21.536,21.536,0,0,1-2.95-.7Z" transform="translate(237.199 -308.309)"/>
                        <path class="i" d="M-253.763,327.623l.961-1.027a9.8,9.8,0,0,0-2.817.514c-.365.348-1.094,1.143-1.094,1.143l2.121.331Z" transform="translate(259.056 -307.624)"/>
                        <path class="j" d="M-251.188,326.6V331.3l-.961.563-.53-2.634.53-1.607Z" transform="translate(257.443 -307.624)"/>
                        <path class="v" d="M-253.847,328.308s-2.817.332-2.949.63a18.686,18.686,0,0,0,0,4.308,21.549,21.549,0,0,0,2.949-.7Z" transform="translate(259.14 -308.309)"/>
                    </g>
                </g>
            </g>
            <g transform="translate(401.404 608.946)">
                <path class="i" d="M-922.563,2840.124s37.177-22.62,69.524-10.427c0,0,21.468,54.789-18.068,88.931C-871.107,2918.628-924.044,2903.872-922.563,2840.124Z" transform="translate(922.594 -2826.089)"/>
                <path class="s" d="M-861.771,2930.949s-48.013-13.385-46.669-71.2A101.734,101.734,0,0,1-876.4,2848.09c9.767-1.673,20.663-1.7,31.013,2.2C-845.383,2850.291-825.913,2899.981-861.771,2930.949Z"
                      transform="translate(912.613 -2842.771)"/>
                <path class="v" d="M-893.842,2930.949s7.745-42.905-14.625-82.859c9.767-1.673,20.663-1.7,31.013,2.2C-877.455,2850.291-857.985,2899.981-893.842,2930.949Z" transform="translate(944.684 -2842.771)"/>
            </g>
        </g>
        <g class="ag" transform="matrix(1, 0, 0, 1, 190.01, 319.66)">
            <g class="w" transform="translate(-52.36 -70.98)">
                <path class="ab"
                      d="M 170.0004272460938 304.0531311035156 L 93.23505401611328 304.0531311035156 C 92.12376403808594 304.0531311035156 91.07068634033203 303.6275939941406 90.26983642578125 302.8549499511719 C 89.46913909912109 302.0824890136719 89.00841522216797 301.0474853515625 88.97252655029297 299.9407043457031 C 88.89946746826172 297.8856506347656 88.86399841308594 295.7655639648438 88.86399841308594 293.4577331542969 C 88.86399841308594 270.3620910644531 92.87557983398438 247.7665405273438 100.7873077392578 226.2986907958984 C 104.6040725708008 215.9422454833984 109.3504333496094 205.8379211425781 114.8945465087891 196.266357421875 C 120.3765640258789 186.8020324707031 126.7117614746094 177.7316436767578 133.7241363525391 169.3071746826172 C 134.5289916992188 168.3387145996094 135.7160491943359 167.783447265625 136.981201171875 167.783447265625 C 138.12255859375 167.783447265625 139.1954956054688 168.2278137207031 140.0023498535156 169.03466796875 L 194.5737762451172 223.6060638427734 C 195.2060089111328 224.23828125 195.5893249511719 225.0775146484375 195.6531372070312 225.9692077636719 C 195.7169036865234 226.8601684570312 195.4581756591797 227.7481536865234 194.9246673583984 228.4695587158203 C 188.1101379394531 237.6876220703125 182.8151550292969 247.8506622314453 179.1867828369141 258.6764526367188 C 175.4345245361328 269.871826171875 173.5319671630859 281.5932006835938 173.5319671630859 293.5149841308594 C 173.5319671630859 295.7212219238281 173.5978546142578 297.9503784179688 173.7277984619141 300.1405944824219 C 173.7878875732422 301.1574401855469 173.4333648681641 302.1287231445312 172.7294921875 302.8753967285156 C 172.0239410400391 303.6238708496094 171.0292510986328 304.0531311035156 170.0004272460938 304.0531311035156 Z"/>
                <path class="ac"
                      d="M 170.0004272460938 303.5531311035156 C 170.9052124023438 303.5531311035156 171.7451934814453 303.1906433105469 172.3656463623047 302.5324401855469 C 172.9740753173828 301.8869934082031 173.2805633544922 301.0480041503906 173.2286834716797 300.1701965332031 C 173.09814453125 297.9701843261719 173.0319671630859 295.7310180664062 173.0319671630859 293.5149841308594 C 173.0319671630859 281.5390930175781 174.9432373046875 269.7642517089844 178.7127075195312 258.5175476074219 C 182.3577270507812 247.6421051025391 187.6769256591797 237.4325103759766 194.5226593017578 228.1722412109375 C 194.9853057861328 227.5466766357422 195.2096710205078 226.7769775390625 195.1544189453125 226.0048980712891 C 195.0991973876953 225.2331695556641 194.7674407958984 224.5068054199219 194.22021484375 223.9596252441406 L 139.6488037109375 169.3882141113281 C 138.9363861083984 168.6757965087891 137.989013671875 168.283447265625 136.981201171875 168.283447265625 C 135.8651428222656 168.283447265625 134.8182373046875 168.77294921875 134.1084289550781 169.6270446777344 C 127.1140518188477 178.0298919677734 120.7951278686523 187.0769653320312 115.3272171020508 196.5169677734375 C 109.7974166870117 206.0637664794922 105.0633392333984 216.1419677734375 101.2564697265625 226.4716033935547 C 93.36519622802734 247.8838958740234 89.36399841308594 270.4212646484375 89.36399841308594 293.4577331542969 C 89.36399841308594 295.7595825195312 89.39937591552734 297.8738708496094 89.47225189208984 299.9244995117188 C 89.50390625 300.9005432128906 89.91045379638672 301.8134765625 90.61699676513672 302.4951477050781 C 91.32415771484375 303.1773986816406 92.25394439697266 303.5531311035156 93.23505401611328 303.5531311035156 L 170.0004272460938 303.5531311035156 M 170.0004272460938 304.5531311035156 L 93.23505401611328 304.5531311035156 C 90.66872406005859 304.5531311035156 88.55579376220703 302.5162963867188 88.4727783203125 299.9569091796875 C 88.39607238769531 297.7986755371094 88.36399841308594 295.6347961425781 88.36399841308594 293.4577331542969 C 88.36399841308594 246.1199340820312 105.2498168945312 202.7338409423828 133.3398590087891 168.9873046875 C 134.2806701660156 167.855224609375 135.6282958984375 167.2834320068359 136.981201171875 167.2834320068359 C 138.1991577148438 167.2834320068359 139.4213256835938 167.7465209960938 140.3559112548828 168.6811218261719 L 194.9273223876953 223.2525177001953 C 196.4120635986328 224.7372131347656 196.5749053955078 227.0790405273438 195.3266754150391 228.7668609619141 C 181.9441223144531 246.8695373535156 174.0319671630859 269.2640686035156 174.0319671630859 293.5149841308594 C 174.0319671630859 295.7272644042969 174.0973815917969 297.9275817871094 174.2269287109375 300.1109619140625 C 174.3696746826172 302.5263366699219 172.4208679199219 304.5531311035156 170.0004272460938 304.5531311035156 Z"/>
            </g>
        </g>
        <circle class="x" cx="32" cy="32" r="32" transform="translate(212 450)"/>
        <path class="i"
              d="M24.864,23.35a14.517,14.517,0,0,1-6.474,1.273A10.748,10.748,0,0,1,7.352,13.479C7.352,6.262,12.588,0,20.584,0,26.81,0,31.268,4.281,31.268,10.224c0,5.165-2.9,8.42-6.722,8.42A2.775,2.775,0,0,1,21.5,15.92h-.071a5.193,5.193,0,0,1-4.564,2.724c-2.3,0-3.962-1.7-3.962-4.6A8.079,8.079,0,0,1,21.185,5.8a9.934,9.934,0,0,1,4.21.885l-1.061,6.545c-.354,2.087-.106,3.043.885,3.078,1.521.035,3.431-1.911,3.431-5.979,0-4.6-2.972-8.173-8.456-8.173-5.412,0-10.154,4.246-10.154,11,0,5.908,3.785,9.269,9.057,9.269a11.5,11.5,0,0,0,5.13-1.132ZM21.716,8.739a4.355,4.355,0,0,0-1.1-.142c-2.335,0-4.175,2.3-4.175,5.024,0,1.344.6,2.193,1.769,2.193,1.309,0,2.689-1.663,3.007-3.715Z"
              transform="translate(224.648 470)"/>
        <text class="y" transform="translate(303.493 506.64) rotate(-77)">
            <tspan x="-17.611" y="0">Email</tspan>
        </text>
        <g class="af" transform="matrix(1, 0, 0, 1, 190.01, 319.66)">
            <path class="z"
                  d="M311.792,63.435v76.856a4.24,4.24,0,0,1-3.92,4.217A108.669,108.669,0,0,0,240.617,175.1a4.241,4.241,0,0,1-5.966-.015l-54.243-54.243a4.762,4.762,0,0,1,.013-6.761A194.074,194.074,0,0,1,306.806,58.673,4.755,4.755,0,0,1,311.792,63.435Z"
                  transform="translate(-86.01 -30.67)"/>
        </g>
        <circle class="i" cx="32" cy="32" r="32" transform="translate(316 334)"/>
        <g transform="translate(336 353)">
            <path class="aa" d="M24.864,44.879V44H2v.879H24.864Z" transform="translate(-1.121 -24.653)"/>
            <path class="aa"
                  d="M17.148,48v.44A1.759,1.759,0,0,1,15.39,50.2H9.234A1.759,1.759,0,0,1,7.475,48.44V48H0v1.319a2.2,2.2,0,0,0,2.2,2.2H22.425a2.2,2.2,0,0,0,2.2-2.2V48ZM1.759,49.759a.44.44,0,1,1,.44-.44A.44.44,0,0,1,1.759,49.759Zm1.319,0a.44.44,0,1,1,.44-.44A.44.44,0,0,1,3.078,49.759Zm2.638,0H4.4a.44.44,0,0,1,0-.879H5.716a.44.44,0,0,1,0,.879Z"
                  transform="translate(0 -26.894)"/>
            <path class="aa" d="M19.879,49.319h6.156a.879.879,0,0,0,.879-.879V48H19v.44A.879.879,0,0,0,19.879,49.319Z" transform="translate(-10.646 -26.894)"/>
            <path class="aa"
                  d="M24.864,8.319A1.319,1.319,0,0,0,23.545,7H18.869a5.69,5.69,0,0,1,.28,1.759c0,2.446-3.327,6.658-4.755,8.354H16.95a.44.44,0,1,1,0,.879H9.915a.44.44,0,0,1,0-.879h2.557c-1.429-1.7-4.755-5.909-4.755-8.354A5.69,5.69,0,0,1,8,7H3.319A1.319,1.319,0,0,0,2,8.319V21.95H24.864Z"
                  transform="translate(-1.121 -3.922)"/>
            <path class="aa" d="M26.673,4.837a4.837,4.837,0,0,0-9.673,0c0,2.1,3.232,6.271,4.837,8.128C23.441,11.107,26.673,6.933,26.673,4.837Zm-7.475,0a2.638,2.638,0,1,1,2.638,2.638A2.638,2.638,0,0,1,19.2,4.837Z"
                  transform="translate(-9.525)"/>
            <ellipse class="aa" cx="1.759" cy="1.759" rx="1.759" ry="1.759" transform="translate(10.553 3.078)"/>
        </g>
        <text class="y" transform="matrix(0.914, -0.407, 0.407, 0.914, 371.015, 430.43)">
            <tspan x="-6.523" y="0">IP</tspan>
        </text>
        <g class="ae" transform="matrix(1, 0, 0, 1, 190.01, 319.66)">
            <g class="w" transform="translate(-170.19 -30.67)">
                <path class="ab"
                      d="M 479.994873046875 175.8182830810547 C 479.0067443847656 175.8182830810547 478.0699462890625 175.4357757568359 477.3571166992188 174.7412261962891 C 468.3805236816406 165.9933471679688 458.0804443359375 158.9061584472656 446.7430114746094 153.6765441894531 C 435.0739440917969 148.2939758300781 422.6399841308594 145.0417022705078 409.7865600585938 144.0100250244141 C 408.8412475585938 143.9341125488281 407.966796875 143.5127105712891 407.3243103027344 142.823486328125 C 406.68115234375 142.1334838867188 406.3269348144531 141.2342071533203 406.3269348144531 140.2913513183594 L 406.3269348144531 63.43544769287109 C 406.3269348144531 61.0816650390625 408.2280578613281 59.16672897338867 410.5648498535156 59.16672897338867 C 410.6385192871094 59.16672897338867 410.7133178710938 59.16867828369141 410.7872009277344 59.17251205444336 C 422.8463134765625 59.77739715576172 434.87548828125 61.50864791870117 446.54150390625 64.31819915771484 C 457.9446716308594 67.06446075439453 469.1615905761719 70.8790283203125 479.8806762695312 75.65592956542969 C 490.4272155761719 80.35592651367188 500.6243896484375 86.04604339599609 510.18896484375 92.56821441650391 C 519.671142578125 99.03424835205078 528.6407470703125 106.3920974731445 536.8485107421875 114.4374160766602 C 537.6624145507812 115.2348327636719 538.11328125 116.3036804199219 538.1180419921875 117.4471664428711 C 538.1228637695312 118.5971145629883 537.6776733398438 119.676643371582 536.8644409179688 120.4869003295898 L 482.6205749511719 174.7306976318359 C 481.919189453125 175.4320373535156 480.9867248535156 175.8182830810547 479.994873046875 175.8182830810547 Z"/>
                <path class="ac"
                      d="M 479.994873046875 175.3182830810547 C 480.8531494140625 175.3182830810547 481.6600952148438 174.9840393066406 482.2669982910156 174.3771362304688 L 536.5115356445312 120.132698059082 C 537.2293701171875 119.4175186157227 537.622314453125 118.4645385742188 537.6180419921875 117.4492797851562 C 537.6138305664062 116.4404830932617 537.21630859375 115.4977188110352 536.4984741210938 114.7944869995117 C 528.311767578125 106.7697525024414 519.3651733398438 99.43075561523438 509.9072570800781 92.9813232421875 C 500.3673400878906 86.47593688964844 490.1964721679688 80.80049896240234 479.6771545410156 76.11262512207031 C 468.9858703613281 71.34812164306641 457.7980346679688 67.54344940185547 446.4244384765625 64.80429840087891 C 434.7885437011719 62.00199127197266 422.7903137207031 60.27521133422852 410.7612609863281 59.67182922363281 C 410.6959838867188 59.6684455871582 410.6299133300781 59.66672134399414 410.5648498535156 59.66672134399414 C 408.5037536621094 59.66672134399414 406.8269348144531 61.35735702514648 406.8269348144531 63.43544769287109 L 406.8269348144531 140.2913513183594 C 406.8269348144531 141.1072540283203 407.1334533691406 141.8854217529297 407.6900634765625 142.4825592041016 C 408.2472229003906 143.0802612304688 409.0059814453125 143.4457397460938 409.8265686035156 143.5116271972656 C 422.7388000488281 144.5480346679688 435.2297668457031 147.8152313232422 446.9524230957031 153.2225189208984 C 458.3416442871094 158.4760131835938 468.6886901855469 165.5954895019531 477.7060241699219 174.3831176757812 C 478.3249816894531 174.9861755371094 479.1378173828125 175.3182830810547 479.994873046875 175.3182830810547 M 479.994873046875 176.3182830810547 C 478.9188842773438 176.3182830810547 477.8406982421875 175.9105072021484 477.0081787109375 175.0993499755859 C 459.3350524902344 157.87646484375 435.8362121582031 146.6024780273438 409.7465515136719 144.5084228515625 C 407.5380859375 144.3310699462891 405.8269348144531 142.5074157714844 405.8269348144531 140.2913513183594 L 405.8269348144531 63.43544769287109 C 405.8269348144531 60.79979705810547 407.9626159667969 58.66672134399414 410.5648803710938 58.66672134399414 C 410.6472778320312 58.66672134399414 410.7298278808594 58.66884994506836 410.8131103515625 58.67317581176758 C 459.9449768066406 61.13763046264648 504.2757263183594 81.80913543701172 537.198486328125 114.0803375244141 C 539.088134765625 115.9316635131836 539.088134765625 118.9771957397461 537.2173461914062 120.8411026000977 L 482.97412109375 175.0842437744141 C 482.14990234375 175.9084167480469 481.073486328125 176.3182830810547 479.994873046875 176.3182830810547 Z"/>
            </g>
        </g>
        <circle class="x" cx="32" cy="32" r="32" transform="translate(461 334)"/>
        <g transform="translate(481 354)">
            <g transform="translate(0 0)">
                <path class="i"
                      d="M24.133,11.364A3.63,3.63,0,0,1,21.7,7.91a.749.749,0,0,0-.284-.541.787.787,0,0,0-.61-.163,4.262,4.262,0,0,1-4.843-3.894.721.721,0,0,0-.967-.614A3.692,3.692,0,0,1,10.451.432.722.722,0,0,0,9.633.017,12.759,12.759,0,0,0,0,12.312a12.312,12.312,0,1,0,24.623,0C24.6,11.882,24.6,11.531,24.133,11.364ZM5.063,13.088a.721.721,0,1,1,.721-.721A.721.721,0,0,1,5.063,13.088ZM7.984,18.8a2.164,2.164,0,1,1,2.164-2.164A2.167,2.167,0,0,1,7.984,18.8Zm.721-8.657a1.443,1.443,0,1,1,1.443-1.443A1.445,1.445,0,0,1,8.706,10.148Zm5.771,10.1A1.443,1.443,0,1,1,15.92,18.8,1.445,1.445,0,0,1,14.477,20.247Zm.721-5.771a2.164,2.164,0,1,1,2.164-2.164A2.167,2.167,0,0,1,15.2,14.476Zm4.292,1.5a.721.721,0,1,1,.721-.721A.721.721,0,0,1,19.49,15.973Z"
                      transform="translate(-0.001 0)"/>
            </g>
        </g>
        <text class="y" transform="translate(471.232 430.498) rotate(22)">
            <tspan x="-25.471" y="0">Cookies</tspan>
        </text>
        <g class="ad" transform="matrix(1, 0, 0, 1, 190.01, 319.66)">
            <g class="w" transform="translate(-218.58 -70.98)">
                <path class="ab"
                      d="M 639.1411743164062 304.0531311035156 L 562.3750610351562 304.0531311035156 C 561.3462524414062 304.0531311035156 560.3515625 303.6237487792969 559.64599609375 302.8750305175781 C 558.9423217773438 302.1283264160156 558.5880126953125 301.1572265625 558.6484375 300.1405944824219 C 558.7783203125 297.9496459960938 558.8441772460938 295.7204895019531 558.8441772460938 293.5149841308594 C 558.8441772460938 281.5931396484375 556.9415893554688 269.8717041015625 553.1893310546875 258.6762084960938 C 549.5609130859375 247.8502044677734 544.2659912109375 237.687255859375 537.4515380859375 228.4696197509766 C 536.91796875 227.7481689453125 536.6592407226562 226.8601837158203 536.722900390625 225.9691772460938 C 536.7866821289062 225.0774993896484 537.1697998046875 224.2382507324219 537.8017578125 223.6059875488281 L 592.3675537109375 169.0346374511719 C 593.1767578125 168.2279815673828 594.2517700195312 167.783447265625 595.39404296875 167.783447265625 C 596.6597290039062 167.783447265625 597.84716796875 168.3387145996094 598.6517333984375 169.306884765625 C 605.6643676757812 177.7316436767578 611.9995727539062 186.8020324707031 617.4815673828125 196.266357421875 C 623.0256958007812 205.8379211425781 627.7720336914062 215.9422454833984 631.5888061523438 226.2986907958984 C 639.50048828125 247.7665405273438 643.5120849609375 270.3620910644531 643.5120849609375 293.4577331542969 C 643.5120849609375 295.5552062988281 643.4755859375 297.7363586425781 643.4036254882812 299.9405822753906 C 643.3674926757812 301.0491943359375 642.9066162109375 302.0848388671875 642.10595703125 302.856689453125 C 641.3056640625 303.6282348632812 640.2527465820312 304.0531311035156 639.1411743164062 304.0531311035156 Z"/>
                <path class="ac"
                      d="M 639.1411743164062 303.5531311035156 C 640.1226806640625 303.5531311035156 641.0523071289062 303.177978515625 641.7589721679688 302.4967346191406 C 642.4653930664062 301.8157043457031 642.8720092773438 300.9021301269531 642.9038696289062 299.9242858886719 C 642.9756469726562 297.7254333496094 643.0120849609375 295.5497741699219 643.0120849609375 293.4577331542969 C 643.0120849609375 270.4212951660156 639.0108642578125 247.8838958740234 631.11962890625 226.4716033935547 C 627.312744140625 216.1419677734375 622.5786743164062 206.0637664794922 617.0488891601562 196.5169677734375 C 611.5809936523438 187.0769653320312 605.2620849609375 178.0298919677734 598.2672119140625 169.62646484375 C 597.5579223632812 168.77294921875 596.5106811523438 168.283447265625 595.39404296875 168.283447265625 C 594.3850708007812 168.283447265625 593.4353637695312 168.6761932373047 592.7211303710938 169.38818359375 L 538.1553955078125 223.9594573974609 C 537.6083984375 224.5066833496094 537.2767944335938 225.2330627441406 537.2216796875 226.0048065185547 C 537.1664428710938 226.7769470214844 537.390869140625 227.5466918945312 537.8536376953125 228.1723937988281 C 544.6991577148438 237.4321594238281 550.0183715820312 247.6416473388672 553.6633911132812 258.5173034667969 C 557.432861328125 269.7641296386719 559.3441772460938 281.5390319824219 559.3441772460938 293.5149841308594 C 559.3441772460938 295.7302856445312 559.2780151367188 297.9694213867188 559.1475219726562 300.1702575683594 C 559.0953979492188 301.0479125976562 559.4016723632812 301.88671875 560.0098876953125 302.5321350097656 C 560.63037109375 303.1905212402344 561.4703369140625 303.5531311035156 562.3750610351562 303.5531311035156 L 639.1411743164062 303.5531311035156 M 639.1411743164062 304.5531311035156 L 562.3750610351562 304.5531311035156 C 559.9552612304688 304.5531311035156 558.005859375 302.5263366699219 558.1492919921875 300.1109619140625 C 558.2787475585938 297.9275817871094 558.3441772460938 295.7272644042969 558.3441772460938 293.5149841308594 C 558.3441772460938 269.2640686035156 550.4319458007812 246.868896484375 537.0494995117188 228.7668609619141 C 535.8012084960938 227.0790405273438 535.964111328125 224.7372131347656 537.4481201171875 223.2525177001953 L 592.0139770507812 168.6811218261719 C 592.951416015625 167.7466430664062 594.1754150390625 167.2834320068359 595.39404296875 167.2834320068359 C 596.7479858398438 167.2834320068359 598.0953369140625 167.8550872802734 599.0363159179688 168.9873046875 C 627.1262817382812 202.7338409423828 644.0120849609375 246.1199340820312 644.0120849609375 293.4577331542969 C 644.0120849609375 295.6347961425781 643.9738159179688 297.7986755371094 643.9033203125 299.9569091796875 C 643.8197631835938 302.5213012695312 641.7067260742188 304.5531311035156 639.1411743164062 304.5531311035156 Z"/>
            </g>
        </g>
        <circle class="x" cx="32" cy="32" r="32" transform="translate(565 450)"/>
        <text class="y" transform="translate(534.815 504.893) rotate(74)">
            <tspan x="-27.428" y="0">Duration</tspan>
        </text>
        <g transform="translate(527 470)">
            <g transform="translate(61)">
                <path class="i"
                      d="M73.921,9.506a10.293,10.293,0,0,0,3.939-8.1h1.421V0H61V1.406h1.421a10.293,10.293,0,0,0,3.939,8.1c1.067.973,1.671,1.569,1.671,2.494s-.6,1.52-1.671,2.494a10.293,10.293,0,0,0-3.939,8.1H61V24H79.281V22.594H77.861a10.293,10.293,0,0,0-3.939-8.1C72.854,13.52,72.25,12.925,72.25,12S72.854,10.48,73.921,9.506Zm-4.484,7.764a3.555,3.555,0,0,0-.641.2L64.49,19.249a9.594,9.594,0,0,1,2.818-3.716c1.1-1,2.13-1.942,2.13-3.533Zm3.536-1.738a9.594,9.594,0,0,1,2.818,3.716l-4.307-1.782a3.555,3.555,0,0,0-.641-.2V12C70.844,13.591,71.878,14.534,72.974,15.533ZM64.465,4.688a10.419,10.419,0,0,1-.636-3.281H76.452a10.418,10.418,0,0,1-.636,3.281Z"
                      transform="translate(-61)"/>
            </g>
        </g>
    </g>
</svg>
