<svg xmlns="http://www.w3.org/2000/svg" xmlns:xlink="http://www.w3.org/1999/xlink" width="392.859" height="370.527" viewBox="0 0 392.859 370.527">
    <defs>
        <style>
            .a{fill:rgba(25,150,252,0.04);fill-rule:evenodd;}.b{fill:rgba(25,150,252,0.12);}.c{fill:#bbdffe;}.d{fill:#ffdc7e;}.e{fill:#fecf47;}.f,.g{fill:#fff;}.f{stroke:rgba(0,0,0,0);}.h{fill:#61b6fd;}.i{fill:#1996fc;}.j{fill:#e7f3f6;}.k{fill:url(#a);}.l{fill:#dbefff;}.m{fill:#3fa771;}.n{fill:#0a067a;}.o{fill:rgba(0,0,0,0.11);}.p{fill:#6660ff;}
        </style>
        <linearGradient id="a" x1="0.619" y1="0.82" x2="0.308" y2="-0.114" gradientUnits="objectBoundingBox">
            <stop offset="0" stop-color="#febbba"/>
            <stop offset="1" stop-color="#ff928e"/>
        </linearGradient>
    </defs>
    <g transform="translate(-204 -355)">
        <path class="a" d="M622.223,698.539s-5.644-51.635-47.7-73.058c-51-25.981-63.9,49.969-118.111,40.137S346.173,772.773,437.518,840.46,643.506,849.268,622.223,698.539Z"
              transform="translate(-271.452 979.804) rotate(-90)"/>
        <path class="a" d="M596.523,832.094s-7.562-69.179-63.906-97.88c-68.328-34.808-85.617,66.947-158.24,53.774s-147.695,143.562-25.314,234.244S625.037,1034.035,596.523,832.094Z"
              transform="translate(-80.107 -334.021)"/>
        <g transform="translate(213.732 321.603)">
            <g transform="translate(11.268 62.397)">
                <g transform="translate(45.054 5.019)">
                    <g transform="translate(245.721 193.196)">
                        <path class="b"
                              d="M129.616,126.165a23.786,23.786,0,0,0-2.917-.228,6.474,6.474,0,0,0-1.248.1c-8.7,1.775-23.721,8.694-20.536,16.986,2.577,6.716,11.577,8.735,18.131,11.7,4.813,2.174,10.638,6.535,15.62,6.535a6.862,6.862,0,0,0,3.971-1.185c2.589-1.766.639-6.37-.15-9.405-1.95-7.484-4.845-14.974-9.437-21.194A26.726,26.726,0,0,0,129.616,126.165Z"
                              transform="translate(-104.479 -125.937)"/>
                    </g>
                </g>
                <g transform="translate(56.956)">
                    <g transform="translate(216.686 231.214)">
                        <path class="c"
                              d="M110.673,136.515l-4.517,4.13-.193.047q-2.363.613-6.975,2.262a40.366,40.366,0,0,1,4.62-3.566,20.65,20.65,0,0,1,2.343-1.292q.833-.393,1.766-.73c.621-.221,1.276-.421,1.959-.6a9.627,9.627,0,0,1,1-.25Z"
                              transform="translate(-98.987 -136.515)"/>
                    </g>
                    <g transform="translate(216.686 231.214)">
                        <path class="c"
                              d="M110.673,136.515l-4.517,4.13-.193.047q-2.363.613-6.975,2.262a40.366,40.366,0,0,1,4.62-3.566,20.65,20.65,0,0,1,2.343-1.292q.833-.393,1.766-.73c.621-.221,1.276-.421,1.959-.6a9.627,9.627,0,0,1,1-.25Z"
                              transform="translate(-98.987 -136.515)"/>
                    </g>
                    <g transform="translate(282.826 54.957)">
                        <path class="c" d="M122.956,80.014c-.019.362-.044.739-.078,1.139-.028.34-.059.7-.1,1.064h0l-.006,0q-.566,5.709-2.586,15.76l3.007.605a144.474,144.474,0,0,0,2.826-18.4Z"
                              transform="translate(-120.189 -80.014)"/>
                    </g>
                    <g transform="translate(61.392 218.065)">
                        <path class="c" d="M49.752,132.3l-.546,3.02a165.022,165.022,0,0,0,18.443,2.206l.2-3.063A161.846,161.846,0,0,1,49.752,132.3Z" transform="translate(-49.206 -132.3)"/>
                    </g>
                    <g transform="translate(52.289 216.128)">
                        <path class="c" d="M47.059,131.679l-.771,2.97q1.493.388,3.02.739l.041.009-.041-.009.649-3Q48.487,132.049,47.059,131.679Z" transform="translate(-46.288 -131.679)"/>
                    </g>
                    <g transform="translate(29.195 207.119)">
                        <path class="c" d="M40.463,128.791l-1.578,2.633A81.862,81.862,0,0,0,56,139.042l.942-2.92A78.79,78.79,0,0,1,40.463,128.791Z" transform="translate(-38.885 -128.791)"/>
                    </g>
                    <g transform="translate(21.48 201.962)">
                        <path class="c" d="M38.365,127.138l-1.953,2.368q1.217,1,2.5,1.95l1.825-2.468Q39.514,128.085,38.365,127.138Z" transform="translate(-36.412 -127.138)"/>
                    </g>
                    <g transform="translate(6.204 183.286)">
                        <path class="c" d="M34.3,121.151l-2.786,1.285a55.139,55.139,0,0,0,10.647,15.507l2.2-2.143A52.027,52.027,0,0,1,34.3,121.151Z" transform="translate(-31.515 -121.151)"/>
                    </g>
                    <g transform="translate(2.941 174.903)">
                        <path class="c" d="M33.417,118.464l-2.948.849q.431,1.507.93,2.973l2.9-.992Q33.83,119.9,33.417,118.464Z" transform="translate(-30.469 -118.464)"/>
                    </g>
                    <g transform="translate(0 150.977)">
                        <path class="c" d="M29.55,110.794q-.033,1.488-.022,2.945h0a86.6,86.6,0,0,0,1.485,15.735l3.01-.58a83.1,83.1,0,0,1-1.416-14.316h0q-.028-1.834.009-3.722l-3.067-.062Z"
                              transform="translate(-29.526 -110.794)"/>
                    </g>
                    <g transform="translate(1.041 141.59)">
                        <path class="c" d="M30.652,107.785q-.412,1.483-.792,2.995l2.976.749c.246-.986.505-1.956.771-2.92Z" transform="translate(-29.86 -107.785)"/>
                    </g>
                    <g transform="translate(3.655 118.555)">
                        <path class="c" d="M38.2,100.4a98.083,98.083,0,0,0-5.668,12.041q-.973,2.475-1.837,5.051l2.907.98c.306-.911.624-1.812.948-2.7v0h0A96.434,96.434,0,0,1,40.883,101.9Z"
                              transform="translate(-30.698 -100.401)"/>
                    </g>
                    <g transform="translate(57.751 124.089)">
                        <path class="c"
                              d="M50.213,102.175l-2.174,2.165.24.24h0a37.728,37.728,0,0,0,7.256,5.724h0c.187.109.374.215.558.318l.006,0h0a24.891,24.891,0,0,0,4.5,1.984h0l0,0a20.893,20.893,0,0,0,4.177.892l.324-3.051a17.583,17.583,0,0,1-3.375-.705h0a25.939,25.939,0,0,1-8.984-5.231l0,0,0,0Q51.475,103.442,50.213,102.175Z"
                              transform="translate(-48.039 -102.175)"/>
                    </g>
                    <g transform="translate(80.393 131.217)">
                        <path class="c" d="M57.958,104.46a19.5,19.5,0,0,1-2.661.811l.677,2.992a22.361,22.361,0,0,0,3.141-.961l.034-.012-.034.012-1.154-2.842Z" transform="translate(-55.297 -104.46)"/>
                    </g>
                    <g transform="translate(88.22 113.729)">
                        <path class="c"
                              d="M67.093,98.854l-3.051.312a18.109,18.109,0,0,1-2.58,11.611,37.613,37.613,0,0,1-3.656,2.833l1.716,2.542a40.5,40.5,0,0,0,4.137-3.223l.006-.006a1.533,1.533,0,0,0,.284-.334,21.078,21.078,0,0,0,3.145-13.735Z"
                              transform="translate(-57.806 -98.854)"/>
                    </g>
                    <g transform="translate(52.408 116.765)">
                        <path class="c" d="M48.99,99.827l-2.664,1.522q.777,1.352,1.6,2.673l.009.012,2.6-1.622-.009-.016C50,101.552,49.486,100.694,48.99,99.827Z" transform="translate(-46.326 -99.827)"/>
                    </g>
                    <g transform="translate(14.387 110.638)">
                        <path class="c" d="M35.885,97.863q-.894,1.268-1.747,2.58l2.571,1.675q.824-1.263,1.685-2.489Z" transform="translate(-34.138 -97.863)"/>
                    </g>
                    <g transform="translate(43.576 94.366)">
                        <path class="c" d="M46.493,92.647l-3,.655a83.275,83.275,0,0,0,5.946,17.713l2.776-1.3A80.271,80.271,0,0,1,46.493,92.647Z" transform="translate(-43.495 -92.647)"/>
                    </g>
                    <g transform="translate(92.126 104.433)">
                        <path class="c" d="M61.869,95.874,59.058,97.1q.608,1.4,1.064,2.748l2.907-.983q-.5-1.474-1.157-2.989Z" transform="translate(-59.058 -95.874)"/>
                    </g>
                    <g transform="translate(19.911 92.572)">
                        <path class="c" d="M49.264,92.072a85.518,85.518,0,0,0-13.355,13.09l2.374,1.943A82.286,82.286,0,0,1,51.16,94.487Z" transform="translate(-35.909 -92.072)"/>
                    </g>
                    <g transform="translate(275.265 87.868)">
                        <path class="c" d="M122.07,90.564q-1.867,8.091-4.3,17.872l2.979.742q2.443-9.813,4.317-17.925Z" transform="translate(-117.765 -90.564)"/>
                    </g>
                    <g transform="translate(77.716 84.649)">
                        <path class="c" d="M56.223,89.532l-1.784,2.5a40.053,40.053,0,0,1,7.437,7.056,68.049,68.049,0,0,1,4.233,6.2l2.633-1.578a70.827,70.827,0,0,0-4.467-6.529l-.041-.05a43.133,43.133,0,0,0-8.008-7.59Z"
                              transform="translate(-54.439 -89.532)"/>
                    </g>
                    <g transform="translate(38.26 87.182)">
                        <path class="c" d="M44.443,90.344q-1.324.833-2.608,1.706l-.044.031.044-.031L43.6,94.559q1.221-.828,2.48-1.619Z" transform="translate(-41.791 -90.344)"/>
                    </g>
                    <g transform="translate(42.035 85.441)">
                        <path class="c" d="M46.046,89.786,43,90.148c.122,1.036.262,2.065.415,3.085l3.032-.455C46.3,91.789,46.167,90.794,46.046,89.786Z" transform="translate(-43.001 -89.786)"/>
                    </g>
                    <g transform="translate(46.287 78.965)">
                        <path class="c"
                              d="M60.367,87.71a33.035,33.035,0,0,0-7.128.8,1.37,1.37,0,0,0-.278.087q-4.469,1.928-8.6,4.171l1.466,2.7q3.94-2.143,8.208-3.987a29.906,29.906,0,0,1,6.326-.7q1.025,0,2.031.078l.237-3.06Q61.509,87.708,60.367,87.71Z"
                              transform="translate(-44.364 -87.71)"/>
                    </g>
                    <g transform="translate(70.033 80.285)">
                        <path class="c" d="M52.849,88.133l-.873,2.942h0a26.073,26.073,0,0,1,2.648,1.011l1.251-2.8a28.952,28.952,0,0,0-3.026-1.151Z" transform="translate(-51.976 -88.133)"/>
                    </g>
                    <g transform="translate(280.92 78.906)">
                        <path class="c" d="M120.233,87.691q-.314,1.455-.655,2.992l3,.661c.225-1.023.446-2.025.658-3Z" transform="translate(-119.578 -87.691)"/>
                    </g>
                    <g transform="translate(70.853 80.269)">
                        <path class="c" d="M52.239,88.128l.022.006-.019-.006Z" transform="translate(-52.239 -88.128)"/>
                    </g>
                    <g transform="translate(41.261 60.822)">
                        <path class="c" d="M43.886,81.894q-.543,2.485-.961,5.063a1.072,1.072,0,0,0-.019.175,123.943,123.943,0,0,0,.066,13.554l3.063-.187a121.28,121.28,0,0,1-.072-13.111q.4-2.461.92-4.835Z"
                              transform="translate(-42.753 -81.894)"/>
                    </g>
                    <g transform="translate(186.339 72.121)">
                        <path class="c"
                              d="M91.362,85.516l-2.1,2.234a13.28,13.28,0,0,0,9.43,3.712c.334,0,.674-.009,1.014-.028a33.011,33.011,0,0,0,8.482-1.195l-.852-2.951a29.832,29.832,0,0,1-7.718,1.076l-.069,0c-.281.019-.555.028-.83.028A10.359,10.359,0,0,1,91.362,85.516Z"
                              transform="translate(-89.259 -85.516)"/>
                    </g>
                    <g transform="translate(209.611 69.909)">
                        <path class="c" d="M98.974,84.807A17.864,17.864,0,0,1,96.719,86.5l1.638,2.592a20.9,20.9,0,0,0,2.648-1.981Z" transform="translate(-96.719 -84.807)"/>
                    </g>
                    <g transform="translate(181.104 64.946)">
                        <path class="c" d="M90.439,83.216l-2.858,1.117a31.06,31.06,0,0,0,1.326,2.945l2.723-1.413A27.6,27.6,0,0,1,90.439,83.216Z" transform="translate(-87.581 -83.216)"/>
                    </g>
                    <g transform="translate(215.466 48.228)">
                        <path class="c"
                              d="M102.489,77.857l-2.811,1.229a18.793,18.793,0,0,1,1.716,9.331,26.084,26.084,0,0,1-2.8,6.773l2.624,1.588A29,29,0,0,0,104.4,89.05a1.545,1.545,0,0,0,.044-.234,21.714,21.714,0,0,0-1.95-10.956Z"
                              transform="translate(-98.596 -77.857)"/>
                    </g>
                    <g transform="translate(177.747 41.091)">
                        <path class="c" d="M87.36,75.569a39.3,39.3,0,0,0-.8,10.192l.006.1a75.148,75.148,0,0,0,1.454,8.607l2.985-.7a72.623,72.623,0,0,1-1.379-8.154,36.084,36.084,0,0,1,.739-9.4Z"
                              transform="translate(-86.505 -75.569)"/>
                    </g>
                    <g transform="translate(43.954 51.791)">
                        <path class="c" d="M44.564,79q-.5,1.474-.948,2.985l2.939.873q.435-1.451.914-2.87Z" transform="translate(-43.616 -78.999)"/>
                    </g>
                    <g transform="translate(284.511 45.692)">
                        <path class="c" d="M123.746,77.044l-3.017.565c.181.961.328,1.934.446,2.923l3.048-.365q-.192-1.582-.477-3.123Z" transform="translate(-120.729 -77.044)"/>
                    </g>
                    <g transform="translate(47.164 29.935)">
                        <path class="c" d="M54.4,71.993a68.177,68.177,0,0,0-9.752,16.019l2.811,1.229a65.065,65.065,0,0,1,9.315-15.3Z" transform="translate(-44.645 -71.993)"/>
                    </g>
                    <g transform="translate(211.96 40.064)">
                        <path class="c" d="M99.9,75.24l-2.427,1.878q.936,1.212,1.738,2.4l2.546-1.713Q100.9,76.535,99.9,75.24Z" transform="translate(-97.472 -75.24)"/>
                    </g>
                    <g transform="translate(273.886 23.387)">
                        <path class="c" d="M119.56,69.894l-2.237,2.1a41.245,41.245,0,0,1,9.131,15.049l2.9-.986a44.209,44.209,0,0,0-9.8-16.159Z" transform="translate(-117.323 -69.894)"/>
                    </g>
                    <g transform="translate(194.216 23.253)">
                        <path class="c" d="M93.559,69.851l-1.775,2.5q3.772,2.672,7.509,5.656,3.538,3.06,6.33,6.005L107.85,81.9q-2.9-3.06-6.57-6.23l-.072-.059q-3.809-3.042-7.649-5.762Z"
                              transform="translate(-91.784 -69.851)"/>
                    </g>
                    <g transform="translate(180.446 32.066)">
                        <path class="c" d="M88.655,72.676q-.693,1.423-1.263,2.867l-.022.053L90.2,76.775l.025-.059q.533-1.357,1.185-2.7Z" transform="translate(-87.37 -72.676)"/>
                    </g>
                    <g transform="translate(184.91 13.14)">
                        <path class="c"
                              d="M102.165,66.609q-1.39.847-2.773,1.769a1.426,1.426,0,0,0-.153.119q-2.578,2.237-4.779,4.558-1.16-.749-2.324-1.469L90.52,74.193q.931.576,1.859,1.173A51.352,51.352,0,0,0,88.8,80.048l2.542,1.719a56.408,56.408,0,0,1,9.817-10.878q1.3-.866,2.6-1.663Z"
                              transform="translate(-88.801 -66.609)"/>
                    </g>
                    <g transform="translate(61.114 23.097)">
                        <path class="c" d="M51.369,69.8q-1.156,1.067-2.252,2.177L51.3,74.134q1.048-1.062,2.152-2.081Z" transform="translate(-49.117 -69.801)"/>
                    </g>
                    <g transform="translate(267.029 17.332)">
                        <path class="c" d="M116.888,67.953l-1.763,2.511q1.207.852,2.424,1.753l1.831-2.461q-1.245-.926-2.493-1.8Z" transform="translate(-115.125 -67.953)"/>
                    </g>
                    <g transform="translate(68.152 9.452)">
                        <path class="c" d="M67.423,65.427a82.3,82.3,0,0,0-16.05,9.605l1.875,2.427A79.49,79.49,0,0,1,68.7,68.216Z" transform="translate(-51.373 -65.427)"/>
                    </g>
                    <g transform="translate(164.948 7.091)">
                        <path class="c" d="M83.484,64.67,82.4,67.54a121.713,121.713,0,0,1,16.452,7.683l1.5-2.68A125.005,125.005,0,0,0,83.484,64.67Z" transform="translate(-82.402 -64.67)"/>
                    </g>
                    <g transform="translate(245.623 6.108)">
                        <path class="c" d="M109.158,64.355l-.9,2.935a71.467,71.467,0,0,1,16.353,7.487l1.6-2.62a74.539,74.539,0,0,0-17.055-7.8Z" transform="translate(-108.263 -64.355)"/>
                    </g>
                    <g transform="translate(203.74 8.75)">
                        <path class="c" d="M97.67,65.2q-1.423.636-2.833,1.345l1.376,2.742Q97.565,68.61,98.921,68Z" transform="translate(-94.837 -65.202)"/>
                    </g>
                    <g transform="translate(89.942 5.952)">
                        <path class="c" d="M61.29,64.3q-1.488.524-2.932,1.082l1.1,2.864q1.4-.543,2.851-1.054Z" transform="translate(-58.358 -64.305)"/>
                    </g>
                    <g transform="translate(212.428 3.575)">
                        <path class="c" d="M115.144,63.543a55.291,55.291,0,0,0-17.522,2.895l.967,2.914a52.2,52.2,0,0,1,16.555-2.739q.505,0,1.011.009l.062-3.066C115.859,63.546,115.5,63.543,115.144,63.543Z"
                              transform="translate(-97.622 -63.543)"/>
                    </g>
                    <g transform="translate(156.341 4.161)">
                        <path class="c" d="M80.485,63.731l-.842,2.948q1.446.416,2.892.87l.923-2.926q-1.483-.468-2.973-.892Z" transform="translate(-79.643 -63.731)"/>
                    </g>
                    <g transform="translate(236.894 4.077)">
                        <path class="c" d="M105.88,63.7l-.415,3.042c.98.134,1.959.293,2.942.484l.58-3.013q-1.554-.3-3.107-.512Z" transform="translate(-105.465 -63.704)"/>
                    </g>
                    <g transform="translate(98.783 0.487)">
                        <path class="c" d="M79.551,62.553q-4.862.459-9.774,1.341l-.066.012q-4.4.987-8.519,2.2l.864,2.942q4-1.175,8.282-2.14,4.773-.856,9.5-1.3Z" transform="translate(-61.192 -62.553)"/>
                    </g>
                    <g transform="translate(132.527 0.115)">
                        <path class="c" d="M72.156,62.434,72.009,65.5a103.938,103.938,0,0,1,17.956,2.433l.674-2.992a106.957,106.957,0,0,0-18.483-2.5Z" transform="translate(-72.009 -62.434)"/>
                    </g>
                    <g transform="translate(123.349)">
                        <path class="c" d="M72.168,62.4c-1.029.009-2.065.034-3.1.075l.1,3.066h.016c1.008-.041,2.012-.062,3.013-.075Z" transform="translate(-69.067 -62.397)"/>
                    </g>
                </g>
                <g transform="translate(0 189.035)">
                    <path class="d"
                          d="M20.591,124.507h0a29.525,29.525,0,0,0-3.01.742c-4.82,1.541-6.875,3.144-6.186,4.748q.173,1.432,3.79,3.887l5.066,3.02,7.016,4.19h.009l.58.352q4.918,3.439,5.244,4.177,1,.711,2.5,4.292l1.329,7.715q1.137,2.517,1.968,2.748c.066.159.474.384,1.223.677.278-.115.477-.181.6-.225.883-.334,1.744-.64,2.589-.886q1.072-.314,2.106-.524c.125-.025.25-.047.374-.075.056-.012.125-.031.209-.05a32,32,0,0,1,3.335-.387,50.547,50.547,0,0,1,7.789.228c-4.186,1.223-7.293,2.224-9.312,3.026-.54.212-1.011.415-1.426.59,7.5,1.582,11.58,2.839,12.519,3.263a27.262,27.262,0,0,1,7.761,5.032c1.7,1.61,3.862,4.823,6.32,9.88a45.286,45.286,0,0,1,2.5,6.754c2.78,9.362,4.077,14.256,4.314,14.562a39.765,39.765,0,0,0,2.483,5.412,31.935,31.935,0,0,0,11.667,11.1c5.727,3,10.135,4.23,13.267,3.587a6.153,6.153,0,0,0,4.82-4.383c.9-2.745.917-6.529.246-11.249a204.881,204.881,0,0,0-5.334-24.585l-1.167-4.477c-10.75-17.644-18.318-28.407-22.118-32.818-6-6.966-12.066-12.4-18.752-15.891a54.862,54.862,0,0,0-21.247-5.709h0c.19.571.418,1.238.652,2.015a77.749,77.749,0,0,1,2.056,10.319,94.805,94.805,0,0,0-10.6-12.575c-.377,0-.761.006-1.148.022a90.465,90.465,0,0,0-14.035,1.491h0Z"
                          transform="translate(-11.268 -122.994)"/>
                    <g transform="translate(12.42 43.735)">
                        <path class="e"
                              d="M20.154,146.666h0c-.661.459-1.27.9-1.791,1.341-2.77,2.386-3.684,4.03-2.773,4.9.343.605,1.55,1.107,3.616,1.516l4.221.583,5.849.8,0,0v0l.487.069q4.239.9,4.664,1.3a8.319,8.319,0,0,1,2.876,2.149l3.06,4.754c.976.9,1.672,1.329,2.081,1.273a1.965,1.965,0,0,0,1.008.1c.15-.153.265-.253.334-.315.493-.471.98-.917,1.472-1.32q.622-.51,1.251-.942c.078-.053.156-.1.231-.156.034-.025.072-.056.125-.09a21.811,21.811,0,0,1,2.106-1.2,37,37,0,0,1,5.244-2.043q-3.655,2.99-5.338,4.639c-.3.293-.555.558-.78.792a64.428,64.428,0,0,1,9.243-1.36,19.779,19.779,0,0,1,6.582,1.157c1.585.59,3.928,2.118,6.988,4.788a32.454,32.454,0,0,1,3.563,3.787c4.489,5.444,6.732,8.329,6.975,8.466a28.055,28.055,0,0,0,3.179,2.9,23.072,23.072,0,0,0,10.89,4.093c4.654.384,7.93-.044,9.833-1.357a4.432,4.432,0,0,0,1.968-4.271c-.175-2.081-1.232-4.6-3.007-7.549a148.077,148.077,0,0,0-10.479-14.846l-2.04-2.645c-12.126-8.7-20.193-13.726-23.961-15.588-5.958-2.939-11.524-4.842-16.955-5.278a39.59,39.59,0,0,0-15.738,2.2h0c.287.324.627.7,1,1.154a56.024,56.024,0,0,1,4.277,6.283,68.451,68.451,0,0,0-10.594-5.372c-.253.109-.505.218-.758.34a65.176,65.176,0,0,0-8.913,4.948Z"
                              transform="translate(-15.25 -137.014)"/>
                    </g>
                    <g transform="translate(72.826 0.815)">
                        <path class="e"
                              d="M41.775,125.292h0a18.867,18.867,0,0,0-1.806-.945c-3.054-1.335-4.767-1.438-5.125-.346q-.538.781.181,3.569l1.189,3.7,1.644,5.122,0,0h0l.134.427a16.822,16.822,0,0,1,.771,4.346,7.566,7.566,0,0,1-.63,3.213l-2.7,4.386c-.359,1.16-.434,1.9-.225,2.215-.037.109.069.4.309.867.187.066.315.119.393.15.583.221,1.139.443,1.666.689.443.209.867.43,1.27.658.072.044.143.087.215.128.034.019.078.037.125.065A20.427,20.427,0,0,1,41,154.8a33.542,33.542,0,0,1,3.747,3.5c-2.6-1.217-4.57-2.075-5.915-2.558-.359-.131-.683-.237-.961-.331a58.779,58.779,0,0,1,4.764,7.063,17.955,17.955,0,0,1,1.641,5.865,23.729,23.729,0,0,1-1.179,7.63,29.589,29.589,0,0,1-1.706,4.424c-2.7,5.834-4.19,8.819-4.208,9.072a26.337,26.337,0,0,0-1.129,3.753,21.049,21.049,0,0,0,.93,10.566c1.525,3.974,3.166,6.5,4.994,7.546a4.049,4.049,0,0,0,4.289-.069,17.155,17.155,0,0,0,5.016-5.447,134.866,134.866,0,0,0,8.07-14.468l1.369-2.72c2.371-13.4,3.319-22.005,3.36-25.839.069-6.055-.562-11.377-2.346-16.013a36.08,36.08,0,0,0-8.008-12.069h0c-.156.365-.331.792-.555,1.279a51.292,51.292,0,0,1-3.475,5.993,62.572,62.572,0,0,0,.237-10.825c-.19-.165-.381-.331-.577-.49a58.99,58.99,0,0,0-7.584-5.372Z"
                              transform="translate(-34.613 -123.255)"/>
                    </g>
                </g>
                <g transform="translate(303.65 151.322)">
                    <path class="f"
                          d="M132.429,117.909l.621,1.482a13.331,13.331,0,0,1-.109,8.991,12.708,12.708,0,0,1-6.117,7.041,11.418,11.418,0,0,1-9.452.886c-2.661-.955-4.09-1.943-4.433-2.508a11.732,11.732,0,0,1-2.358-2.8,13.058,13.058,0,0,1-1.41-10.694,12.691,12.691,0,0,1,6.782-8.1,11.876,11.876,0,0,1,9.711-.477A12.437,12.437,0,0,1,132.429,117.909Z"
                          transform="translate(-108.606 -110.905)"/>
                    <g transform="translate(8.697 9.692)">
                        <path class="d" d="M123.207,117.273a6.909,6.909,0,0,1-2.237,8.738,5.986,5.986,0,0,1-8.679-1.862,6.851,6.851,0,0,1,2.53-9.3A5.983,5.983,0,0,1,123.207,117.273Z"
                              transform="translate(-111.394 -114.011)"/>
                    </g>
                    <g transform="translate(5.74 3.981)">
                        <path class="d"
                              d="M116.02,126.687h0l-5.281-9.387-.034-.065h0a2.092,2.092,0,0,1,.047-2.128l-.028.047a6.985,6.985,0,0,1,3.173-2.327l.009-.006a4.408,4.408,0,0,1,3.382-.465l.05.022v0a2.548,2.548,0,0,1,1.136,1.164l-.006-.009,2.508,4.951a.724.724,0,0,1-.271.951.657.657,0,0,1-.914-.29v0l-2.555-4.982-.006-.009a1.069,1.069,0,0,0-.477-.484l.053.025a3.259,3.259,0,0,0-2.24.48l.006-.006a5.908,5.908,0,0,0-2.493,1.741l-.028.047h0c-.1.147-.075.377.066.689l-.031-.062,5.178,9.331a.759.759,0,0,1-.275,1A.687.687,0,0,1,116.02,126.687Z"
                              transform="translate(-110.446 -112.181)"/>
                    </g>
                    <g transform="translate(11.874 12.189)">
                        <path class="g"
                              d="M113.88,115.121h0l-.137.075v0a2.711,2.711,0,0,0-1.288,1.8l0,.022a2.662,2.662,0,0,0-.037.521v.016l.012.218,0,.019a3.167,3.167,0,0,0,.1.49,2.937,2.937,0,0,0,.172.446,2.392,2.392,0,0,0,.234.39l.009.016.115.14.012.016a1.716,1.716,0,0,0,.315.275l.016.012.134.084.019.009a2.06,2.06,0,0,0,.349.156v0a4.146,4.146,0,0,0,.973.172h0l.917,2.96a.326.326,0,0,0,.206.221.356.356,0,0,0,.306-.034l.006,0,2.658-1.7a.4.4,0,0,0,.181-.275.4.4,0,0,0-.087-.312l-2-2.246h0a5.888,5.888,0,0,0,.256-.839l.006-.028a2.325,2.325,0,0,0,0-1.02h0a2.684,2.684,0,0,0-1.441-1.719l-.022-.009a2.144,2.144,0,0,0-1.981.122Z"
                              transform="translate(-112.413 -114.812)"/>
                    </g>
                </g>
                <g transform="translate(315.421 95.423)">
                    <path class="h"
                          d="M119.927,93.052h0a1.614,1.614,0,0,0-1.235.134,1.674,1.674,0,0,0-.8.976l-5.437,17.463a1.729,1.729,0,0,0,.1,1.285,1.641,1.641,0,0,0,.955.827l26.058,8.292a1.673,1.673,0,0,0,2.124-1.148l5.2-18.068a1.706,1.706,0,0,0-1.16-2.1l-13.058-3.878-12.746-3.781Z"
                          transform="translate(-112.38 -92.986)"/>
                </g>
                <g transform="translate(321.418 95.423)">
                    <path class="c"
                          d="M115.852,93.052h0a1.614,1.614,0,0,0-1.235.134,1.517,1.517,0,0,0-.315.225l4.47,6.738,5.759,8.685a1.07,1.07,0,0,0,.577.434,1.052,1.052,0,0,0,.764-.056l16.633-7.933h0a1.691,1.691,0,0,0-.849-.568L128.6,96.833l-12.746-3.781Z"
                          transform="translate(-114.302 -92.986)"/>
                </g>
                <g transform="translate(89.906 51.56)">
                    <g transform="translate(0 13.009)">
                        <path class="c"
                              d="M77.446,83.178a7.115,7.115,0,0,0-5.188,1.22,6.805,6.805,0,0,0-2.8,4.439L40.177,266.645a6.649,6.649,0,0,0,1.232,5.054,6.96,6.96,0,0,0,4.542,2.714l146.756,22.511a6.978,6.978,0,0,0,7.986-5.659l29.283-177.808a6.792,6.792,0,0,0-5.774-7.768L150.824,94.434Z"
                              transform="translate(-40.089 -83.095)"/>
                    </g>
                    <g transform="translate(28.619)">
                        <path class="c"
                              d="M60.144,79a6.6,6.6,0,0,0-4.823,1.136,6.313,6.313,0,0,0-2.6,4.124L49.344,104.77a6.193,6.193,0,0,0,1.145,4.7,6.494,6.494,0,0,0,4.221,2.524L201.469,134.5a6.482,6.482,0,0,0,7.421-5.26l3.378-20.5a6.314,6.314,0,0,0-5.369-7.222L133.522,90.258Z"
                              transform="translate(-49.263 -78.925)"/>
                    </g>
                    <g transform="translate(28.217)">
                        <path class="i"
                              d="M60.417,79a6.6,6.6,0,0,0-4.823,1.136A6.313,6.313,0,0,0,53,84.262L51.177,95.287a6.627,6.627,0,0,0-.889,2.39L49.134,104.7,209.65,129.315,210.8,122.3a6.582,6.582,0,0,0-.072-2.536l1.809-11.024a6.314,6.314,0,0,0-5.369-7.222L133.8,90.258Z"
                              transform="translate(-49.134 -78.925)"/>
                    </g>
                    <g transform="translate(107.597 95.657)">
                        <path class="j" d="M76.046,110.79l-1.466-1.2Z" transform="translate(-74.58 -109.589)"/>
                    </g>
                    <g transform="translate(120.269 30.29)">
                        <path class="j" d="M78.642,88.635l1.379.209Z" transform="translate(-78.642 -88.635)"/>
                    </g>
                    <g transform="translate(41.835 11.495)">
                        <path class="g" d="M61.438,87.162a3.993,3.993,0,1,1-3.347-4.5A3.968,3.968,0,0,1,61.438,87.162Z" transform="translate(-53.499 -82.61)"/>
                    </g>
                    <g transform="translate(45.425 15.388)">
                        <path class="g" d="M54.65,83.858l.365.056Z" transform="translate(-54.65 -83.858)"/>
                    </g>
                    <g transform="translate(58.094 13.962)">
                        <path class="g" d="M66.649,87.953a3.993,3.993,0,1,1-3.347-4.5A3.965,3.965,0,0,1,66.649,87.953Z" transform="translate(-58.711 -83.401)"/>
                    </g>
                    <g transform="translate(73.346 16.304)">
                        <path class="g" d="M71.542,88.7a3.994,3.994,0,1,1-3.35-4.5A3.972,3.972,0,0,1,71.542,88.7Z" transform="translate(-63.6 -84.152)"/>
                    </g>
                    <g transform="translate(26.89 51.309)">
                        <g transform="translate(45.143)">
                            <path class="g" d="M124.037,127.973c-2.333,15.223-17.785,25.487-34.508,22.922s-28.388-16.986-26.051-32.209S81.262,93.2,97.986,95.766,126.374,112.752,124.037,127.973Z"
                                  transform="translate(-63.18 -95.373)"/>
                        </g>
                        <g transform="translate(5.803 61.481)">
                            <path class="g" d="M57.773,115.156h0L173.7,132.937a6.06,6.06,0,0,1,5.153,6.932,6.224,6.224,0,0,1-7.125,5.047h0L55.8,127.135a6.064,6.064,0,0,1-5.153-6.932A6.226,6.226,0,0,1,57.773,115.156Z"
                                  transform="translate(-50.569 -115.081)"/>
                        </g>
                        <g transform="translate(92.024 92.633)">
                            <path class="h" d="M80.542,125.091h0l28.7,4.4a1.967,1.967,0,0,1,1.672,2.249,2.019,2.019,0,0,1-2.312,1.635v0l-28.7-4.4a1.965,1.965,0,0,1-1.669-2.249A2.014,2.014,0,0,1,80.542,125.091Z"
                                  transform="translate(-78.208 -125.067)"/>
                        </g>
                        <g transform="translate(0 96.722)">
                            <path class="g" d="M55.913,126.453h0l115.925,17.781a6.058,6.058,0,0,1,5.15,6.932,6.221,6.221,0,0,1-7.122,5.047h0L53.939,138.432a6.06,6.06,0,0,1-5.15-6.932A6.224,6.224,0,0,1,55.913,126.453Z"
                                  transform="translate(-48.708 -126.378)"/>
                        </g>
                        <g transform="translate(86.219 127.875)">
                            <path class="g" d="M78.684,136.388h0l28.7,4.4a1.965,1.965,0,0,1,1.669,2.249,2.018,2.018,0,0,1-2.308,1.638h0l-28.7-4.4a1.968,1.968,0,0,1-1.672-2.249A2.02,2.02,0,0,1,78.684,136.388Z"
                                  transform="translate(-76.347 -136.364)"/>
                        </g>
                        <g transform="translate(62.716 137.954)">
                            <path class="i" d="M76.014,139.669h0l48.135,7.356a6.064,6.064,0,0,1,5.157,6.932,6.224,6.224,0,0,1-7.122,5.05h0l-48.138-7.359a6.06,6.06,0,0,1-5.153-6.928A6.224,6.224,0,0,1,76.014,139.669Z"
                                  transform="translate(-68.813 -139.595)"/>
                        </g>
                    </g>
                    <g transform="translate(73.95 80.833)">
                        <path class="i"
                              d="M63.794,113.594c8.541-4.38,17.086-8.757,22.348-8.757a7.293,7.293,0,0,1,1.61.162c5,1.123,5.512,8.229,11.081,9.577a11.785,11.785,0,0,0,2.73.271c2.957,0,6.52-.655,9.642-.655,2.989,0,5.568.6,6.819,2.951,3,5.631-1.628,21.306-10.6,25.437a13.77,13.77,0,0,1-5.83,1.192c-8.251,0-18.047-5.821-24.442-11.224C69.16,125.794,66.477,119.692,63.794,113.594Z"
                              transform="translate(-63.794 -104.837)"/>
                    </g>
                    <g transform="translate(98.116 53.203)">
                        <path class="k"
                              d="M72.184,124.178c2.945-1.99,5.89-3.984,5.135-5.362s-5.216-2.14-5.144-6.932,4.664-13.607,10.3-15.5a7.954,7.954,0,0,1,2.533-.406c4.935,0,9.848,4.292,10.241,8.551.462,4.988-5.3,9.93-7.147,14.721s.206,9.427,2.262,14.066c-5.3,1.856-10.6,3.709-14.11,3.709a5.59,5.59,0,0,1-2.5-.48C70.724,135.024,71.454,129.6,72.184,124.178Z"
                              transform="translate(-71.541 -95.98)"/>
                    </g>
                    <g transform="translate(98.95 46.191)">
                        <path d="M91.058,103.468c2.524.605,5.044,1.21,6.4,3.232s1.529,5.459.568,8.788-3.06,6.554-6.1,8.092a9.592,9.592,0,0,1-4.2,1.026c-1.731,0-3.191-.577-3.653-1.784-.824-2.152,1.519-6.311,3.862-10.472-1.625-.062-3.251-.125-5.715-.318s-5.759-.521-7.843-2.655-2.957-6.077-2.386-9.187a7.427,7.427,0,0,1,5.727-6.152,11.414,11.414,0,0,1,2.7-.306,12.445,12.445,0,0,1,7.134,2.084C89.957,97.641,90.506,100.554,91.058,103.468Z"
                              transform="translate(-71.808 -93.732)"/>
                    </g>
                </g>
                <g transform="translate(268.412 21.883)">
                    <path class="d"
                          d="M110.892,69.584h0a1.447,1.447,0,0,0-.752,1.525,14.578,14.578,0,0,1-1.111,8.523h0a14.452,14.452,0,0,1-6.595,6.963,19.558,19.558,0,0,1-1.8.839h0a18.006,18.006,0,0,1-2.162.59,1.49,1.49,0,0,0-.39.14,1.461,1.461,0,0,0-.755,1.054h0a1.457,1.457,0,0,0,.143.9q6.715,13.079,22.4,19.41h0q1.956,1.048,10.185,2.221h0l.094.009h0c.533.044,1.064.075,1.6.1a1.455,1.455,0,0,0,1.27-.649,41.035,41.035,0,0,0,3.257-5.908l0-.006Q142.9,90.425,137.4,74.45l-.047-.122-1.769-3.946h0a1.452,1.452,0,0,0-1.394-.861,1.457,1.457,0,0,0-.951.412h0a14.285,14.285,0,0,1-1.566,1.282,1.933,1.933,0,0,0-.209.181v0a7.319,7.319,0,0,1-.955.565c-.605.321-1.429.724-2.464,1.2h0a16.937,16.937,0,0,1-2.533.658,1.443,1.443,0,0,0-.253.069h0a18.317,18.317,0,0,1-3.562.122h0a15,15,0,0,1-4.829-1.26h0a17.279,17.279,0,0,1-4.289-2.939,1.45,1.45,0,0,0-1.688-.231h0Z"
                          transform="translate(-97.31 -69.412)"/>
                    <g transform="translate(17.827 9.448)">
                        <path class="g" d="M106.494,87.285h0l7.543,4.477-3.46,1.791,1.529-19a2.3,2.3,0,0,1,4.579.368v0l-1.532,19a2.294,2.294,0,0,1-3.46,1.791h0l-7.546-4.477a2.3,2.3,0,1,1,2.346-3.949Z"
                              transform="translate(-103.025 -72.441)"/>
                    </g>
                </g>
                <g transform="translate(80.691 223.235)">
                    <path class="d"
                          d="M51.856,175.871c-4.1-3.16-8.192-6.317-11.3-10.719s-5.222-10.039-1.267-10.494a5.076,5.076,0,0,1,.593-.031c3.154,0,8.972,2.259,12.438,2.259,1.242,0,2.181-.29,2.592-1.073,1.635-3.12-5.129-14.088-4.773-18.8.168-2.224,1.922-3.054,4.009-3.054a10.759,10.759,0,0,1,6.51,2.324c2.692,2.433.608,5.759,1.008,9.83.387,3.937,3.1,8.573,7.814,8.573.162,0,.324,0,.487-.016,5.019-.331,12.166-5.812,15.167-6.108a2.341,2.341,0,0,1,.25-.012c2.68,0,1.563,4.742.446,9.483a74.275,74.275,0,0,1,9.674-1.057,7.981,7.981,0,0,1,3.073.452c2.174.976,1.245,3.719.315,6.457,2.2-.122,4.4-.246,6.33-.246,3,0,5.372.3,6.127,1.36,1.238,1.744-1.887,5.547-5.016,9.352Z"
                          transform="translate(-37.135 -133.957)"/>
                    <g transform="translate(4.006 14.384)">
                        <path class="e"
                              d="M55.286,138.568q-.908.187-1.223,1.7L51.718,151.91a8.954,8.954,0,0,1-2.206,3.665,1.826,1.826,0,0,1-1.154.508,2.475,2.475,0,0,1-1.095-.218,23.346,23.346,0,0,1-3.806-2.284,6.285,6.285,0,0,0-1.94-.789l-.031,0a4.16,4.16,0,0,0-.618-.012,1.907,1.907,0,0,0-1.728.983,7.364,7.364,0,0,0-.721,2.374,56.2,56.2,0,0,0,9.692,9.168l1.023.789,54.48-1.522a41.18,41.18,0,0,0,4.608-6.248q1.32-2.321.094-3.428h0l-.271.075-2.792,1.27a17.086,17.086,0,0,1-2.446.693q.454.061-7.612,1.067l-3.9.983c-.321.05-.605.081-.842.094a2.388,2.388,0,0,1-.752-.044q-1.825-.585-1.394-2.137a5.5,5.5,0,0,1,.749-1.507,25.551,25.551,0,0,0,2.546-3.634,1.041,1.041,0,0,0,.016-1.017l-.449-.34a1.208,1.208,0,0,0-.593-.1,2.454,2.454,0,0,0-.786.2l-6.367,3.272a10.587,10.587,0,0,1-2.776.817l-.59-.072a2.45,2.45,0,0,1-1.014-.68l-2.62-3.665a3.012,3.012,0,0,0-1.061-.777l-.7-.14a2.523,2.523,0,0,0-.412-.012,6.919,6.919,0,0,0-2.452.78q-1.217.655-3.952,2.552a10.678,10.678,0,0,1-1.566.827,5.787,5.787,0,0,1-1.672.39,2.761,2.761,0,0,1-1.16-.159q-1.675-.3-3.366-3.163-1.348-2.513-3.017-10.26A2.06,2.06,0,0,0,55.286,138.568Z"
                              transform="translate(-38.419 -138.568)"/>
                    </g>
                </g>
                <g transform="translate(39.243 255.422)">
                    <path class="l"
                          d="M251.375,169.294c-5.681-2.143-11.361-4.286-42.151-10.042-30.547-5.709-85.812-14.977-124.694-14.977-.309,0-.615,0-.92,0-38.926.15-60.875,9.814-59.717,19.566s25.421,19.588,56.32,23.4a320.462,320.462,0,0,0,38.642,2.068c20.461,0,41.141-1.345,58.635-2.7,23.865-1.844,41.8-3.7,64.718-3.7,4.792,0,9.8.081,15.133.259,25.677.864,58.741,4.009,69.488,4.009,2.146,0,3.4-.125,3.534-.421C331.139,185,291.255,177.149,251.375,169.294Z"
                          transform="translate(-23.848 -144.275)"/>
                </g>
                <g transform="translate(74.955 255.422)">
                    <path class="b"
                          d="M60.265,144.275l-10.294.234q-7.931.4-14.674,1.267,1.287,2.817,5.855,5.3,3.1,2.2,13.526,4.38a111.345,111.345,0,0,0,13.445,1.354q-1.329.239,32.618.508,4.5.084,9.212.278,9.419.365,19.659,1.482,10.295,1.142,21.163,3.372,2.925.459,15.354,3.672,4.787,1.329,8.757,2.7,12.569,4.272,11.723,7.425.473.576-4.168,2.714l-9.708,3.3a22.961,22.961,0,0,0-4.049,1.853,4.782,4.782,0,0,0-1.635,1.394l13.707-1.067-13.717,1.067h.009q-1.015,1.516.624,3.416-.145.674,6.5,4.311a63.318,63.318,0,0,0,7.038,2.786,106.584,106.584,0,0,0,18.518,4.255,126.02,126.02,0,0,0,17.507,1.173q6.1,0,12.534-.524a88.369,88.369,0,0,0,15.985-2.645q4.675-1.39,4.954-2.96,1.067-.454-3.665-2.929-.95-.655-21.481-7.175-3.107-1.086-6.008-2.3h.009c-.537,0-1.07-.006-1.6-.006h.009c.524,0,1.048,0,1.575,0-.639-.268-1.276-.54-1.9-.82q-2.363-.669-9.552-5.64-6.294-4.193-11.1-14.908h.012q-2.358-.463-4.863-.93-34.983-6.734-66.412-11-22.877-3.149-44.859-4.633Q70.032,144.292,60.265,144.275Z"
                          transform="translate(-35.296 -144.275)"/>
                </g>
                <g transform="translate(224.724 113.623)">
                    <g transform="translate(0 172.77)">
                        <path class="k"
                              d="M92.715,154.2a30.569,30.569,0,0,1-4.651,5.216c-1.323.955-2.3.739-3.038,1.566s-1.229,2.7-1.719,4.576l.811.811a8.626,8.626,0,0,1,2.234-1.781.089.089,0,0,1,.081.037,7.326,7.326,0,0,0,1.257,4.723c1.744,2.889,5.843,7.187,6.8,7.187a.233.233,0,0,0,.1-.019c.736-.346-2.14-5.556-1.875-9.48s3.678-6.567,7.085-9.209Z"
                              transform="translate(-83.306 -154.203)"/>
                    </g>
                    <g transform="translate(0 177.227)">
                        <path d="M88.968,155.632a5.242,5.242,0,0,1-.568.493,5.173,5.173,0,0,1-.97.655,16.873,16.873,0,0,1-1.806.717,1.958,1.958,0,0,0-.6.459q-.763.721-1.719,4.576l.811.811q2.073-1.961,2.29-1.781l.016.025.025,1.341a6.139,6.139,0,0,0,.306,1.426,10.7,10.7,0,0,0,1.276,2.508,32.775,32.775,0,0,0,3.725,4.52c.54.543,1.011.983,1.4,1.316.721.611,1.2.877,1.426.792l.112-.184a2.451,2.451,0,0,0-.134-.892l-1.323-4.28c-.072-.275-.14-.552-.2-.83l-.012-.009a.582.582,0,0,1-.424.312,1.262,1.262,0,0,1-.693-.343,6.293,6.293,0,0,1-1.123-1.4,16.624,16.624,0,0,1-2.171-5.84,5.6,5.6,0,0,1-.1-1.494,14.948,14.948,0,0,1,.4-2.1,4.5,4.5,0,0,0,.062-.549.7.7,0,0,0,0-.24Z"
                              transform="translate(-83.306 -155.632)"/>
                    </g>
                    <g transform="translate(38.894 175.855)">
                        <path class="k"
                              d="M97.253,157a30.762,30.762,0,0,1-.175,6.988c-.39,1.585-1.279,2.053-1.3,3.16s.811,2.854,1.647,4.6l1.145.094c.172-1.416.34-2.833.618-2.833l.022,0a7.286,7.286,0,0,0,4.012,2.792,31.265,31.265,0,0,0,8.245,1.326c.92,0,1.547-.1,1.647-.318.337-.742-5.222-2.854-7.559-6.021s-1.444-7.384-.555-11.6Z"
                              transform="translate(-95.774 -155.192)"/>
                    </g>
                    <g transform="translate(38.887 183.492)">
                        <path d="M97.283,157.64a5.415,5.415,0,0,1-.112.746,5.661,5.661,0,0,1-.318,1.126,16.909,16.909,0,0,1-.914,1.713,2,2,0,0,0-.159.739q-.117,1.043,1.647,4.6l1.145.094c.209-1.89.406-2.839.6-2.839l.025.006.886,1.011a6.247,6.247,0,0,0,1.157.889,10.78,10.78,0,0,0,2.6,1.086,33.183,33.183,0,0,0,5.765,1.039q1.146.094,1.922.094c.948,0,1.479-.106,1.6-.315l-.031-.215a2.517,2.517,0,0,0-.677-.593l-3.778-2.408c-.234-.162-.465-.331-.693-.5h-.016a.579.579,0,0,1-.122.515,1.287,1.287,0,0,1-.749.184,6.28,6.28,0,0,1-1.766-.34,16.606,16.606,0,0,1-5.431-3.048,5.683,5.683,0,0,1-1.042-1.079,15.071,15.071,0,0,1-1.048-1.859,4.9,4.9,0,0,0-.309-.462.743.743,0,0,0-.156-.181Z"
                              transform="translate(-95.772 -157.64)"/>
                    </g>
                    <g transform="translate(23.926 69.996)">
                        <path class="m"
                              d="M106.075,231.534l9.225.184c2.324-16.911,4.648-33.825,4.979-53.781s-1.326-42.959-8.226-51.99a10.955,10.955,0,0,0-8.763-4.689c-5.54,0-10.928,4.555-12.073,11.589-1.784,10.99,6.794,28.026,11,45.48S106.247,213.659,106.075,231.534Z"
                              transform="translate(-90.976 -121.258)"/>
                    </g>
                    <g transform="translate(38.352 176.385)">
                        <path class="n"
                              d="M96.289,155.362c-.683,1.912-1.363,3.821.624,4.76a11.282,11.282,0,0,0,4.342.7,11.919,11.919,0,0,0,4.258-.639c1.956-.849,1.21-2.508.462-4.168a3.388,3.388,0,0,1-2.324,1.469,11.858,11.858,0,0,1-2.293.2,10.849,10.849,0,0,1-2.833-.324A3.36,3.36,0,0,1,96.289,155.362Z"
                              transform="translate(-95.6 -155.362)"/>
                    </g>
                    <g transform="translate(23.93 69.956)">
                        <path class="o"
                              d="M102.95,121.245a15.607,15.607,0,0,0-3.725.861,12.465,12.465,0,0,0-4.667,3.419q-2.288,3.121-2.436,4.049a15.7,15.7,0,0,0-.908,3.3l-.237,2.873.14,3.1a50.455,50.455,0,0,0,1.22,6.822q.889,3.608,2.131,7.521,4.7,14.071,6.61,20.81l1.132,4.352q1.048,4.366,1.756,8.763a161.739,161.739,0,0,1,1.816,17.685q.477,11.45.349,22.963l-.044-.09-.168.477a9.3,9.3,0,0,0-.49,1.841,3.111,3.111,0,0,0-.006.833l.09.384a1.829,1.829,0,0,0,.415.68l.34.29a3.652,3.652,0,0,0,1,.471,11.333,11.333,0,0,0,2.583.443c-.031-.412-.059-.836-.084-1.27q-.094-.8.1-6.08,1.5-18.633,1.66-29.951.248-10.674-.7-36.449a71.711,71.711,0,0,1,.484-10.054q.613-5.344,3.513-5.746a1.267,1.267,0,0,1,.53-.1,7.022,7.022,0,0,1,3.079,1.173,57.375,57.375,0,0,0-4.77-16.1q-3.411-6.785-10.379-7.228A1.1,1.1,0,0,0,102.95,121.245Z"
                              transform="translate(-90.977 -121.245)"/>
                    </g>
                    <g transform="translate(23.93 69.956)">
                        <path d="M102.95,121.245a15.607,15.607,0,0,0-3.725.861,12.465,12.465,0,0,0-4.667,3.419q-2.288,3.121-2.436,4.049a15.7,15.7,0,0,0-.908,3.3l-.237,2.873.14,3.1a50.455,50.455,0,0,0,1.22,6.822q.889,3.608,2.131,7.521,4.7,14.071,6.61,20.81l1.132,4.352q1.048,4.366,1.756,8.763a161.739,161.739,0,0,1,1.816,17.685q.477,11.45.349,22.963l-.044-.09-.168.477a9.3,9.3,0,0,0-.49,1.841,3.111,3.111,0,0,0-.006.833l.09.384a1.829,1.829,0,0,0,.415.68l.34.29a3.652,3.652,0,0,0,1,.471,11.859,11.859,0,0,0,2.957.462c.287.012.568.019.845.019a16.619,16.619,0,0,0,2.371-.162,7.816,7.816,0,0,0,1.875-.477l.434-.228.331-.262a1.5,1.5,0,0,0,.39-.6l.078-.337a2.4,2.4,0,0,0-.031-.727,8.581,8.581,0,0,0-.73-1.993l-.016,0q3.706-26.934,4.186-40.645.491-9.532.309-19.893-.454-12.8-.842-15.148-1.32-15.184-5.756-24.148-3.411-6.785-10.379-7.228A1.1,1.1,0,0,0,102.95,121.245Z"
                              transform="translate(-90.977 -121.245)"/>
                    </g>
                    <g transform="translate(7.724 75.094)">
                        <path d="M92.224,227.465l-6.442-6.092c14.228-15.76,28.456-31.523,28.806-43.839s-13.18-21.194-17.207-32.921c-3.382-9.855-.053-21.721,7.262-21.721a9.261,9.261,0,0,1,4.586,1.379c10.394,5.965,25.7,32.471,23.69,53.095S111.565,212.729,92.224,227.465Z"
                              transform="translate(-85.782 -122.892)"/>
                    </g>
                    <g transform="translate(6.138 172.43)">
                        <path d="M88.036,154.094c-1.625.964-3.254,1.928-2.624,3.641s3.522,4.165,5.425,4.735a2.956,2.956,0,0,0,.858.134c1.338,0,2.1-1.1,2.864-2.209a9.568,9.568,0,0,1-2.995-1.463,15.587,15.587,0,0,1-3.01-3.063A2.194,2.194,0,0,1,88.036,154.094Z"
                              transform="translate(-85.274 -154.094)"/>
                    </g>
                    <g transform="translate(6.139 172.604)">
                        <path class="o"
                              d="M87.742,154.15l-.112.069a5.086,5.086,0,0,0-2.177,1.906,1.749,1.749,0,0,0-.178.693l.028.384.109.412a4.362,4.362,0,0,0,.49.908c.134.181.271.356.415.527a22.233,22.233,0,0,1,2.128-2.38l.016-.019.009,0-.009,0,.016,0-1.616-1.532c.3-.324.6-.646.9-.97Z"
                              transform="translate(-85.274 -154.15)"/>
                    </g>
                    <g transform="translate(9.334 175.103)">
                        <path class="o" d="M86.3,154.951l.006,0v0Z" transform="translate(-86.298 -154.951)"/>
                    </g>
                    <g transform="translate(8.644 75.062)">
                        <path class="o"
                              d="M103.908,122.882a5.77,5.77,0,0,0-3.2.955l-1.385,1.086a10.963,10.963,0,0,0-2.174,3.166,20.606,20.606,0,0,0-1.713,8.994,24.719,24.719,0,0,0,2.514,10.429,42.8,42.8,0,0,0,3.244,5.484q6.939,9.176,9.362,13.155a27.461,27.461,0,0,1,2.536,5.5l.686,2.889.187,3.013-.368,3.148-.9,3.282a57.078,57.078,0,0,1-7.93,14.2Q96.615,209,86.077,220.405l.24-.147.016,0a1.97,1.97,0,0,0,.262,1.351,4.606,4.606,0,0,0,.611.883q23.869-22.849,25.92-25.88,7.7-9.26,8.413-14.8a17.012,17.012,0,0,0,.334-4.448l-.284-2.268a25.643,25.643,0,0,0-1.341-4.57,47.488,47.488,0,0,0-3.31-6.723q-8.114-12.826-7.849-13l.025,0q-1.886-4.216-.811-6.292,1.034-3.406,11.661-3.4,1.39,0,2.945.056c-.119-.215-.24-.427-.362-.639q-5.522-9.49-11.258-14.337Q107.143,122.88,103.908,122.882Z"
                              transform="translate(-86.077 -122.882)"/>
                    </g>
                    <g transform="translate(36.381 31.564)">
                        <path class="k"
                              d="M111.186,143.15l3.494-2.542c-4.246-2.118-8.491-4.236-8.86-8.2s3.138-9.758,1.338-15.364c-1.32-4.108-5.487-8.111-8.544-8.111a2.908,2.908,0,0,0-2.708,1.784c-2.349,4.689.059,19.475,3.4,26.563,2.4,5.091,5.275,6.208,8.289,6.208A25.73,25.73,0,0,0,111.186,143.15Z"
                              transform="translate(-94.968 -108.938)"/>
                    </g>
                    <g transform="translate(36.38 31.564)">
                        <path class="d"
                              d="M98.524,108.938a2.491,2.491,0,0,0-1.672.58,3.49,3.49,0,0,0-.945,1.2l-.493,1.373-.3,1.731-.134,2.028c-.006.19-.006.381-.009.574l.016,0a27.559,27.559,0,0,0,4.795,7.531q2.452,2.536,4.492,2.739a4.854,4.854,0,0,0,.78.059,7.208,7.208,0,0,0,1.656-.209h.016l.586-2.542a20.732,20.732,0,0,0,.349-2.751,12.671,12.671,0,0,0-.156-2.8l-.343-1.4a11.631,11.631,0,0,0-.88-2.028,14.447,14.447,0,0,0-1.965-2.77,12.055,12.055,0,0,0-3.26-2.624A6.078,6.078,0,0,0,98.524,108.938Z"
                              transform="translate(-94.968 -108.938)"/>
                    </g>
                    <g transform="translate(37.094 41.019)">
                        <path class="o"
                              d="M103.323,111.969q-1.544,0-4.695,3.266l-.742.693q-1.539,1.245-2.689,2.218h.016q.51,3.135,1.338,6.236a47.663,47.663,0,0,0,1.457,4.558l.814,1.922a16.311,16.311,0,0,0,1.881,3.116,8.271,8.271,0,0,0,2.736,2.3,7.245,7.245,0,0,0,3.694.789,21.579,21.579,0,0,0,3.569-.343l.914-.668-.016,0h-.25a9.424,9.424,0,0,1-1.984-.2,13.47,13.47,0,0,1-3.669-1.157,3.936,3.936,0,0,1-1.628-1.669,8.388,8.388,0,0,1-.761-4.121q-.019-.772.221-3.357.875-7.15,1.176-10.21a5.176,5.176,0,0,0-.49-2.967A1.1,1.1,0,0,0,103.323,111.969Z"
                              transform="translate(-95.197 -111.969)"/>
                    </g>
                    <g transform="translate(53.5 65.108)">
                        <path class="o" d="M100.472,119.691h-.016l.012,0Z" transform="translate(-100.456 -119.691)"/>
                    </g>
                    <g transform="translate(13.87 30.706)">
                        <path class="d"
                              d="M90.846,149.217l-.109,17.526c1.575,1.968,3.154,3.937,7.293,3.937.443,0,.917-.022,1.423-.069,5.222-.493,13.926-3.659,18.5-6.323s5.01-4.823,5.45-6.985c-3.335-4.062-6.67-8.126-5.862-17.232s5.756-23.25.6-28.7c-1.756-1.862-4.692-2.708-8.045-2.708-6.467,0-14.481,3.151-18.586,8.261C85.278,124.682,88.063,136.948,90.846,149.217Z"
                              transform="translate(-87.752 -108.663)"/>
                    </g>
                    <g transform="translate(48.338 58.875)">
                        <path d="M111.609,118.049a.3.3,0,0,0-.165-.3.7.7,0,0,0-.459-.028l-10.688,2.43a.887.887,0,0,0-.384.206.62.62,0,0,0-.2.337l-.908,5.687c-.041.253.162.421.452.377l10.946-1.594a.84.84,0,0,0,.742-.621l.337-3.3Z"
                              transform="translate(-98.801 -117.693)"/>
                    </g>
                    <g transform="translate(48.893 59.368)">
                        <path class="g" d="M110.609,117.851l-.331,3.173-.343,3.282-10.956,1.656.9-5.724Z" transform="translate(-98.979 -117.851)"/>
                    </g>
                    <g transform="translate(12.274 35.332)">
                        <path class="k"
                              d="M126.473,139.991a27.557,27.557,0,0,1,5.715-2.14,2.275,2.275,0,0,1,.281-.019c.942,0,1.036.646.627,1.089a5.48,5.48,0,0,1-2.521.948c.231.886.465,1.769.031,2.3s-1.538.7-2.639.867c-8.638,5.356-17.279,10.712-24.382,10.712a11.283,11.283,0,0,1-5.375-1.27c-7.83-4.152-12.522-19.251-10.5-29.626,1.488-7.63,6.607-12.7,9.892-12.7a2.619,2.619,0,0,1,2.58,2.09c1.713,5.412-3.606,21.893-.393,28.363,1.3,2.624,4,3.6,7.54,3.6C112.514,144.2,119.492,142.1,126.473,139.991Z"
                              transform="translate(-87.24 -110.146)"/>
                    </g>
                    <g transform="translate(33.732 73.84)">
                        <path class="p" d="M95.036,122.565a4.216,4.216,0,0,0-.459-.069l-.065,0-.125,0h-.268Z" transform="translate(-94.119 -122.49)"/>
                    </g>
                    <g transform="translate(12.266 35.329)">
                        <path class="d"
                              d="M97.52,110.145a3.976,3.976,0,0,0-1.685.415,11.117,11.117,0,0,0-3.85,3.079,18.339,18.339,0,0,0-1.775,2.527l-.783,1.482a23.689,23.689,0,0,0-2.181,10.712c.006.384.016.767.034,1.154l.016,0a33.341,33.341,0,0,0,4.751.9c.586.05,1.142.075,1.663.075A9.3,9.3,0,0,0,96.952,130a8.419,8.419,0,0,0,1.769-.858l.353-.25.016,0,.006-.075,1.3-10.781a24.977,24.977,0,0,0,.081-4.233,4.27,4.27,0,0,0-1.307-3.157A2.953,2.953,0,0,0,97.52,110.145Z"
                              transform="translate(-87.238 -110.145)"/>
                    </g>
                    <g transform="translate(12.31 54.701)">
                        <path class="o"
                              d="M87.252,116.355a36.572,36.572,0,0,0,.518,4.7,38.9,38.9,0,0,0,1.472,5.777l1.048,2.72a22.353,22.353,0,0,0,6.005,8.5,10.6,10.6,0,0,0,7.191,2.521A22.151,22.151,0,0,0,111.12,139a50.545,50.545,0,0,0,6.136-2.817q3.121-1.6,10.688-6.308a5.305,5.305,0,0,0,2.517-.742,1.276,1.276,0,0,0,.356-.808h.016l-.016,0-.009,0-2.137-.109a8.335,8.335,0,0,0-1.95.324,13.533,13.533,0,0,0-2.177.833,100.872,100.872,0,0,1-8.962,4.667,23.144,23.144,0,0,1-5.787,1.691,16.807,16.807,0,0,1-2.642.212,14.042,14.042,0,0,1-8.092-2.505,20.255,20.255,0,0,1-7.506-13.261q-.22-1.4-.318-3.013l.016,0a37.593,37.593,0,0,1-3.984-.808Z"
                              transform="translate(-87.252 -116.355)"/>
                    </g>
                    <g transform="translate(29.052 15.632)">
                        <path class="k"
                              d="M92.619,119.943a16.249,16.249,0,0,0,3.937,4.458,4.442,4.442,0,0,0,2.324.739,2.4,2.4,0,0,0,1.8-.721c.955-1.014,1.151-3.148,1.351-5.278A4.717,4.717,0,0,1,100.4,117.3a4.49,4.49,0,0,1,.175-2.411c.349.459.7.92,1.263.92.446,0,1.026-.29,1.847-1.1,1.853-1.825,4.932-6.3,3.235-8.75-.958-1.388-3.444-2.128-5.89-2.128a7.982,7.982,0,0,0-4.87,1.36c-2.592,2.121-1.3,6.794-1.242,9.68A5.79,5.79,0,0,1,92.619,119.943Z"
                              transform="translate(-92.619 -103.831)"/>
                    </g>
                    <g transform="translate(29.052 21.831)">
                        <path class="o"
                              d="M94.559,105.818c0,.193.006.4.009.618l.346,4.224-.012.686a6.977,6.977,0,0,1-.159,1.17,5.837,5.837,0,0,1-2.124,3.216l.306.44c.193.281.384.549.568.8a2.464,2.464,0,0,0,.331-.287,5.3,5.3,0,0,0,1.029-1.7A7.742,7.742,0,0,0,95.2,113.8l.353-1.975a4.519,4.519,0,0,1,.175-.633,1.308,1.308,0,0,1,.649-.792,1.579,1.579,0,0,1,.758-.144,5.6,5.6,0,0,1,.761.062,18.93,18.93,0,0,1,2.583.7c.025-.1.053-.212.081-.324l.025,0-.016-.025h0a17.378,17.378,0,0,1-4.268-2.533,8.639,8.639,0,0,1-1.725-2.327Z"
                              transform="translate(-92.619 -105.818)"/>
                    </g>
                    <g transform="translate(23.02)">
                        <path d="M104.782,98.82a15.649,15.649,0,0,0-2.458.193q-8.226,1.123-10.847,8.2-1.764,5.564.406,9.745a9.113,9.113,0,0,0,1.245,1.731,12.063,12.063,0,0,0,2.489,2.043,37.8,37.8,0,0,0,6.261,2.939l.143-.484a21.234,21.234,0,0,1,1.578-4.249,4.171,4.171,0,0,1,2.071-1.894l.68-.284a9.081,9.081,0,0,0,3.637,1.535,12.329,12.329,0,0,0,1.853.15,9.034,9.034,0,0,0,1.107-.065,6.676,6.676,0,0,0,2.308-.68,4.861,4.861,0,0,0,1.906-1.741,5.029,5.029,0,0,0,.649-1.4h.013l-.013,0q-.08-.061-.159-.112a4.126,4.126,0,0,0-.992-.443,5.91,5.91,0,0,0-1.641-.2c-.162,0-.331.006-.505.016l-.106,0q1.352-.37,2.081-.5a7.713,7.713,0,0,1,1.438-.14h.159a15.2,15.2,0,0,0,.025-2.988,21.119,21.119,0,0,0-.783-3.475,12.017,12.017,0,0,0-5.157-2.876l-.016-.006.019.006c.652.053,1.3.106,1.925.2a9.8,9.8,0,0,1,2.184.527c-.1-.178-.215-.356-.328-.527a11.064,11.064,0,0,0-1.772-2.09,10.779,10.779,0,0,0-3.528-2.118A18.539,18.539,0,0,0,104.782,98.82Z"
                              transform="translate(-90.685 -98.82)"/>
                    </g>
                    <g transform="translate(44.491 5.016)">
                        <path class="g" d="M97.568,100.428l.028.006c.643.053,1.288.106,1.915.2-.63-.09-1.279-.147-1.928-.2Z" transform="translate(-97.568 -100.428)"/>
                    </g>
                </g>
            </g>
        </g>
    </g>
</svg>
