<svg width="839" height="55" viewBox="0 0 839 55" fill="none" xmlns="http://www.w3.org/2000/svg">
<rect x="0.248047" width="836" height="55" rx="4" fill="#F2F4FF"/>
<path d="M0.248047 4C0.248047 1.79086 2.03891 0 4.24805 0H256.211C257.491 0 258.693 0.612336 259.446 1.64731L276.537 25.1473C277.557 26.5499 277.557 28.4501 276.537 29.8527L259.446 53.3527C258.693 54.3877 257.491 55 256.211 55H4.24805C2.03891 55 0.248047 53.2091 0.248047 51V4Z" fill="#2699FB"/>
<circle cx="34.248" cy="27" r="18" fill="#F2F4FF"/>
<path d="M28.248 27.5L32.248 31.5L36.248 27.5L40.748 23" stroke="#2699FB" stroke-width="2"/>
<path d="M72.04 22.084C71.424 22.084 70.872 21.984 70.384 21.784C69.896 21.584 69.504 21.288 69.208 20.896C68.92 20.504 68.768 20.032 68.752 19.48H70.936C70.968 19.792 71.076 20.032 71.26 20.2C71.444 20.36 71.684 20.44 71.98 20.44C72.284 20.44 72.524 20.372 72.7 20.236C72.876 20.092 72.964 19.896 72.964 19.648C72.964 19.44 72.892 19.268 72.748 19.132C72.612 18.996 72.44 18.884 72.232 18.796C72.032 18.708 71.744 18.608 71.368 18.496C70.824 18.328 70.38 18.16 70.036 17.992C69.692 17.824 69.396 17.576 69.148 17.248C68.9 16.92 68.776 16.492 68.776 15.964C68.776 15.18 69.06 14.568 69.628 14.128C70.196 13.68 70.936 13.456 71.848 13.456C72.776 13.456 73.524 13.68 74.092 14.128C74.66 14.568 74.964 15.184 75.004 15.976H72.784C72.768 15.704 72.668 15.492 72.484 15.34C72.3 15.18 72.064 15.1 71.776 15.1C71.528 15.1 71.328 15.168 71.176 15.304C71.024 15.432 70.948 15.62 70.948 15.868C70.948 16.14 71.076 16.352 71.332 16.504C71.588 16.656 71.988 16.82 72.532 16.996C73.076 17.18 73.516 17.356 73.852 17.524C74.196 17.692 74.492 17.936 74.74 18.256C74.988 18.576 75.112 18.988 75.112 19.492C75.112 19.972 74.988 20.408 74.74 20.8C74.5 21.192 74.148 21.504 73.684 21.736C73.22 21.968 72.672 22.084 72.04 22.084ZM82.4349 13.576V15.22H80.2029V22H78.1509V15.22H75.9189V13.576H82.4349ZM85.5167 15.22V16.924H88.2647V18.508H85.5167V20.356H88.6247V22H83.4647V13.576H88.6247V15.22H85.5167ZM96.3769 16.288C96.3769 16.776 96.2649 17.224 96.0409 17.632C95.8169 18.032 95.4729 18.356 95.0089 18.604C94.5449 18.852 93.9689 18.976 93.2809 18.976H92.0089V22H89.9569V13.576H93.2809C93.9529 13.576 94.5209 13.692 94.9849 13.924C95.4489 14.156 95.7969 14.476 96.0289 14.884C96.2609 15.292 96.3769 15.76 96.3769 16.288ZM93.1249 17.344C93.5169 17.344 93.8089 17.252 94.0009 17.068C94.1929 16.884 94.2889 16.624 94.2889 16.288C94.2889 15.952 94.1929 15.692 94.0009 15.508C93.8089 15.324 93.5169 15.232 93.1249 15.232H92.0089V17.344H93.1249ZM99.5681 15.148V13.24H102.892V22H100.756V15.148H99.5681Z" fill="white"/>
<path d="M76.094 38.83H71.838L71.054 41H69.71L73.238 31.298H74.708L78.222 41H76.878L76.094 38.83ZM75.73 37.794L73.966 32.866L72.202 37.794H75.73ZM81.0336 34.742C81.2856 34.3033 81.659 33.9393 82.1536 33.65C82.6576 33.3513 83.241 33.202 83.9036 33.202C84.585 33.202 85.201 33.3653 85.7516 33.692C86.3116 34.0187 86.7503 34.4807 87.0676 35.078C87.385 35.666 87.5436 36.352 87.5436 37.136C87.5436 37.9107 87.385 38.6013 87.0676 39.208C86.7503 39.8147 86.3116 40.286 85.7516 40.622C85.201 40.958 84.585 41.126 83.9036 41.126C83.2503 41.126 82.6716 40.9813 82.1676 40.692C81.673 40.3933 81.295 40.0247 81.0336 39.586V44.64H79.7596V33.328H81.0336V34.742ZM86.2416 37.136C86.2416 36.5573 86.125 36.0533 85.8916 35.624C85.6583 35.1947 85.341 34.868 84.9396 34.644C84.5476 34.42 84.1136 34.308 83.6376 34.308C83.171 34.308 82.737 34.4247 82.3356 34.658C81.9436 34.882 81.6263 35.2133 81.3836 35.652C81.1503 36.0813 81.0336 36.5807 81.0336 37.15C81.0336 37.7287 81.1503 38.2373 81.3836 38.676C81.6263 39.1053 81.9436 39.4367 82.3356 39.67C82.737 39.894 83.171 40.006 83.6376 40.006C84.1136 40.006 84.5476 39.894 84.9396 39.67C85.341 39.4367 85.6583 39.1053 85.8916 38.676C86.125 38.2373 86.2416 37.724 86.2416 37.136ZM90.4946 34.742C90.7466 34.3033 91.1199 33.9393 91.6146 33.65C92.1186 33.3513 92.7019 33.202 93.3646 33.202C94.0459 33.202 94.6619 33.3653 95.2126 33.692C95.7726 34.0187 96.2112 34.4807 96.5286 35.078C96.8459 35.666 97.0046 36.352 97.0046 37.136C97.0046 37.9107 96.8459 38.6013 96.5286 39.208C96.2112 39.8147 95.7726 40.286 95.2126 40.622C94.6619 40.958 94.0459 41.126 93.3646 41.126C92.7112 41.126 92.1326 40.9813 91.6286 40.692C91.1339 40.3933 90.7559 40.0247 90.4946 39.586V44.64H89.2206V33.328H90.4946V34.742ZM95.7026 37.136C95.7026 36.5573 95.5859 36.0533 95.3526 35.624C95.1192 35.1947 94.8019 34.868 94.4006 34.644C94.0086 34.42 93.5746 34.308 93.0986 34.308C92.6319 34.308 92.1979 34.4247 91.7966 34.658C91.4046 34.882 91.0872 35.2133 90.8446 35.652C90.6112 36.0813 90.4946 36.5807 90.4946 37.15C90.4946 37.7287 90.6112 38.2373 90.8446 38.676C91.0872 39.1053 91.4046 39.4367 91.7966 39.67C92.1979 39.894 92.6319 40.006 93.0986 40.006C93.5746 40.006 94.0086 39.894 94.4006 39.67C94.8019 39.4367 95.1192 39.1053 95.3526 38.676C95.5859 38.2373 95.7026 37.724 95.7026 37.136ZM103.688 31.242V41H102.414V31.242H103.688ZM109.597 33.188C110.531 33.188 111.287 33.4727 111.865 34.042C112.444 34.602 112.733 35.414 112.733 36.478V41H111.473V36.66C111.473 35.8947 111.282 35.3113 110.899 34.91C110.517 34.4993 109.994 34.294 109.331 34.294C108.659 34.294 108.123 34.504 107.721 34.924C107.329 35.344 107.133 35.9553 107.133 36.758V41H105.859V33.328H107.133V34.42C107.385 34.028 107.726 33.7247 108.155 33.51C108.594 33.2953 109.075 33.188 109.597 33.188ZM117.53 41.126C116.942 41.126 116.415 41.028 115.948 40.832C115.482 40.6267 115.113 40.3467 114.842 39.992C114.572 39.628 114.422 39.2127 114.394 38.746H115.71C115.748 39.1287 115.925 39.4413 116.242 39.684C116.569 39.9267 116.994 40.048 117.516 40.048C118.002 40.048 118.384 39.9407 118.664 39.726C118.944 39.5113 119.084 39.2407 119.084 38.914C119.084 38.578 118.935 38.3307 118.636 38.172C118.338 38.004 117.876 37.8407 117.25 37.682C116.681 37.5327 116.214 37.3833 115.85 37.234C115.496 37.0753 115.188 36.8467 114.926 36.548C114.674 36.24 114.548 35.8387 114.548 35.344C114.548 34.952 114.665 34.5927 114.898 34.266C115.132 33.9393 115.463 33.6827 115.892 33.496C116.322 33.3 116.812 33.202 117.362 33.202C118.212 33.202 118.898 33.4167 119.42 33.846C119.943 34.2753 120.223 34.8633 120.26 35.61H118.986C118.958 35.2087 118.795 34.8867 118.496 34.644C118.207 34.4013 117.815 34.28 117.32 34.28C116.863 34.28 116.499 34.378 116.228 34.574C115.958 34.77 115.822 35.0267 115.822 35.344C115.822 35.596 115.902 35.806 116.06 35.974C116.228 36.1327 116.434 36.2633 116.676 36.366C116.928 36.4593 117.274 36.5667 117.712 36.688C118.263 36.8373 118.711 36.9867 119.056 37.136C119.402 37.276 119.696 37.4907 119.938 37.78C120.19 38.0693 120.321 38.4473 120.33 38.914C120.33 39.334 120.214 39.712 119.98 40.048C119.747 40.384 119.416 40.65 118.986 40.846C118.566 41.0327 118.081 41.126 117.53 41.126ZM123.683 34.378V38.9C123.683 39.2733 123.762 39.5393 123.921 39.698C124.079 39.8473 124.355 39.922 124.747 39.922H125.685V41H124.537C123.827 41 123.295 40.8367 122.941 40.51C122.586 40.1833 122.409 39.6467 122.409 38.9V34.378H121.415V33.328H122.409V31.396H123.683V33.328H125.685V34.378H123.683ZM126.752 37.136C126.752 36.352 126.911 35.666 127.228 35.078C127.546 34.4807 127.98 34.0187 128.53 33.692C129.09 33.3653 129.711 33.202 130.392 33.202C131.064 33.202 131.648 33.3467 132.142 33.636C132.637 33.9253 133.006 34.2893 133.248 34.728V33.328H134.536V41H133.248V39.572C132.996 40.02 132.618 40.3933 132.114 40.692C131.62 40.9813 131.041 41.126 130.378 41.126C129.697 41.126 129.081 40.958 128.53 40.622C127.98 40.286 127.546 39.8147 127.228 39.208C126.911 38.6013 126.752 37.9107 126.752 37.136ZM133.248 37.15C133.248 36.5713 133.132 36.0673 132.898 35.638C132.665 35.2087 132.348 34.882 131.946 34.658C131.554 34.4247 131.12 34.308 130.644 34.308C130.168 34.308 129.734 34.42 129.342 34.644C128.95 34.868 128.638 35.1947 128.404 35.624C128.171 36.0533 128.054 36.5573 128.054 37.136C128.054 37.724 128.171 38.2373 128.404 38.676C128.638 39.1053 128.95 39.4367 129.342 39.67C129.734 39.894 130.168 40.006 130.644 40.006C131.12 40.006 131.554 39.894 131.946 39.67C132.348 39.4367 132.665 39.1053 132.898 38.676C133.132 38.2373 133.248 37.7287 133.248 37.15ZM137.963 30.64V41H136.689V30.64H137.963ZM141.409 30.64V41H140.135V30.64H141.409Z" fill="white"/>
<path d="M260.248 0H536.211C537.491 0 538.693 0.612336 539.446 1.64731L556.537 25.1473C557.557 26.5499 557.557 28.4501 556.537 29.8527L539.446 53.3527C538.693 54.3877 537.491 55 536.211 55H260.248L278.537 29.8527C279.557 28.4501 279.557 26.5499 278.537 25.1473L260.248 0Z" fill="#2699FB"/>
<circle cx="314.248" cy="27" r="18" fill="#F2F4FF"/>
<path d="M308.248 27.5L312.248 31.5L316.248 27.5L320.748 23" stroke="#2699FB" stroke-width="2"/>
<path d="M352.04 22.084C351.424 22.084 350.872 21.984 350.384 21.784C349.896 21.584 349.504 21.288 349.208 20.896C348.92 20.504 348.768 20.032 348.752 19.48H350.936C350.968 19.792 351.076 20.032 351.26 20.2C351.444 20.36 351.684 20.44 351.98 20.44C352.284 20.44 352.524 20.372 352.7 20.236C352.876 20.092 352.964 19.896 352.964 19.648C352.964 19.44 352.892 19.268 352.748 19.132C352.612 18.996 352.44 18.884 352.232 18.796C352.032 18.708 351.744 18.608 351.368 18.496C350.824 18.328 350.38 18.16 350.036 17.992C349.692 17.824 349.396 17.576 349.148 17.248C348.9 16.92 348.776 16.492 348.776 15.964C348.776 15.18 349.06 14.568 349.628 14.128C350.196 13.68 350.936 13.456 351.848 13.456C352.776 13.456 353.524 13.68 354.092 14.128C354.66 14.568 354.964 15.184 355.004 15.976H352.784C352.768 15.704 352.668 15.492 352.484 15.34C352.3 15.18 352.064 15.1 351.776 15.1C351.528 15.1 351.328 15.168 351.176 15.304C351.024 15.432 350.948 15.62 350.948 15.868C350.948 16.14 351.076 16.352 351.332 16.504C351.588 16.656 351.988 16.82 352.532 16.996C353.076 17.18 353.516 17.356 353.852 17.524C354.196 17.692 354.492 17.936 354.74 18.256C354.988 18.576 355.112 18.988 355.112 19.492C355.112 19.972 354.988 20.408 354.74 20.8C354.5 21.192 354.148 21.504 353.684 21.736C353.22 21.968 352.672 22.084 352.04 22.084ZM362.435 13.576V15.22H360.203V22H358.151V15.22H355.919V13.576H362.435ZM365.517 15.22V16.924H368.265V18.508H365.517V20.356H368.625V22H363.465V13.576H368.625V15.22H365.517ZM376.377 16.288C376.377 16.776 376.265 17.224 376.041 17.632C375.817 18.032 375.473 18.356 375.009 18.604C374.545 18.852 373.969 18.976 373.281 18.976H372.009V22H369.957V13.576H373.281C373.953 13.576 374.521 13.692 374.985 13.924C375.449 14.156 375.797 14.476 376.029 14.884C376.261 15.292 376.377 15.76 376.377 16.288ZM373.125 17.344C373.517 17.344 373.809 17.252 374.001 17.068C374.193 16.884 374.289 16.624 374.289 16.288C374.289 15.952 374.193 15.692 374.001 15.508C373.809 15.324 373.517 15.232 373.125 15.232H372.009V17.344H373.125ZM379.712 20.356C379.984 20.14 380.108 20.04 380.084 20.056C380.868 19.408 381.484 18.876 381.932 18.46C382.388 18.044 382.772 17.608 383.084 17.152C383.396 16.696 383.552 16.252 383.552 15.82C383.552 15.492 383.476 15.236 383.324 15.052C383.172 14.868 382.944 14.776 382.64 14.776C382.336 14.776 382.096 14.892 381.92 15.124C381.752 15.348 381.668 15.668 381.668 16.084H379.688C379.704 15.404 379.848 14.836 380.12 14.38C380.4 13.924 380.764 13.588 381.212 13.372C381.668 13.156 382.172 13.048 382.724 13.048C383.676 13.048 384.392 13.292 384.872 13.78C385.36 14.268 385.604 14.904 385.604 15.688C385.604 16.544 385.312 17.34 384.728 18.076C384.144 18.804 383.4 19.516 382.496 20.212H385.736V21.88H379.712V20.356Z" fill="white"/>
<path d="M353.42 41.098C352.776 41.098 352.197 40.986 351.684 40.762C351.18 40.5287 350.783 40.2113 350.494 39.81C350.205 39.3993 350.055 38.928 350.046 38.396H351.404C351.451 38.8533 351.637 39.2407 351.964 39.558C352.3 39.866 352.785 40.02 353.42 40.02C354.027 40.02 354.503 39.8707 354.848 39.572C355.203 39.264 355.38 38.872 355.38 38.396C355.38 38.0227 355.277 37.7193 355.072 37.486C354.867 37.2527 354.61 37.0753 354.302 36.954C353.994 36.8327 353.579 36.702 353.056 36.562C352.412 36.394 351.894 36.226 351.502 36.058C351.119 35.89 350.788 35.6287 350.508 35.274C350.237 34.91 350.102 34.4247 350.102 33.818C350.102 33.286 350.237 32.8147 350.508 32.404C350.779 31.9933 351.157 31.676 351.642 31.452C352.137 31.228 352.701 31.116 353.336 31.116C354.251 31.116 354.997 31.3447 355.576 31.802C356.164 32.2593 356.495 32.866 356.57 33.622H355.17C355.123 33.2487 354.927 32.922 354.582 32.642C354.237 32.3527 353.779 32.208 353.21 32.208C352.678 32.208 352.244 32.348 351.908 32.628C351.572 32.8987 351.404 33.2813 351.404 33.776C351.404 34.1307 351.502 34.42 351.698 34.644C351.903 34.868 352.151 35.0407 352.44 35.162C352.739 35.274 353.154 35.4047 353.686 35.554C354.33 35.7313 354.848 35.9087 355.24 36.086C355.632 36.254 355.968 36.52 356.248 36.884C356.528 37.2387 356.668 37.724 356.668 38.34C356.668 38.816 356.542 39.264 356.29 39.684C356.038 40.104 355.665 40.4447 355.17 40.706C354.675 40.9673 354.092 41.098 353.42 41.098ZM365.543 36.87C365.543 37.1127 365.529 37.3693 365.501 37.64H359.369C359.416 38.396 359.672 38.9887 360.139 39.418C360.615 39.838 361.189 40.048 361.861 40.048C362.412 40.048 362.869 39.922 363.233 39.67C363.606 39.4087 363.868 39.0633 364.017 38.634H365.389C365.184 39.3713 364.773 39.9733 364.157 40.44C363.541 40.8973 362.776 41.126 361.861 41.126C361.133 41.126 360.48 40.9627 359.901 40.636C359.332 40.3093 358.884 39.8473 358.557 39.25C358.23 38.6433 358.067 37.9433 358.067 37.15C358.067 36.3567 358.226 35.6613 358.543 35.064C358.86 34.4667 359.304 34.0093 359.873 33.692C360.452 33.3653 361.114 33.202 361.861 33.202C362.589 33.202 363.233 33.3607 363.793 33.678C364.353 33.9953 364.782 34.434 365.081 34.994C365.389 35.5447 365.543 36.17 365.543 36.87ZM364.227 36.604C364.227 36.1187 364.12 35.7033 363.905 35.358C363.69 35.0033 363.396 34.7373 363.023 34.56C362.659 34.3733 362.253 34.28 361.805 34.28C361.161 34.28 360.61 34.4853 360.153 34.896C359.705 35.3067 359.448 35.876 359.383 36.604H364.227ZM368.778 34.378V38.9C368.778 39.2733 368.858 39.5393 369.016 39.698C369.175 39.8473 369.45 39.922 369.842 39.922H370.78V41H369.632C368.923 41 368.391 40.8367 368.036 40.51C367.682 40.1833 367.504 39.6467 367.504 38.9V34.378H366.51V33.328H367.504V31.396H368.778V33.328H370.78V34.378H368.778ZM382.861 33.328V41H381.587V39.866C381.344 40.258 381.003 40.566 380.565 40.79C380.135 41.0047 379.659 41.112 379.137 41.112C378.539 41.112 378.003 40.9907 377.527 40.748C377.051 40.496 376.673 40.1227 376.393 39.628C376.122 39.1333 375.987 38.5313 375.987 37.822V33.328H377.247V37.654C377.247 38.41 377.438 38.9933 377.821 39.404C378.203 39.8053 378.726 40.006 379.389 40.006C380.07 40.006 380.607 39.796 380.999 39.376C381.391 38.956 381.587 38.3447 381.587 37.542V33.328H382.861ZM386.286 34.742C386.538 34.3033 386.911 33.9393 387.406 33.65C387.91 33.3513 388.493 33.202 389.156 33.202C389.837 33.202 390.453 33.3653 391.004 33.692C391.564 34.0187 392.002 34.4807 392.32 35.078C392.637 35.666 392.796 36.352 392.796 37.136C392.796 37.9107 392.637 38.6013 392.32 39.208C392.002 39.8147 391.564 40.286 391.004 40.622C390.453 40.958 389.837 41.126 389.156 41.126C388.502 41.126 387.924 40.9813 387.42 40.692C386.925 40.3933 386.547 40.0247 386.286 39.586V44.64H385.012V33.328H386.286V34.742ZM391.494 37.136C391.494 36.5573 391.377 36.0533 391.144 35.624C390.91 35.1947 390.593 34.868 390.192 34.644C389.8 34.42 389.366 34.308 388.89 34.308C388.423 34.308 387.989 34.4247 387.588 34.658C387.196 34.882 386.878 35.2133 386.636 35.652C386.402 36.0813 386.286 36.5807 386.286 37.15C386.286 37.7287 386.402 38.2373 386.636 38.676C386.878 39.1053 387.196 39.4367 387.588 39.67C387.989 39.894 388.423 40.006 388.89 40.006C389.366 40.006 389.8 39.894 390.192 39.67C390.593 39.4367 390.91 39.1053 391.144 38.676C391.377 38.2373 391.494 37.724 391.494 37.136ZM403.973 38.83H399.717L398.933 41H397.589L401.117 31.298H402.587L406.101 41H404.757L403.973 38.83ZM403.609 37.794L401.845 32.866L400.081 37.794H403.609ZM408.913 34.742C409.165 34.3033 409.538 33.9393 410.033 33.65C410.537 33.3513 411.12 33.202 411.783 33.202C412.464 33.202 413.08 33.3653 413.631 33.692C414.191 34.0187 414.629 34.4807 414.947 35.078C415.264 35.666 415.423 36.352 415.423 37.136C415.423 37.9107 415.264 38.6013 414.947 39.208C414.629 39.8147 414.191 40.286 413.631 40.622C413.08 40.958 412.464 41.126 411.783 41.126C411.129 41.126 410.551 40.9813 410.047 40.692C409.552 40.3933 409.174 40.0247 408.913 39.586V44.64H407.639V33.328H408.913V34.742ZM414.121 37.136C414.121 36.5573 414.004 36.0533 413.771 35.624C413.537 35.1947 413.22 34.868 412.819 34.644C412.427 34.42 411.993 34.308 411.517 34.308C411.05 34.308 410.616 34.4247 410.215 34.658C409.823 34.882 409.505 35.2133 409.263 35.652C409.029 36.0813 408.913 36.5807 408.913 37.15C408.913 37.7287 409.029 38.2373 409.263 38.676C409.505 39.1053 409.823 39.4367 410.215 39.67C410.616 39.894 411.05 40.006 411.517 40.006C411.993 40.006 412.427 39.894 412.819 39.67C413.22 39.4367 413.537 39.1053 413.771 38.676C414.004 38.2373 414.121 37.724 414.121 37.136ZM418.373 34.742C418.625 34.3033 418.999 33.9393 419.493 33.65C419.997 33.3513 420.581 33.202 421.243 33.202C421.925 33.202 422.541 33.3653 423.091 33.692C423.651 34.0187 424.09 34.4807 424.407 35.078C424.725 35.666 424.883 36.352 424.883 37.136C424.883 37.9107 424.725 38.6013 424.407 39.208C424.09 39.8147 423.651 40.286 423.091 40.622C422.541 40.958 421.925 41.126 421.243 41.126C420.59 41.126 420.011 40.9813 419.507 40.692C419.013 40.3933 418.635 40.0247 418.373 39.586V44.64H417.099V33.328H418.373V34.742ZM423.581 37.136C423.581 36.5573 423.465 36.0533 423.231 35.624C422.998 35.1947 422.681 34.868 422.279 34.644C421.887 34.42 421.453 34.308 420.977 34.308C420.511 34.308 420.077 34.4247 419.675 34.658C419.283 34.882 418.966 35.2133 418.723 35.652C418.49 36.0813 418.373 36.5807 418.373 37.15C418.373 37.7287 418.49 38.2373 418.723 38.676C418.966 39.1053 419.283 39.4367 419.675 39.67C420.077 39.894 420.511 40.006 420.977 40.006C421.453 40.006 421.887 39.894 422.279 39.67C422.681 39.4367 422.998 39.1053 423.231 38.676C423.465 38.2373 423.581 37.724 423.581 37.136Z" fill="white"/>
<circle cx="594.248" cy="27" r="17.5" stroke="black"/>
<g clip-path="url(#clip0)">
<path d="M588.248 16.6078C586.367 17.6937 584.896 19.1611 583.834 21.0099C582.772 22.8587 582.239 24.849 582.234 26.9809C582.229 29.1128 582.77 31.1192 583.855 33.0001C584.941 34.881 586.409 36.3522 588.258 37.4138C590.106 38.4754 592.097 39.0087 594.229 39.0137C596.36 39.0188 598.367 38.4783 600.248 37.3924C602.129 36.3065 603.6 34.8391 604.661 32.9903C605.723 31.1415 606.256 29.1512 606.261 27.0193C606.266 24.8874 605.726 22.881 604.64 21.0001C603.554 19.1192 602.087 17.648 600.238 16.5864C598.389 15.5248 596.399 14.9915 594.267 14.9864C592.135 14.9814 590.129 15.5219 588.248 16.6078ZM591.819 16.7925C592.674 16.5871 593.54 16.4931 594.416 16.5106C595.292 16.528 596.141 16.6468 596.963 16.867C597.785 17.0871 598.579 17.4087 599.347 17.8317C600.114 18.2546 600.817 18.769 601.455 19.3747L597.234 21.8122C596.313 21.2794 595.32 21.0135 594.256 21.0144L591.819 16.7925ZM598.145 24.7501C598.77 25.8326 598.919 26.9735 598.592 28.1727C598.265 29.3718 597.567 30.28 596.498 30.8972C595.794 31.3035 595.045 31.5059 594.25 31.5046C593.456 31.5033 592.709 31.3031 592.009 30.9041C591.31 30.5051 590.757 29.9537 590.351 29.2501C589.733 28.1811 589.586 27.0436 589.91 25.8377C590.233 24.6317 590.929 23.7202 591.998 23.103C592.701 22.6967 593.453 22.4976 594.251 22.5057C595.05 22.5138 595.797 22.714 596.492 23.1062C597.188 23.4985 597.739 24.0464 598.145 24.7501ZM587.757 18.7583C588.151 18.4407 588.565 18.1568 588.998 17.9068C589.431 17.6568 589.883 17.4407 590.355 17.2583L592.652 21.2366C592.149 21.3648 591.684 21.552 591.258 21.7981C590.832 22.0442 590.43 22.357 590.054 22.7366L587.757 18.7583ZM586.622 19.7925L589.06 24.0144C588.8 24.471 588.603 24.95 588.469 25.4516C588.334 25.9532 588.266 26.4666 588.262 26.9919L584.04 29.4294C583.469 27.0345 583.716 24.7271 584.78 22.5072C585.258 21.4915 585.872 20.5865 586.622 19.7925ZM585.155 32.2501C585.092 32.1418 585.033 32.0316 584.977 31.9195L584.81 31.583L584.653 31.2407L584.506 30.8925L588.484 28.5956C588.613 29.0989 588.802 29.5671 589.052 30.0001C589.302 30.4331 589.606 30.8349 589.964 31.2054L586.006 33.4905C585.673 33.0695 585.389 32.656 585.155 32.2501ZM596.677 37.2077C594.966 37.6184 593.251 37.5936 591.533 37.1332C589.814 36.6728 588.317 35.8369 587.04 34.6255L591.262 32.188C592.183 32.7208 593.176 32.9867 594.24 32.9858L596.677 37.2077ZM600.738 35.2419C600.344 35.5595 599.931 35.8434 599.498 36.0934C599.065 36.3434 598.612 36.5595 598.14 36.7419L595.855 32.7839C596.364 32.6343 596.832 32.4365 597.258 32.1904C597.684 31.9443 598.083 31.6421 598.453 31.2839L600.738 35.2419ZM601.873 34.2077L599.436 29.9858C599.968 29.0648 600.234 28.0723 600.234 27.0083L604.455 24.5708C604.72 25.717 604.798 26.8674 604.689 28.022C604.58 29.1766 604.286 30.2845 603.807 31.3458C603.328 32.4071 602.683 33.361 601.873 34.2077ZM600.032 25.3929C599.961 25.1451 599.876 24.9052 599.778 24.673C599.68 24.4409 599.569 24.2166 599.444 24.0001C599.194 23.5671 598.883 23.1692 598.511 22.8065L602.49 20.5096C602.823 20.9307 603.107 21.3441 603.341 21.7501C603.575 22.156 603.792 22.6086 603.99 23.1077L600.032 25.3929Z" fill="black"/>
</g>
<path d="M633.04 22.084C632.424 22.084 631.872 21.984 631.384 21.784C630.896 21.584 630.504 21.288 630.208 20.896C629.92 20.504 629.768 20.032 629.752 19.48H631.936C631.968 19.792 632.076 20.032 632.26 20.2C632.444 20.36 632.684 20.44 632.98 20.44C633.284 20.44 633.524 20.372 633.7 20.236C633.876 20.092 633.964 19.896 633.964 19.648C633.964 19.44 633.892 19.268 633.748 19.132C633.612 18.996 633.44 18.884 633.232 18.796C633.032 18.708 632.744 18.608 632.368 18.496C631.824 18.328 631.38 18.16 631.036 17.992C630.692 17.824 630.396 17.576 630.148 17.248C629.9 16.92 629.776 16.492 629.776 15.964C629.776 15.18 630.06 14.568 630.628 14.128C631.196 13.68 631.936 13.456 632.848 13.456C633.776 13.456 634.524 13.68 635.092 14.128C635.66 14.568 635.964 15.184 636.004 15.976H633.784C633.768 15.704 633.668 15.492 633.484 15.34C633.3 15.18 633.064 15.1 632.776 15.1C632.528 15.1 632.328 15.168 632.176 15.304C632.024 15.432 631.948 15.62 631.948 15.868C631.948 16.14 632.076 16.352 632.332 16.504C632.588 16.656 632.988 16.82 633.532 16.996C634.076 17.18 634.516 17.356 634.852 17.524C635.196 17.692 635.492 17.936 635.74 18.256C635.988 18.576 636.112 18.988 636.112 19.492C636.112 19.972 635.988 20.408 635.74 20.8C635.5 21.192 635.148 21.504 634.684 21.736C634.22 21.968 633.672 22.084 633.04 22.084ZM643.435 13.576V15.22H641.203V22H639.151V15.22H636.919V13.576H643.435ZM646.517 15.22V16.924H649.265V18.508H646.517V20.356H649.625V22H644.465V13.576H649.625V15.22H646.517ZM657.377 16.288C657.377 16.776 657.265 17.224 657.041 17.632C656.817 18.032 656.473 18.356 656.009 18.604C655.545 18.852 654.969 18.976 654.281 18.976H653.009V22H650.957V13.576H654.281C654.953 13.576 655.521 13.692 655.985 13.924C656.449 14.156 656.797 14.476 657.029 14.884C657.261 15.292 657.377 15.76 657.377 16.288ZM654.125 17.344C654.517 17.344 654.809 17.252 655.001 17.068C655.193 16.884 655.289 16.624 655.289 16.288C655.289 15.952 655.193 15.692 655.001 15.508C654.809 15.324 654.517 15.232 654.125 15.232H653.009V17.344H654.125ZM660.856 15.712C660.888 14.856 661.168 14.196 661.696 13.732C662.224 13.268 662.94 13.036 663.844 13.036C664.444 13.036 664.956 13.14 665.38 13.348C665.812 13.556 666.136 13.84 666.352 14.2C666.576 14.56 666.688 14.964 666.688 15.412C666.688 15.94 666.556 16.372 666.292 16.708C666.028 17.036 665.72 17.26 665.368 17.38V17.428C665.824 17.58 666.184 17.832 666.448 18.184C666.712 18.536 666.844 18.988 666.844 19.54C666.844 20.036 666.728 20.476 666.496 20.86C666.272 21.236 665.94 21.532 665.5 21.748C665.068 21.964 664.552 22.072 663.952 22.072C662.992 22.072 662.224 21.836 661.648 21.364C661.08 20.892 660.78 20.18 660.748 19.228H662.74C662.748 19.58 662.848 19.86 663.04 20.068C663.232 20.268 663.512 20.368 663.88 20.368C664.192 20.368 664.432 20.28 664.6 20.104C664.776 19.92 664.864 19.68 664.864 19.384C664.864 19 664.74 18.724 664.492 18.556C664.252 18.38 663.864 18.292 663.328 18.292H662.944V16.624H663.328C663.736 16.624 664.064 16.556 664.312 16.42C664.568 16.276 664.696 16.024 664.696 15.664C664.696 15.376 664.616 15.152 664.456 14.992C664.296 14.832 664.076 14.752 663.796 14.752C663.492 14.752 663.264 14.844 663.112 15.028C662.968 15.212 662.884 15.44 662.86 15.712H660.856Z" fill="black"/>
<path opacity="0.6" d="M679.191 22.488V22.416C678.079 21.272 677.511 19.696 677.511 18.072C677.511 16.44 678.079 14.76 679.311 13.6V13.528H678.551C677.415 14.576 676.807 16.264 676.807 18.072C676.807 19.872 677.415 21.488 678.431 22.488H679.191ZM686.52 18.208C686.52 16.536 685.296 15.36 683.72 15.36C682.152 15.36 680.92 16.536 680.92 18.208C680.92 19.88 682.152 21.056 683.72 21.056C685.296 21.056 686.52 19.88 686.52 18.208ZM681.664 18.208C681.664 16.84 682.544 15.992 683.72 15.992C684.896 15.992 685.776 16.84 685.776 18.208C685.776 19.568 684.896 20.424 683.72 20.424C682.544 20.424 681.664 19.568 681.664 18.208ZM689.209 18.072V16.024H690.281C691.113 16.024 691.465 16.408 691.465 17.056C691.465 17.68 691.113 18.072 690.281 18.072H689.209ZM692.209 17.056C692.209 16.144 691.593 15.424 690.281 15.424H688.481V21H689.209V18.672H690.281C691.665 18.672 692.209 17.904 692.209 17.056ZM693.77 16.016H695.298V21H696.026V16.016H697.546V15.424H693.77V16.016ZM699.442 21H700.17V15.424H699.442V21ZM707.739 18.208C707.739 16.536 706.515 15.36 704.939 15.36C703.371 15.36 702.139 16.536 702.139 18.208C702.139 19.88 703.371 21.056 704.939 21.056C706.515 21.056 707.739 19.88 707.739 18.208ZM702.883 18.208C702.883 16.84 703.763 15.992 704.939 15.992C706.115 15.992 706.995 16.84 706.995 18.208C706.995 19.568 706.115 20.424 704.939 20.424C703.763 20.424 702.883 19.568 702.883 18.208ZM713.356 15.416V19.848L710.428 15.416H709.7V21H710.428V16.56L713.356 21H714.084V15.416H713.356ZM720.069 21H720.837L718.829 15.456H717.989L715.973 21H716.741L717.189 19.76H719.621L720.069 21ZM719.413 19.168H717.397L718.405 16.352L719.413 19.168ZM722.716 15.424V21H725.396V20.408H723.444V15.424H722.716ZM726.937 22.488V22.416C728.049 21.272 728.617 19.696 728.617 18.072C728.617 16.44 728.049 14.76 726.817 13.6V13.528H727.577C728.713 14.576 729.321 16.264 729.321 18.072C729.321 19.872 728.713 21.488 727.697 22.488H726.937Z" fill="black"/>
<path d="M635.548 34.112C635.548 35.204 634.918 35.988 633.476 35.988H631.6V32.292H633.476C634.932 32.292 635.548 33.006 635.548 34.112ZM630.326 31.242V41H631.6V37.01H633.14L635.464 41H636.99L634.54 36.912C636.178 36.548 636.864 35.358 636.864 34.112C636.864 32.516 635.772 31.242 633.476 31.242H630.326ZM642.106 34.28C643.422 34.28 644.542 35.106 644.528 36.604H639.684C639.824 35.106 640.86 34.28 642.106 34.28ZM645.69 38.634H644.318C644.038 39.46 643.31 40.048 642.162 40.048C640.86 40.048 639.768 39.194 639.67 37.64H645.802C645.83 37.374 645.844 37.15 645.844 36.87C645.844 34.77 644.388 33.202 642.162 33.202C639.922 33.202 638.368 34.728 638.368 37.15C638.368 39.586 639.978 41.126 642.162 41.126C644.066 41.126 645.298 40.034 645.69 38.634ZM646.615 33.328L649.625 41H651.109L654.119 33.328H652.761L650.381 39.824L647.987 33.328H646.615ZM655.373 41H656.647V33.328H655.373V41ZM656.031 32.082C656.493 32.082 656.871 31.704 656.871 31.214C656.871 30.724 656.493 30.346 656.031 30.346C655.541 30.346 655.163 30.724 655.163 31.214C655.163 31.704 655.541 32.082 656.031 32.082ZM662.08 34.28C663.396 34.28 664.516 35.106 664.502 36.604H659.658C659.798 35.106 660.834 34.28 662.08 34.28ZM665.664 38.634H664.292C664.012 39.46 663.284 40.048 662.136 40.048C660.834 40.048 659.742 39.194 659.644 37.64H665.776C665.804 37.374 665.818 37.15 665.818 36.87C665.818 34.77 664.362 33.202 662.136 33.202C659.896 33.202 658.342 34.728 658.342 37.15C658.342 39.586 659.952 41.126 662.136 41.126C664.04 41.126 665.272 40.034 665.664 38.634ZM668.998 41H670.314L672.162 34.91L674.01 41H675.326L677.72 33.328H676.46L674.724 39.782L672.862 33.328H671.56L669.656 39.768L667.892 33.328H666.59L668.998 41ZM682.997 38.9C682.997 40.44 683.767 41 685.125 41H686.273V39.922H685.335C684.551 39.922 684.271 39.656 684.271 38.9V34.378H686.273V33.328H684.271V31.396H682.997V33.328H682.003V34.378H682.997V38.9ZM687.816 41H689.09V36.758C689.09 35.106 689.986 34.294 691.288 34.294C692.576 34.294 693.43 35.092 693.43 36.66V41H694.69V36.478C694.69 34.28 693.332 33.188 691.624 33.188C690.546 33.188 689.594 33.622 689.09 34.434V30.64H687.816V41ZM700.033 34.28C701.349 34.28 702.469 35.106 702.455 36.604H697.611C697.751 35.106 698.787 34.28 700.033 34.28ZM703.617 38.634H702.245C701.965 39.46 701.237 40.048 700.089 40.048C698.787 40.048 697.695 39.194 697.597 37.64H703.729C703.757 37.374 703.771 37.15 703.771 36.87C703.771 34.77 702.315 33.202 700.089 33.202C697.849 33.202 696.295 34.728 696.295 37.15C696.295 39.586 697.905 41.126 700.089 41.126C701.993 41.126 703.225 40.034 703.617 38.634ZM708.709 37.136C708.709 39.516 710.291 41.126 712.335 41.126C713.749 41.126 714.743 40.398 715.205 39.572V41H716.493V33.328H715.205V34.728C714.757 33.93 713.777 33.202 712.349 33.202C710.291 33.202 708.709 34.742 708.709 37.136ZM715.205 37.15C715.205 38.956 714.001 40.006 712.601 40.006C711.201 40.006 710.011 38.942 710.011 37.136C710.011 35.33 711.201 34.308 712.601 34.308C714.001 34.308 715.205 35.372 715.205 37.15ZM719.92 34.742V33.328H718.646V44.64H719.92V39.586C720.396 40.37 721.39 41.126 722.79 41.126C724.848 41.126 726.43 39.516 726.43 37.136C726.43 34.742 724.848 33.202 722.79 33.202C721.39 33.202 720.382 33.93 719.92 34.742ZM725.128 37.136C725.128 38.942 723.938 40.006 722.524 40.006C721.138 40.006 719.92 38.956 719.92 37.15C719.92 35.372 721.138 34.308 722.524 34.308C723.938 34.308 725.128 35.33 725.128 37.136ZM729.381 34.742V33.328H728.107V44.64H729.381V39.586C729.857 40.37 730.851 41.126 732.251 41.126C734.309 41.126 735.891 39.516 735.891 37.136C735.891 34.742 734.309 33.202 732.251 33.202C730.851 33.202 729.843 33.93 729.381 34.742ZM734.589 37.136C734.589 38.942 733.399 40.006 731.985 40.006C730.599 40.006 729.381 38.956 729.381 37.15C729.381 35.372 730.599 34.308 731.985 34.308C733.399 34.308 734.589 35.33 734.589 37.136Z" fill="#2699FB"/>
<defs>
<clipPath id="clip0">
<rect width="32" height="32" fill="white" transform="translate(578.248 11)"/>
</clipPath>
</defs>
</svg>
