<svg xmlns="http://www.w3.org/2000/svg" xmlns:xlink="http://www.w3.org/1999/xlink" width="836" height="55" viewBox="0 0 836 55">
  <defs>
    <clipPath id="clip-path">
      <rect id="Rectangle_4" data-name="Rectangle 4" width="32" height="32" transform="translate(582 11)" fill="#fff"/>
    </clipPath>
  </defs>
  <g id="stepper" transform="translate(-4)">
    <g id="Group_4068" data-name="Group 4068">
      <rect id="Rectangle_3" data-name="Rectangle 3" width="836" height="55" rx="4" transform="translate(4)" fill="#f2f4ff"/>
    </g>
    <path id="Path_1537" data-name="Path 1537" d="M4,4A4,4,0,0,1,8,0H259.963A4,4,0,0,1,263.2,1.647l17.091,23.5a4,4,0,0,1,0,4.705L263.2,53.353A4,4,0,0,1,259.963,55H8a4,4,0,0,1-4-4Z" fill="#2699fb"/>
    <circle id="Ellipse_642" data-name="Ellipse 642" cx="18" cy="18" r="18" transform="translate(20 9)" fill="#f2f4ff"/>
    <path id="Path_1538" data-name="Path 1538" d="M32,27.5l4,4,4-4L44.5,23" fill="none" stroke="#2699fb" stroke-width="2"/>
    <path id="Path_1539" data-name="Path 1539" d="M75.792,22.084a4.333,4.333,0,0,1-1.656-.3A2.741,2.741,0,0,1,72.96,20.9,2.45,2.45,0,0,1,72.5,19.48h2.184a1.084,1.084,0,0,0,.324.72,1.058,1.058,0,0,0,.72.24,1.149,1.149,0,0,0,.72-.2.719.719,0,0,0,.264-.588.679.679,0,0,0-.216-.516,1.6,1.6,0,0,0-.516-.336,7.8,7.8,0,0,0-.864-.3,9.473,9.473,0,0,1-1.332-.5,2.461,2.461,0,0,1-.888-.744,2.073,2.073,0,0,1-.372-1.284,2.191,2.191,0,0,1,.852-1.836,3.479,3.479,0,0,1,2.22-.672,3.519,3.519,0,0,1,2.244.672,2.366,2.366,0,0,1,.912,1.848h-2.22a.848.848,0,0,0-.3-.636,1.04,1.04,0,0,0-.708-.24.866.866,0,0,0-.6.2.7.7,0,0,0-.228.564.707.707,0,0,0,.384.636,6.3,6.3,0,0,0,1.2.492,10.691,10.691,0,0,1,1.32.528,2.508,2.508,0,0,1,.888.732,1.959,1.959,0,0,1,.372,1.236,2.4,2.4,0,0,1-.372,1.308,2.521,2.521,0,0,1-1.056.936A3.636,3.636,0,0,1,75.792,22.084Zm10.395-8.508V15.22H83.955V22H81.9V15.22H79.671V13.576Zm3.082,1.644v1.7h2.748v1.584H89.269v1.848h3.108V22h-5.16V13.576h5.16V15.22Zm10.86,1.068a2.745,2.745,0,0,1-.336,1.344,2.483,2.483,0,0,1-1.032.972,3.633,3.633,0,0,1-1.728.372H95.761V22H93.709V13.576h3.324a3.783,3.783,0,0,1,1.7.348,2.392,2.392,0,0,1,1.044.96A2.788,2.788,0,0,1,100.129,16.288Zm-3.252,1.056a1.224,1.224,0,0,0,.876-.276,1.2,1.2,0,0,0,0-1.56,1.224,1.224,0,0,0-.876-.276H95.761v2.112Zm6.443-2.2V13.24h3.324V22h-2.136V15.148Z" fill="#fff"/>
    <path id="Path_1540" data-name="Path 1540" d="M79.846,38.83H75.59L74.806,41H73.462l3.528-9.7h1.47L81.974,41H80.63Zm-.364-1.036-1.764-4.928-1.764,4.928Zm5.3-3.052a3,3,0,0,1,1.12-1.092,3.367,3.367,0,0,1,1.75-.448,3.553,3.553,0,0,1,1.848.49,3.428,3.428,0,0,1,1.316,1.386,4.269,4.269,0,0,1,.476,2.058,4.4,4.4,0,0,1-.476,2.072,3.511,3.511,0,0,1-3.164,1.918,3.425,3.425,0,0,1-1.736-.434,3.224,3.224,0,0,1-1.134-1.106V44.64H83.512V33.328h1.274Zm5.208,2.394a3.119,3.119,0,0,0-.35-1.512,2.41,2.41,0,0,0-.952-.98,2.578,2.578,0,0,0-1.3-.336,2.546,2.546,0,0,0-1.3.35,2.51,2.51,0,0,0-.952.994,3.089,3.089,0,0,0-.35,1.5,3.2,3.2,0,0,0,.35,1.526,2.486,2.486,0,0,0,2.254,1.33,2.578,2.578,0,0,0,1.3-.336,2.506,2.506,0,0,0,.952-.994A3.233,3.233,0,0,0,89.994,37.136Zm4.253-2.394a3,3,0,0,1,1.12-1.092,3.367,3.367,0,0,1,1.75-.448,3.553,3.553,0,0,1,1.848.49,3.433,3.433,0,0,1,1.316,1.386,4.272,4.272,0,0,1,.476,2.058,4.408,4.408,0,0,1-.476,2.072,3.512,3.512,0,0,1-3.164,1.918,3.425,3.425,0,0,1-1.736-.434,3.226,3.226,0,0,1-1.134-1.106V44.64H92.973V33.328h1.274Zm5.208,2.394a3.118,3.118,0,0,0-.35-1.512,2.409,2.409,0,0,0-.952-.98,2.578,2.578,0,0,0-1.3-.336,2.547,2.547,0,0,0-1.3.35,2.51,2.51,0,0,0-.952.994,3.089,3.089,0,0,0-.35,1.5,3.2,3.2,0,0,0,.35,1.526,2.486,2.486,0,0,0,2.254,1.33,2.578,2.578,0,0,0,1.3-.336,2.5,2.5,0,0,0,.952-.994A3.232,3.232,0,0,0,99.454,37.136Zm7.986-5.894V41h-1.274V31.242Zm5.909,1.946a3.093,3.093,0,0,1,2.268.854,3.235,3.235,0,0,1,.868,2.436V41h-1.26V36.66a2.439,2.439,0,0,0-.574-1.75,2.037,2.037,0,0,0-1.568-.616,2.124,2.124,0,0,0-1.61.63,2.593,2.593,0,0,0-.588,1.834V41h-1.274V33.328h1.274V34.42a2.542,2.542,0,0,1,1.022-.91A3.239,3.239,0,0,1,113.349,33.188Zm7.933,7.938a4.052,4.052,0,0,1-1.582-.294,2.755,2.755,0,0,1-1.106-.84,2.276,2.276,0,0,1-.448-1.246h1.316a1.3,1.3,0,0,0,.532.938,2.084,2.084,0,0,0,1.274.364,1.842,1.842,0,0,0,1.148-.322.984.984,0,0,0,.42-.812.786.786,0,0,0-.448-.742,5.974,5.974,0,0,0-1.386-.49,11.426,11.426,0,0,1-1.4-.448,2.671,2.671,0,0,1-.924-.686,1.841,1.841,0,0,1-.378-1.2,1.816,1.816,0,0,1,.35-1.078,2.33,2.33,0,0,1,.994-.77,3.508,3.508,0,0,1,1.47-.294,3.137,3.137,0,0,1,2.058.644,2.318,2.318,0,0,1,.84,1.764h-1.274a1.306,1.306,0,0,0-.49-.966,1.771,1.771,0,0,0-1.176-.364,1.826,1.826,0,0,0-1.092.294.91.91,0,0,0-.406.77.885.885,0,0,0,.238.63,2.057,2.057,0,0,0,.616.392q.378.14,1.036.322a10.172,10.172,0,0,1,1.344.448,2.22,2.22,0,0,1,.882.644,1.718,1.718,0,0,1,.392,1.134,1.937,1.937,0,0,1-.35,1.134,2.37,2.37,0,0,1-.994.8A3.553,3.553,0,0,1,121.282,41.126Zm6.153-6.748V38.9a1.1,1.1,0,0,0,.238.8,1.2,1.2,0,0,0,.826.224h.938V41h-1.148a2.282,2.282,0,0,1-1.6-.49,2.1,2.1,0,0,1-.532-1.61V34.378h-.994v-1.05h.994V31.4h1.274v1.932h2v1.05Zm3.069,2.758a4.272,4.272,0,0,1,.476-2.058,3.467,3.467,0,0,1,1.3-1.386,3.628,3.628,0,0,1,1.862-.49,3.4,3.4,0,0,1,1.75.434A2.884,2.884,0,0,1,137,34.728v-1.4h1.288V41H137V39.572a3.039,3.039,0,0,1-1.134,1.12,3.374,3.374,0,0,1-1.736.434,3.479,3.479,0,0,1-1.848-.5,3.544,3.544,0,0,1-1.3-1.414A4.408,4.408,0,0,1,130.5,37.136Zm6.5.014a3.111,3.111,0,0,0-.35-1.512,2.4,2.4,0,0,0-.952-.98,2.5,2.5,0,0,0-1.3-.35,2.578,2.578,0,0,0-1.3.336,2.442,2.442,0,0,0-.938.98,3.123,3.123,0,0,0-.35,1.512,3.237,3.237,0,0,0,.35,1.54,2.542,2.542,0,0,0,.938.994,2.691,2.691,0,0,0,2.6,0,2.5,2.5,0,0,0,.952-.994A3.194,3.194,0,0,0,137,37.15Zm4.715-6.51V41h-1.274V30.64Zm3.446,0V41h-1.274V30.64Z" fill="#fff"/>
    <path id="Path_1541" data-name="Path 1541" d="M264,0H539.963A4,4,0,0,1,543.2,1.647l17.091,23.5a4,4,0,0,1,0,4.705L543.2,53.353A4,4,0,0,1,539.963,55H264l18.289-25.147a4,4,0,0,0,0-4.705Z" fill="#2699fb"/>
    <circle id="Ellipse_643" data-name="Ellipse 643" cx="18" cy="18" r="18" transform="translate(300 9)" fill="#f2f4ff"/>
    <path id="Path_1542" data-name="Path 1542" d="M312,27.5l4,4,4-4,4.5-4.5" fill="none" stroke="#2699fb" stroke-width="2"/>
    <path id="Path_1543" data-name="Path 1543" d="M355.792,22.084a4.333,4.333,0,0,1-1.656-.3,2.741,2.741,0,0,1-1.176-.888,2.45,2.45,0,0,1-.456-1.416h2.184a1.084,1.084,0,0,0,.324.72,1.058,1.058,0,0,0,.72.24,1.149,1.149,0,0,0,.72-.2.719.719,0,0,0,.264-.588.679.679,0,0,0-.216-.516,1.6,1.6,0,0,0-.516-.336,7.8,7.8,0,0,0-.864-.3,9.473,9.473,0,0,1-1.332-.5,2.461,2.461,0,0,1-.888-.744,2.073,2.073,0,0,1-.372-1.284,2.191,2.191,0,0,1,.852-1.836,3.479,3.479,0,0,1,2.22-.672,3.519,3.519,0,0,1,2.244.672,2.366,2.366,0,0,1,.912,1.848h-2.22a.848.848,0,0,0-.3-.636,1.04,1.04,0,0,0-.708-.24.866.866,0,0,0-.6.2.7.7,0,0,0-.228.564.707.707,0,0,0,.384.636,6.294,6.294,0,0,0,1.2.492,10.691,10.691,0,0,1,1.32.528,2.508,2.508,0,0,1,.888.732,1.96,1.96,0,0,1,.372,1.236,2.4,2.4,0,0,1-.372,1.308,2.522,2.522,0,0,1-1.056.936A3.636,3.636,0,0,1,355.792,22.084Zm10.4-8.508V15.22h-2.232V22H361.9V15.22h-2.232V13.576Zm3.082,1.644v1.7h2.748v1.584h-2.748v1.848h3.108V22h-5.16V13.576h5.16V15.22Zm10.86,1.068a2.747,2.747,0,0,1-.336,1.344,2.483,2.483,0,0,1-1.032.972,3.633,3.633,0,0,1-1.728.372h-1.272V22h-2.052V13.576h3.324a3.783,3.783,0,0,1,1.7.348,2.392,2.392,0,0,1,1.044.96A2.79,2.79,0,0,1,380.129,16.288Zm-3.252,1.056a1.224,1.224,0,0,0,.876-.276,1.2,1.2,0,0,0,0-1.56,1.224,1.224,0,0,0-.876-.276h-1.116v2.112Zm6.587,3.012q.408-.324.372-.3,1.176-.972,1.848-1.6a7.548,7.548,0,0,0,1.152-1.308,2.364,2.364,0,0,0,.468-1.332,1.172,1.172,0,0,0-.228-.768.836.836,0,0,0-.684-.276.855.855,0,0,0-.72.348,1.577,1.577,0,0,0-.252.96h-1.98a3.44,3.44,0,0,1,.432-1.7,2.589,2.589,0,0,1,1.092-1.008,3.487,3.487,0,0,1,1.512-.324,2.887,2.887,0,0,1,2.148.732,2.581,2.581,0,0,1,.732,1.908,3.766,3.766,0,0,1-.876,2.388,13.032,13.032,0,0,1-2.232,2.136h3.24V21.88h-6.024Z" fill="#fff"/>
    <path id="Path_1544" data-name="Path 1544" d="M357.172,41.1a4.3,4.3,0,0,1-1.736-.336,2.963,2.963,0,0,1-1.19-.952A2.472,2.472,0,0,1,353.8,38.4h1.358a1.831,1.831,0,0,0,.56,1.162,2.081,2.081,0,0,0,1.456.462,2.11,2.11,0,0,0,1.428-.448,1.488,1.488,0,0,0,.532-1.176,1.329,1.329,0,0,0-.308-.91,1.965,1.965,0,0,0-.77-.532,12.012,12.012,0,0,0-1.246-.392,11.319,11.319,0,0,1-1.554-.5,2.578,2.578,0,0,1-.994-.784,2.382,2.382,0,0,1-.406-1.456,2.508,2.508,0,0,1,.406-1.414,2.656,2.656,0,0,1,1.134-.952,4.065,4.065,0,0,1,1.694-.336,3.5,3.5,0,0,1,2.24.686,2.527,2.527,0,0,1,.994,1.82h-1.4a1.488,1.488,0,0,0-.588-.98,2.066,2.066,0,0,0-1.372-.434,1.966,1.966,0,0,0-1.3.42,1.39,1.39,0,0,0-.5,1.148,1.27,1.27,0,0,0,.294.868,2.088,2.088,0,0,0,.742.518q.449.168,1.246.392a10.9,10.9,0,0,1,1.554.532,2.509,2.509,0,0,1,1.008.8,2.29,2.29,0,0,1,.42,1.456,2.569,2.569,0,0,1-.378,1.344,2.776,2.776,0,0,1-1.12,1.022A3.7,3.7,0,0,1,357.172,41.1ZM369.3,36.87a7.494,7.494,0,0,1-.042.77h-6.132a2.389,2.389,0,0,0,2.492,2.408,2.356,2.356,0,0,0,1.372-.378,2.068,2.068,0,0,0,.784-1.036h1.372a3.335,3.335,0,0,1-1.232,1.806,3.746,3.746,0,0,1-2.3.686,3.915,3.915,0,0,1-1.96-.49,3.486,3.486,0,0,1-1.344-1.386,4.777,4.777,0,0,1-.014-4.186,3.3,3.3,0,0,1,1.33-1.372,3.971,3.971,0,0,1,1.988-.49,3.851,3.851,0,0,1,1.932.476,3.239,3.239,0,0,1,1.288,1.316A3.777,3.777,0,0,1,369.3,36.87Zm-1.316-.266a2.32,2.32,0,0,0-.322-1.246,2.03,2.03,0,0,0-.882-.8,2.629,2.629,0,0,0-1.218-.28,2.386,2.386,0,0,0-1.652.616,2.523,2.523,0,0,0-.77,1.708Zm4.551-2.226V38.9a1.105,1.105,0,0,0,.238.8,1.2,1.2,0,0,0,.826.224h.938V41h-1.148a2.286,2.286,0,0,1-1.6-.49,2.106,2.106,0,0,1-.532-1.61V34.378h-.994v-1.05h.994V31.4h1.274v1.932h2v1.05Zm14.082-1.05V41h-1.274V39.866a2.512,2.512,0,0,1-1.022.924,3.146,3.146,0,0,1-1.428.322,3.494,3.494,0,0,1-1.61-.364,2.786,2.786,0,0,1-1.134-1.12,3.723,3.723,0,0,1-.406-1.806V33.328H381v4.326a2.475,2.475,0,0,0,.574,1.75,2.065,2.065,0,0,0,1.568.6,2.094,2.094,0,0,0,1.61-.63,2.593,2.593,0,0,0,.588-1.834V33.328Zm3.426,1.414a3,3,0,0,1,1.12-1.092,3.366,3.366,0,0,1,1.75-.448,3.555,3.555,0,0,1,1.848.49,3.433,3.433,0,0,1,1.316,1.386,4.272,4.272,0,0,1,.476,2.058,4.407,4.407,0,0,1-.476,2.072,3.511,3.511,0,0,1-3.164,1.918,3.423,3.423,0,0,1-1.736-.434,3.219,3.219,0,0,1-1.134-1.106V44.64h-1.274V33.328h1.274Zm5.208,2.394a3.123,3.123,0,0,0-.35-1.512,2.416,2.416,0,0,0-.952-.98,2.578,2.578,0,0,0-1.3-.336,2.545,2.545,0,0,0-1.3.35,2.5,2.5,0,0,0-.952.994,3.081,3.081,0,0,0-.35,1.5,3.194,3.194,0,0,0,.35,1.526,2.486,2.486,0,0,0,2.254,1.33,2.578,2.578,0,0,0,1.3-.336,2.512,2.512,0,0,0,.952-.994A3.237,3.237,0,0,0,395.246,37.136Zm12.479,1.694h-4.256L402.685,41h-1.344l3.528-9.7h1.47l3.514,9.7h-1.344Zm-.364-1.036L405.6,32.866l-1.764,4.928Zm5.3-3.052a3,3,0,0,1,1.12-1.092,3.366,3.366,0,0,1,1.75-.448,3.548,3.548,0,0,1,1.847.49,3.435,3.435,0,0,1,1.317,1.386,4.272,4.272,0,0,1,.476,2.058,4.408,4.408,0,0,1-.476,2.072,3.509,3.509,0,0,1-1.317,1.414,3.473,3.473,0,0,1-1.847.5,3.423,3.423,0,0,1-1.736-.434,3.219,3.219,0,0,1-1.134-1.106V44.64h-1.274V33.328h1.274Zm5.208,2.394a3.123,3.123,0,0,0-.35-1.512,2.416,2.416,0,0,0-.952-.98,2.578,2.578,0,0,0-1.3-.336,2.545,2.545,0,0,0-1.3.35,2.5,2.5,0,0,0-.952.994,3.081,3.081,0,0,0-.35,1.5,3.194,3.194,0,0,0,.35,1.526,2.486,2.486,0,0,0,2.254,1.33,2.578,2.578,0,0,0,1.3-.336,2.513,2.513,0,0,0,.952-.994A3.237,3.237,0,0,0,417.873,37.136Zm4.252-2.394a3,3,0,0,1,1.12-1.092,3.369,3.369,0,0,1,1.75-.448,3.549,3.549,0,0,1,1.848.49,3.426,3.426,0,0,1,1.316,1.386,4.261,4.261,0,0,1,.476,2.058,4.4,4.4,0,0,1-.476,2.072,3.511,3.511,0,0,1-3.164,1.918,3.425,3.425,0,0,1-1.736-.434,3.236,3.236,0,0,1-1.134-1.106V44.64h-1.274V33.328h1.274Zm5.208,2.394a3.111,3.111,0,0,0-.35-1.512,2.4,2.4,0,0,0-.952-.98,2.578,2.578,0,0,0-1.3-.336,2.55,2.55,0,0,0-1.3.35,2.511,2.511,0,0,0-.952.994,3.092,3.092,0,0,0-.35,1.5,3.205,3.205,0,0,0,.35,1.526,2.486,2.486,0,0,0,2.254,1.33,2.578,2.578,0,0,0,1.3-.336,2.5,2.5,0,0,0,.952-.994A3.225,3.225,0,0,0,427.333,37.136Z" fill="#fff"/>
    <circle id="Ellipse_644" data-name="Ellipse 644" cx="17.5" cy="17.5" r="17.5" transform="translate(580.5 9.5)" fill="none" stroke="#000" stroke-width="1"/>
    <g id="Group_4069" data-name="Group 4069" clip-path="url(#clip-path)">
      <path id="Path_1545" data-name="Path 1545" d="M592,16.608A11.961,11.961,0,0,0,587.608,33a12,12,0,1,0,20.784-12A11.962,11.962,0,0,0,592,16.608Zm3.571.185a10.2,10.2,0,0,1,2.6-.282,10.5,10.5,0,0,1,4.931,1.321,10.244,10.244,0,0,1,2.109,1.543l-4.222,2.438a5.838,5.838,0,0,0-2.978-.8ZM601.9,24.75A4.5,4.5,0,0,1,600.25,30.9,4.409,4.409,0,0,1,598,31.5a4.47,4.47,0,0,1-2.242-.6A4.405,4.405,0,0,1,594.1,29.25a4.491,4.491,0,0,1,3.9-6.744,4.584,4.584,0,0,1,2.241.6A4.339,4.339,0,0,1,601.9,24.75ZM591.51,18.758a9.641,9.641,0,0,1,2.6-1.5l2.3,3.978a5.475,5.475,0,0,0-1.394.561,5.757,5.757,0,0,0-1.2.939Zm-1.135,1.034,2.437,4.222a6.046,6.046,0,0,0-.591,1.437,6.124,6.124,0,0,0-.207,1.54l-4.222,2.438a10.139,10.139,0,0,1,.74-6.922A10.309,10.309,0,0,1,590.375,19.792ZM588.907,32.25c-.063-.108-.122-.218-.178-.331l-.167-.337-.157-.342-.147-.348,3.978-2.3A5.547,5.547,0,0,0,592.8,30a6.171,6.171,0,0,0,.912,1.205l-3.958,2.285A10.322,10.322,0,0,1,588.907,32.25Zm11.522,4.958a10.509,10.509,0,0,1-9.637-2.582l4.222-2.437a5.838,5.838,0,0,0,2.978.8Zm4.061-1.966a9.641,9.641,0,0,1-2.6,1.5l-2.285-3.958a6.4,6.4,0,0,0,1.4-.594,6.112,6.112,0,0,0,1.2-.906Zm1.135-1.034-2.437-4.222a5.833,5.833,0,0,0,.8-2.977l4.222-2.437a10.771,10.771,0,0,1,.233,3.451,10.4,10.4,0,0,1-.882,3.324A10.137,10.137,0,0,1,605.625,34.208Zm-1.841-8.815a6.54,6.54,0,0,0-.253-.72A6.062,6.062,0,0,0,603.2,24a5.513,5.513,0,0,0-.933-1.194l3.979-2.3a9.694,9.694,0,0,1,1.5,2.6Z"/>
    </g>
    <path id="Path_1546" data-name="Path 1546" d="M636.792,22.084a4.334,4.334,0,0,1-1.656-.3,2.741,2.741,0,0,1-1.176-.888,2.45,2.45,0,0,1-.456-1.416h2.184a1.084,1.084,0,0,0,.324.72,1.058,1.058,0,0,0,.72.24,1.15,1.15,0,0,0,.72-.2.719.719,0,0,0,.264-.588.679.679,0,0,0-.216-.516,1.6,1.6,0,0,0-.516-.336,7.8,7.8,0,0,0-.864-.3,9.472,9.472,0,0,1-1.332-.5,2.461,2.461,0,0,1-.888-.744,2.073,2.073,0,0,1-.372-1.284,2.191,2.191,0,0,1,.852-1.836,3.479,3.479,0,0,1,2.22-.672,3.519,3.519,0,0,1,2.244.672,2.366,2.366,0,0,1,.912,1.848h-2.22a.848.848,0,0,0-.3-.636,1.04,1.04,0,0,0-.708-.24.866.866,0,0,0-.6.2.7.7,0,0,0-.228.564.707.707,0,0,0,.384.636,6.3,6.3,0,0,0,1.2.492,10.691,10.691,0,0,1,1.32.528,2.508,2.508,0,0,1,.888.732,1.96,1.96,0,0,1,.372,1.236,2.4,2.4,0,0,1-.372,1.308,2.521,2.521,0,0,1-1.056.936A3.635,3.635,0,0,1,636.792,22.084Zm10.4-8.508V15.22h-2.232V22H642.9V15.22h-2.232V13.576Zm3.082,1.644v1.7h2.748v1.584h-2.748v1.848h3.108V22h-5.16V13.576h5.16V15.22Zm10.86,1.068a2.747,2.747,0,0,1-.336,1.344,2.483,2.483,0,0,1-1.032.972,3.633,3.633,0,0,1-1.728.372h-1.272V22h-2.052V13.576h3.324a3.783,3.783,0,0,1,1.7.348,2.392,2.392,0,0,1,1.044.96A2.79,2.79,0,0,1,661.129,16.288Zm-3.252,1.056a1.224,1.224,0,0,0,.876-.276,1.2,1.2,0,0,0,0-1.56,1.224,1.224,0,0,0-.876-.276h-1.116v2.112Zm6.731-1.632a2.636,2.636,0,0,1,.84-1.98,3.139,3.139,0,0,1,2.148-.7,3.46,3.46,0,0,1,1.536.312,2.215,2.215,0,0,1,.972.852,2.247,2.247,0,0,1,.336,1.212,1.97,1.97,0,0,1-1.32,1.968v.048a2.165,2.165,0,0,1,1.08.756,2.2,2.2,0,0,1,.4,1.356,2.5,2.5,0,0,1-.348,1.32,2.3,2.3,0,0,1-1,.888,3.427,3.427,0,0,1-1.548.324,3.523,3.523,0,0,1-2.3-.708,2.746,2.746,0,0,1-.9-2.136h1.992a1.233,1.233,0,0,0,.3.84,1.111,1.111,0,0,0,.84.3.948.948,0,0,0,.72-.264,1,1,0,0,0,.264-.72.927.927,0,0,0-.372-.828,2,2,0,0,0-1.164-.264H666.7V16.624h.384a2.045,2.045,0,0,0,.984-.2.793.793,0,0,0,.384-.756.909.909,0,0,0-.24-.672.892.892,0,0,0-.66-.24.836.836,0,0,0-.684.276,1.263,1.263,0,0,0-.252.684Z"/>
    <path id="Path_1547" data-name="Path 1547" d="M682.183,22.488a5.137,5.137,0,0,1-1.2-1.912,7.6,7.6,0,0,1,.024-5.072,5.107,5.107,0,0,1,1.3-1.976h.76V13.6a5.392,5.392,0,0,0-1.352,2.024,6.834,6.834,0,0,0-.448,2.448,6.689,6.689,0,0,0,.424,2.368,5.762,5.762,0,0,0,1.256,1.976v.072Zm5.289-1.432a2.84,2.84,0,0,1-1.416-.36,2.732,2.732,0,0,1-1.016-1.016,2.96,2.96,0,0,1-.368-1.472,2.915,2.915,0,0,1,.368-1.464,2.657,2.657,0,0,1,1.016-1.016,2.924,2.924,0,0,1,2.84,0,2.611,2.611,0,0,1,1.008,1.008,3.128,3.128,0,0,1,0,2.944A2.668,2.668,0,0,1,688.9,20.7,2.854,2.854,0,0,1,687.472,21.056Zm0-.632a2.034,2.034,0,0,0,1.048-.272,1.878,1.878,0,0,0,.736-.776,2.425,2.425,0,0,0,.272-1.168,2.4,2.4,0,0,0-.272-1.168,1.9,1.9,0,0,0-.728-.776,2.186,2.186,0,0,0-2.112,0,1.95,1.95,0,0,0-.736.776,2.452,2.452,0,0,0-.264,1.168,2.482,2.482,0,0,0,.264,1.168,1.95,1.95,0,0,0,.736.776A2.079,2.079,0,0,0,687.472,20.424Zm5.489-3a1.718,1.718,0,0,1,.64-.624,1.926,1.926,0,0,1,1-.256,2.026,2.026,0,0,1,1.056.28,1.957,1.957,0,0,1,.752.792,2.431,2.431,0,0,1,.272,1.176,2.508,2.508,0,0,1-.272,1.184,2.006,2.006,0,0,1-1.808,1.1,1.958,1.958,0,0,1-.992-.248,1.854,1.854,0,0,1-.648-.632V23.08h-.728V16.616h.728Zm2.976,1.368a1.775,1.775,0,0,0-.2-.864,1.371,1.371,0,0,0-.544-.56,1.51,1.51,0,0,0-1.488.008,1.436,1.436,0,0,0-.544.568,1.769,1.769,0,0,0-.2.856,1.833,1.833,0,0,0,.2.872,1.42,1.42,0,0,0,1.288.76,1.473,1.473,0,0,0,.744-.192,1.425,1.425,0,0,0,.544-.568A1.84,1.84,0,0,0,695.937,18.792Zm3.59-1.576V19.8a.633.633,0,0,0,.136.456.686.686,0,0,0,.472.128h.536V21h-.656a1.306,1.306,0,0,1-.912-.28,1.2,1.2,0,0,1-.3-.92V17.216h-.568v-.6h.568v-1.1h.728v1.1h1.144v.6Zm3.4-1.312a.5.5,0,1,1,0-.992.445.445,0,0,1,.336.144.5.5,0,0,1,0,.7A.445.445,0,0,1,702.93,15.9Zm.352.712V21h-.728V16.616Zm4.152,4.456a2.268,2.268,0,0,1-1.12-.28A2.04,2.04,0,0,1,705.53,20a2.5,2.5,0,0,1-.28-1.2,2.374,2.374,0,0,1,.288-1.184,2.008,2.008,0,0,1,.8-.792,2.412,2.412,0,0,1,2.256,0,1.966,1.966,0,0,1,.792.784A2.534,2.534,0,0,1,709.378,20a2.053,2.053,0,0,1-.808.792A2.327,2.327,0,0,1,707.434,21.072Zm0-.64a1.534,1.534,0,0,0,.736-.184,1.366,1.366,0,0,0,.552-.552,1.741,1.741,0,0,0,.216-.9,1.791,1.791,0,0,0-.208-.9,1.331,1.331,0,0,0-.544-.544,1.489,1.489,0,0,0-.728-.184,1.509,1.509,0,0,0-.736.184,1.309,1.309,0,0,0-.528.544,1.858,1.858,0,0,0-.2.9,1.937,1.937,0,0,0,.192.9,1.363,1.363,0,0,0,.528.552A1.5,1.5,0,0,0,707.434,20.432Zm6.341-3.9a1.766,1.766,0,0,1,1.3.488,1.848,1.848,0,0,1,.5,1.392V21h-.72V18.52a1.393,1.393,0,0,0-.328-1,1.163,1.163,0,0,0-.9-.352,1.214,1.214,0,0,0-.92.36,1.482,1.482,0,0,0-.336,1.048V21h-.728V16.616h.728v.624a1.454,1.454,0,0,1,.584-.52A1.852,1.852,0,0,1,713.775,16.536Zm3.71,2.256a2.431,2.431,0,0,1,.272-1.176,1.971,1.971,0,0,1,.744-.792,2.071,2.071,0,0,1,1.064-.28,1.947,1.947,0,0,1,1,.248,1.659,1.659,0,0,1,.632.624v-.8h.736V21H721.2v-.816a1.737,1.737,0,0,1-.648.64,1.932,1.932,0,0,1-.992.248,1.984,1.984,0,0,1-1.056-.288,2.015,2.015,0,0,1-.744-.808A2.508,2.508,0,0,1,717.485,18.792Zm3.712.008a1.786,1.786,0,0,0-.2-.864,1.384,1.384,0,0,0-.544-.56,1.428,1.428,0,0,0-.744-.2,1.473,1.473,0,0,0-.744.192,1.391,1.391,0,0,0-.536.56,1.774,1.774,0,0,0-.2.864,1.839,1.839,0,0,0,.2.88,1.448,1.448,0,0,0,.536.568,1.537,1.537,0,0,0,1.488,0,1.439,1.439,0,0,0,.544-.568A1.833,1.833,0,0,0,721.2,18.8Zm3.694-3.72V21h-.728V15.08Zm2.009,7.408v-.072a5.671,5.671,0,0,0,1.248-1.976,6.565,6.565,0,0,0,.432-2.368,6.714,6.714,0,0,0-.456-2.448A5.316,5.316,0,0,0,726.78,13.6v-.072h.76a5.037,5.037,0,0,1,1.288,1.976,7.466,7.466,0,0,1,.024,5.072,5.06,5.06,0,0,1-1.192,1.912Z" opacity="0.6"/>
    <path id="Path_1548" data-name="Path 1548" d="M639.216,41l-2.324-3.99h-1.54V41h-1.274V31.242h3.15a4.138,4.138,0,0,1,1.862.378,2.627,2.627,0,0,1,1.148,1.022,3.011,3.011,0,0,1-.21,3.248,2.809,2.809,0,0,1-1.736,1.022L640.742,41Zm-3.864-5.012h1.876a2.146,2.146,0,0,0,1.554-.5,1.856,1.856,0,0,0,.518-1.372,1.735,1.735,0,0,0-.518-1.344,2.2,2.2,0,0,0-1.554-.476h-1.876Zm14.244.882a7.511,7.511,0,0,1-.042.77h-6.132a2.389,2.389,0,0,0,2.492,2.408,2.356,2.356,0,0,0,1.372-.378,2.068,2.068,0,0,0,.784-1.036h1.372a3.336,3.336,0,0,1-1.232,1.806,3.747,3.747,0,0,1-2.3.686,3.915,3.915,0,0,1-1.96-.49,3.485,3.485,0,0,1-1.344-1.386,4.777,4.777,0,0,1-.014-4.186,3.3,3.3,0,0,1,1.33-1.372,3.97,3.97,0,0,1,1.988-.49,3.851,3.851,0,0,1,1.932.476,3.239,3.239,0,0,1,1.288,1.316A3.776,3.776,0,0,1,649.6,36.87ZM648.28,36.6a2.32,2.32,0,0,0-.322-1.246,2.03,2.03,0,0,0-.882-.8,2.629,2.629,0,0,0-1.218-.28,2.386,2.386,0,0,0-1.652.616,2.523,2.523,0,0,0-.77,1.708Zm5.853,3.22,2.38-6.5h1.358L654.861,41h-1.484l-3.01-7.672h1.372Zm5.65-7.742a.868.868,0,1,1,0-1.736.777.777,0,0,1,.588.252.879.879,0,0,1,0,1.232A.777.777,0,0,1,659.783,32.082Zm.616,1.246V41h-1.274V33.328Zm9.171,3.542a7.493,7.493,0,0,1-.042.77H663.4a2.389,2.389,0,0,0,2.492,2.408,2.354,2.354,0,0,0,1.372-.378,2.057,2.057,0,0,0,.784-1.036h1.372a3.33,3.33,0,0,1-1.232,1.806,3.745,3.745,0,0,1-2.3.686,3.918,3.918,0,0,1-1.96-.49,3.5,3.5,0,0,1-1.344-1.386,4.777,4.777,0,0,1-.014-4.186,3.314,3.314,0,0,1,1.33-1.372,3.976,3.976,0,0,1,1.988-.49,3.851,3.851,0,0,1,1.932.476,3.233,3.233,0,0,1,1.288,1.316A3.776,3.776,0,0,1,669.57,36.87Zm-1.316-.266a2.311,2.311,0,0,0-.322-1.246,2.019,2.019,0,0,0-.882-.8,2.629,2.629,0,0,0-1.218-.28,2.388,2.388,0,0,0-1.652.616,2.528,2.528,0,0,0-.77,1.708Zm13.218-3.276L679.078,41h-1.316l-1.848-6.09L674.066,41H672.75l-2.408-7.672h1.3l1.764,6.44,1.9-6.44h1.3l1.862,6.454,1.736-6.454Zm6.551,1.05V38.9a1.1,1.1,0,0,0,.238.8,1.2,1.2,0,0,0,.826.224h.938V41h-1.148a2.282,2.282,0,0,1-1.6-.49,2.1,2.1,0,0,1-.532-1.61V34.378h-.994v-1.05h.994V31.4h1.274v1.932h2v1.05Zm7.353-1.19a3.243,3.243,0,0,1,1.568.378,2.548,2.548,0,0,1,1.092,1.106,3.712,3.712,0,0,1,.406,1.806V41h-1.26V36.66a2.439,2.439,0,0,0-.574-1.75,2.037,2.037,0,0,0-1.568-.616,2.124,2.124,0,0,0-1.61.63,2.593,2.593,0,0,0-.588,1.834V41h-1.274V30.64h1.274v3.78a2.524,2.524,0,0,1,1.036-.91A3.424,3.424,0,0,1,695.376,33.188Zm12.147,3.682a7.511,7.511,0,0,1-.042.77h-6.132a2.389,2.389,0,0,0,2.492,2.408,2.354,2.354,0,0,0,1.372-.378A2.057,2.057,0,0,0,706,38.634h1.372a3.33,3.33,0,0,1-1.232,1.806,3.745,3.745,0,0,1-2.3.686,3.918,3.918,0,0,1-1.96-.49,3.5,3.5,0,0,1-1.344-1.386,4.777,4.777,0,0,1-.014-4.186,3.314,3.314,0,0,1,1.33-1.372,3.976,3.976,0,0,1,1.988-.49,3.851,3.851,0,0,1,1.932.476,3.233,3.233,0,0,1,1.288,1.316A3.776,3.776,0,0,1,707.523,36.87Zm-1.316-.266a2.311,2.311,0,0,0-.322-1.246,2.019,2.019,0,0,0-.882-.8,2.629,2.629,0,0,0-1.218-.28,2.388,2.388,0,0,0-1.652.616,2.528,2.528,0,0,0-.77,1.708Zm6.254.532a4.272,4.272,0,0,1,.476-2.058,3.467,3.467,0,0,1,1.3-1.386,3.628,3.628,0,0,1,1.862-.49,3.4,3.4,0,0,1,1.75.434,2.884,2.884,0,0,1,1.106,1.092v-1.4h1.288V41h-1.288V39.572a3.038,3.038,0,0,1-1.134,1.12,3.374,3.374,0,0,1-1.736.434,3.479,3.479,0,0,1-1.848-.5,3.544,3.544,0,0,1-1.3-1.414A4.407,4.407,0,0,1,712.461,37.136Zm6.5.014a3.111,3.111,0,0,0-.35-1.512,2.4,2.4,0,0,0-.952-.98,2.5,2.5,0,0,0-1.3-.35,2.578,2.578,0,0,0-1.3.336,2.442,2.442,0,0,0-.938.98,3.123,3.123,0,0,0-.35,1.512,3.237,3.237,0,0,0,.35,1.54,2.542,2.542,0,0,0,.938.994,2.691,2.691,0,0,0,2.6,0,2.5,2.5,0,0,0,.952-.994A3.194,3.194,0,0,0,718.957,37.15Zm4.715-2.408a3,3,0,0,1,1.12-1.092,3.369,3.369,0,0,1,1.75-.448,3.55,3.55,0,0,1,1.848.49,3.426,3.426,0,0,1,1.316,1.386,4.261,4.261,0,0,1,.476,2.058,4.4,4.4,0,0,1-.476,2.072,3.511,3.511,0,0,1-3.164,1.918,3.425,3.425,0,0,1-1.736-.434,3.236,3.236,0,0,1-1.134-1.106V44.64H722.4V33.328h1.274Zm5.208,2.394a3.112,3.112,0,0,0-.35-1.512,2.4,2.4,0,0,0-.952-.98,2.578,2.578,0,0,0-1.3-.336,2.55,2.55,0,0,0-1.3.35,2.512,2.512,0,0,0-.952.994,3.093,3.093,0,0,0-.35,1.5,3.206,3.206,0,0,0,.35,1.526,2.486,2.486,0,0,0,2.254,1.33,2.578,2.578,0,0,0,1.3-.336,2.5,2.5,0,0,0,.952-.994A3.225,3.225,0,0,0,728.88,37.136Zm4.253-2.394a3,3,0,0,1,1.12-1.092A3.369,3.369,0,0,1,736,33.2a3.55,3.55,0,0,1,1.848.49,3.426,3.426,0,0,1,1.316,1.386,4.261,4.261,0,0,1,.476,2.058,4.4,4.4,0,0,1-.476,2.072A3.511,3.511,0,0,1,736,41.126a3.425,3.425,0,0,1-1.736-.434,3.236,3.236,0,0,1-1.134-1.106V44.64h-1.274V33.328h1.274Zm5.208,2.394a3.112,3.112,0,0,0-.35-1.512,2.4,2.4,0,0,0-.952-.98,2.578,2.578,0,0,0-1.3-.336,2.55,2.55,0,0,0-1.3.35,2.512,2.512,0,0,0-.952.994,3.093,3.093,0,0,0-.35,1.5,3.206,3.206,0,0,0,.35,1.526,2.486,2.486,0,0,0,2.254,1.33,2.578,2.578,0,0,0,1.3-.336,2.5,2.5,0,0,0,.952-.994A3.225,3.225,0,0,0,738.341,37.136Z" fill="#2699fb"/>
  </g>
</svg>
