<svg xmlns="http://www.w3.org/2000/svg" width="1030" height="810" viewBox="0 0 1030 810">
  <metadata><?xpacket begin="﻿" id="W5M0MpCehiHzreSzNTczkc9d"?>
<x:xmpmeta xmlns:x="adobe:ns:meta/" x:xmptk="Adobe XMP Core 5.6-c138 79.159824, 2016/09/14-01:09:01        ">
   <rdf:RDF xmlns:rdf="http://www.w3.org/1999/02/22-rdf-syntax-ns#">
      <rdf:Description rdf:about=""/>
   </rdf:RDF>
</x:xmpmeta>
                                                                                                    
                                                                                                    
                                                                                                    
                                                                                                    
                                                                                                    
                                                                                                    
                                                                                                    
                                                                                                    
                                                                                                    
                                                                                                    
                                                                                                    
                                                                                                    
                                                                                                    
                                                                                                    
                                                                                                    
                                                                                                    
                                                                                                    
                                                                                                    
                                                                                                    
                                                                                                    
                           
<?xpacket end="w"?></metadata>
<defs>
    <style>
      .cls-1 {
        fill: #f2f2f5;
        fill-rule: evenodd;
      }
    </style>
  </defs>
  <path id="Rounded_Rectangle_22_copy_2" data-name="Rounded Rectangle 22 copy 2" class="cls-1" d="M3,769H180a3,3,0,0,1,3,3v22a3,3,0,0,1-3,3H3a3,3,0,0,1-3-3V772A3,3,0,0,1,3,769Zm846,0h177a3,3,0,0,1,3,3v22a3,3,0,0,1-3,3H849a3,3,0,0,1-3-3V772A3,3,0,0,1,849,769Zm-380,3H609a3,3,0,0,1,3,3v32a3,3,0,0,1-3,3H469a3,3,0,0,1-3-3V775A3,3,0,0,1,469,772ZM3,0H213a3,3,0,0,1,3,3V25a3,3,0,0,1-3,3H3a3,3,0,0,1-3-3V3A3,3,0,0,1,3,0ZM3,206H52a3,3,0,0,1,3,3v22a3,3,0,0,1-3,3H3a3,3,0,0,1-3-3V209A3,3,0,0,1,3,206Zm96,0h49a3,3,0,0,1,3,3v22a3,3,0,0,1-3,3H99a3,3,0,0,1-3-3V209A3,3,0,0,1,99,206Zm331,0h49a3,3,0,0,1,3,3v22a3,3,0,0,1-3,3H430a3,3,0,0,1-3-3V209A3,3,0,0,1,430,206Zm272,0h70a3,3,0,0,1,3,3v22a3,3,0,0,1-3,3H702a3,3,0,0,1-3-3V209A3,3,0,0,1,702,206Zm191,0h75a3,3,0,0,1,3,3v22a3,3,0,0,1-3,3H893a3,3,0,0,1-3-3V209A3,3,0,0,1,893,206ZM17,259H38a3,3,0,0,1,3,3v22a3,3,0,0,1-3,3H17a3,3,0,0,1-3-3V262A3,3,0,0,1,17,259Zm82,0H276a3,3,0,0,1,3,3v22a3,3,0,0,1-3,3H99a3,3,0,0,1-3-3V262A3,3,0,0,1,99,259Zm331,0h83a3,3,0,0,1,3,3v22a3,3,0,0,1-3,3H430a3,3,0,0,1-3-3V262A3,3,0,0,1,430,259Zm272,0H822a3,3,0,0,1,3,3v22a3,3,0,0,1-3,3H702a3,3,0,0,1-3-3V262A3,3,0,0,1,702,259Zm191-3h95a3,3,0,0,1,3,3v27a3,3,0,0,1-3,3H893a3,3,0,0,1-3-3V259A3,3,0,0,1,893,256ZM17,310H38a3,3,0,0,1,3,3v22a3,3,0,0,1-3,3H17a3,3,0,0,1-3-3V313A3,3,0,0,1,17,310Zm82,0H276a3,3,0,0,1,3,3v22a3,3,0,0,1-3,3H99a3,3,0,0,1-3-3V313A3,3,0,0,1,99,310Zm331,0h83a3,3,0,0,1,3,3v22a3,3,0,0,1-3,3H430a3,3,0,0,1-3-3V313A3,3,0,0,1,430,310Zm272,0H822a3,3,0,0,1,3,3v22a3,3,0,0,1-3,3H702a3,3,0,0,1-3-3V313A3,3,0,0,1,702,310Zm191-3h95a3,3,0,0,1,3,3v27a3,3,0,0,1-3,3H893a3,3,0,0,1-3-3V310A3,3,0,0,1,893,307ZM17,361H38a3,3,0,0,1,3,3v22a3,3,0,0,1-3,3H17a3,3,0,0,1-3-3V364A3,3,0,0,1,17,361Zm82,0H276a3,3,0,0,1,3,3v22a3,3,0,0,1-3,3H99a3,3,0,0,1-3-3V364A3,3,0,0,1,99,361Zm331,0h83a3,3,0,0,1,3,3v22a3,3,0,0,1-3,3H430a3,3,0,0,1-3-3V364A3,3,0,0,1,430,361Zm272,0H822a3,3,0,0,1,3,3v22a3,3,0,0,1-3,3H702a3,3,0,0,1-3-3V364A3,3,0,0,1,702,361Zm191-3h95a3,3,0,0,1,3,3v27a3,3,0,0,1-3,3H893a3,3,0,0,1-3-3V361A3,3,0,0,1,893,358ZM17,412H38a3,3,0,0,1,3,3v22a3,3,0,0,1-3,3H17a3,3,0,0,1-3-3V415A3,3,0,0,1,17,412Zm82,0H276a3,3,0,0,1,3,3v22a3,3,0,0,1-3,3H99a3,3,0,0,1-3-3V415A3,3,0,0,1,99,412Zm331,0h83a3,3,0,0,1,3,3v22a3,3,0,0,1-3,3H430a3,3,0,0,1-3-3V415A3,3,0,0,1,430,412Zm272,0H822a3,3,0,0,1,3,3v22a3,3,0,0,1-3,3H702a3,3,0,0,1-3-3V415A3,3,0,0,1,702,412Zm191-3h95a3,3,0,0,1,3,3v27a3,3,0,0,1-3,3H893a3,3,0,0,1-3-3V412A3,3,0,0,1,893,409ZM17,464H38a3,3,0,0,1,3,3v22a3,3,0,0,1-3,3H17a3,3,0,0,1-3-3V467A3,3,0,0,1,17,464Zm82,0H276a3,3,0,0,1,3,3v22a3,3,0,0,1-3,3H99a3,3,0,0,1-3-3V467A3,3,0,0,1,99,464Zm331,0h83a3,3,0,0,1,3,3v22a3,3,0,0,1-3,3H430a3,3,0,0,1-3-3V467A3,3,0,0,1,430,464Zm272,0H822a3,3,0,0,1,3,3v22a3,3,0,0,1-3,3H702a3,3,0,0,1-3-3V467A3,3,0,0,1,702,464Zm191-3h95a3,3,0,0,1,3,3v27a3,3,0,0,1-3,3H893a3,3,0,0,1-3-3V464A3,3,0,0,1,893,461ZM17,515H38a3,3,0,0,1,3,3v22a3,3,0,0,1-3,3H17a3,3,0,0,1-3-3V518A3,3,0,0,1,17,515Zm82,0H276a3,3,0,0,1,3,3v22a3,3,0,0,1-3,3H99a3,3,0,0,1-3-3V518A3,3,0,0,1,99,515Zm331,0h83a3,3,0,0,1,3,3v22a3,3,0,0,1-3,3H430a3,3,0,0,1-3-3V518A3,3,0,0,1,430,515Zm272,0H822a3,3,0,0,1,3,3v22a3,3,0,0,1-3,3H702a3,3,0,0,1-3-3V518A3,3,0,0,1,702,515Zm191-3h95a3,3,0,0,1,3,3v27a3,3,0,0,1-3,3H893a3,3,0,0,1-3-3V515A3,3,0,0,1,893,512ZM17,566H38a3,3,0,0,1,3,3v22a3,3,0,0,1-3,3H17a3,3,0,0,1-3-3V569A3,3,0,0,1,17,566Zm82,0H276a3,3,0,0,1,3,3v22a3,3,0,0,1-3,3H99a3,3,0,0,1-3-3V569A3,3,0,0,1,99,566Zm331,0h83a3,3,0,0,1,3,3v22a3,3,0,0,1-3,3H430a3,3,0,0,1-3-3V569A3,3,0,0,1,430,566Zm272,0H822a3,3,0,0,1,3,3v22a3,3,0,0,1-3,3H702a3,3,0,0,1-3-3V569A3,3,0,0,1,702,566ZM17,617H38a3,3,0,0,1,3,3v22a3,3,0,0,1-3,3H17a3,3,0,0,1-3-3V620A3,3,0,0,1,17,617Zm82,0H276a3,3,0,0,1,3,3v22a3,3,0,0,1-3,3H99a3,3,0,0,1-3-3V620A3,3,0,0,1,99,617Zm331,0h83a3,3,0,0,1,3,3v22a3,3,0,0,1-3,3H430a3,3,0,0,1-3-3V620A3,3,0,0,1,430,617Zm272,0H822a3,3,0,0,1,3,3v22a3,3,0,0,1-3,3H702a3,3,0,0,1-3-3V620A3,3,0,0,1,702,617Zm191-54h95a3,3,0,0,1,3,3v27a3,3,0,0,1-3,3H893a3,3,0,0,1-3-3V566A3,3,0,0,1,893,563Zm0,51h95a3,3,0,0,1,3,3v27a3,3,0,0,1-3,3H893a3,3,0,0,1-3-3V617A3,3,0,0,1,893,614ZM17,669H38a3,3,0,0,1,3,3v22a3,3,0,0,1-3,3H17a3,3,0,0,1-3-3V672A3,3,0,0,1,17,669Zm82,0H276a3,3,0,0,1,3,3v22a3,3,0,0,1-3,3H99a3,3,0,0,1-3-3V672A3,3,0,0,1,99,669Zm331,0h83a3,3,0,0,1,3,3v22a3,3,0,0,1-3,3H430a3,3,0,0,1-3-3V672A3,3,0,0,1,430,669Zm272,0H822a3,3,0,0,1,3,3v22a3,3,0,0,1-3,3H702a3,3,0,0,1-3-3V672A3,3,0,0,1,702,669Zm191-3h95a3,3,0,0,1,3,3v27a3,3,0,0,1-3,3H893a3,3,0,0,1-3-3V669A3,3,0,0,1,893,666ZM17,720H38a3,3,0,0,1,3,3v22a3,3,0,0,1-3,3H17a3,3,0,0,1-3-3V723A3,3,0,0,1,17,720Zm82,0H276a3,3,0,0,1,3,3v22a3,3,0,0,1-3,3H99a3,3,0,0,1-3-3V723A3,3,0,0,1,99,720Zm331,0h83a3,3,0,0,1,3,3v22a3,3,0,0,1-3,3H430a3,3,0,0,1-3-3V723A3,3,0,0,1,430,720Zm272,0H822a3,3,0,0,1,3,3v22a3,3,0,0,1-3,3H702a3,3,0,0,1-3-3V723A3,3,0,0,1,702,720Zm191-3h95a3,3,0,0,1,3,3v27a3,3,0,0,1-3,3H893a3,3,0,0,1-3-3V720A3,3,0,0,1,893,717ZM887,78h140a3,3,0,0,1,3,3v32a3,3,0,0,1-3,3H887a3,3,0,0,1-3-3V81A3,3,0,0,1,887,78ZM617,134h410a3,3,0,0,1,3,3v33a3,3,0,0,1-3,3H617a3,3,0,0,1-3-3V137A3,3,0,0,1,617,134ZM3,42H523a3,3,0,0,1,3,3V67a3,3,0,0,1-3,3H3a3,3,0,0,1-3-3V45A3,3,0,0,1,3,42ZM3,150H523a3,3,0,0,1,3,3v22a3,3,0,0,1-3,3H3a3,3,0,0,1-3-3V153A3,3,0,0,1,3,150Z"/>
</svg>
